<?xml version="1.0" encoding="UTF-8" standalone="no"?>
<!DOCTYPE svg PUBLIC "-//W3C//DTD SVG 1.1//EN" "http://www.w3.org/Graphics/SVG/1.1/DTD/svg11.dtd">
<svg xmlns="http://www.w3.org/2000/svg" version="1.1" viewBox="0.00 0.00 209.00 147.00">
<g stroke-width="2.00" fill="none" stroke-linecap="butt">
<path stroke="#f5f5f5" vector-effect="non-scaling-stroke" d="
  M 0.00 145.05
  Q 0.92 145.73 1.30 145.73
  Q 100.91 145.71 200.36 145.74
  A 1.40 1.40 0.0 0 0 201.76 144.34
  L 201.76 3.79
  A 1.38 1.38 0.0 0 0 200.38 2.41
  L 0.00 2.42"
/>
<path stroke="#bc9685" vector-effect="non-scaling-stroke" d="
  M 76.80 32.28
  Q 77.15 32.28 78.24 37.22
  A 1.99 1.99 0.0 0 0 82.12 37.27
  L 84.19 28.86
  A 0.82 0.82 0.0 0 0 83.59 27.86
  L 83.19 27.76
  A 1.41 1.40 13.6 0 0 81.49 28.79
  L 80.23 33.92
  A 0.28 0.27 38.0 0 1 79.72 33.98
  Q 79.38 33.34 78.89 30.21
  Q 78.52 27.80 76.82 27.79
  Q 75.12 27.79 74.73 30.20
  Q 74.22 33.32 73.88 33.96
  A 0.28 0.27 -37.6 0 1 73.37 33.90
  L 72.14 28.76
  A 1.41 1.40 -13.2 0 0 70.45 27.72
  L 70.05 27.81
  A 0.82 0.82 0.0 0 0 69.44 28.81
  L 71.45 37.23
  A 1.99 1.99 0.0 0 0 75.33 37.21
  Q 76.45 32.28 76.80 32.28"
/>
<path stroke="#bc9685" vector-effect="non-scaling-stroke" d="
  M 96.3862 33.0404
  A 5.72 5.56 -2.1 0 0 90.4663 27.6937
  A 5.72 5.56 -2.1 0 0 84.9538 33.4596
  A 5.72 5.56 -2.1 0 0 90.8737 38.8063
  A 5.72 5.56 -2.1 0 0 96.3862 33.0404"
/>
<path stroke="#bc9685" vector-effect="non-scaling-stroke" d="
  M 107.63 37.98
  L 106.61 36.22
  A 1.13 1.12 47.1 0 1 106.65 35.03
  Q 109.12 31.34 105.75 28.44
  A 2.11 2.10 65.0 0 0 104.39 27.94
  L 98.55 27.94
  A 0.45 0.44 -90.0 0 0 98.11 28.39
  L 98.11 37.47
  A 1.42 1.42 0.0 0 0 100.91 37.80
  L 101.08 37.07
  A 1.24 1.24 0.0 0 1 103.40 36.79
  Q 104.55 39.08 107.26 38.73
  A 0.50 0.50 0.0 0 0 107.63 37.98"
/>
<path stroke="#bc9685" vector-effect="non-scaling-stroke" d="
  M 110.04 38.59
  L 117.73 38.59
  A 0.84 0.83 -15.0 0 0 118.46 37.34
  L 118.20 36.88
  A 1.73 1.73 0.0 0 0 116.70 36.01
  L 112.98 36.01
  A 0.54 0.54 0.0 0 1 112.44 35.47
  L 112.44 28.58
  A 0.77 0.77 0.0 0 0 111.67 27.81
  L 110.26 27.81
  A 0.87 0.87 0.0 0 0 109.39 28.68
  L 109.39 37.94
  A 0.65 0.65 0.0 0 0 110.04 38.59"
/>
<path stroke="#bc9685" vector-effect="non-scaling-stroke" d="
  M 119.62 28.55
  L 119.64 37.95
  A 0.71 0.71 0.0 0 0 120.35 38.66
  L 124.03 38.65
  A 5.93 5.22 -0.1 0 0 129.95 33.42
  L 129.95 33.04
  A 5.93 5.22 -0.1 0 0 124.01 27.83
  L 120.33 27.84
  A 0.71 0.71 0.0 0 0 119.62 28.55"
/>
<path stroke="#e4dccb" vector-effect="non-scaling-stroke" d="
  M 111.56 55.62
  A 0.36 0.36 0.0 0 1 111.72 56.30
  C 103.81 60.34 100.28 64.55 97.63 73.00
  A 4.04 4.01 -89.2 0 1 94.93 75.65
  Q 86.55 78.12 82.21 86.99
  A 0.71 0.71 0.0 0 1 81.03 87.13
  Q 72.98 77.41 72.68 64.30
  A 1.40 1.39 89.2 0 0 71.29 62.94
  L 64.59 62.94
  A 1.15 1.15 0.0 0 0 63.44 64.12
  C 64.10 85.78 76.62 102.80 99.55 102.84
  Q 109.71 102.86 117.90 98.39
  C 129.44 92.09 134.84 77.54 135.82 64.98
  Q 136.45 56.80 135.63 48.31
  A 1.72 1.72 0.0 0 0 133.92 46.76
  L 88.91 46.76
  A 0.77 0.77 0.0 0 0 88.14 47.53
  L 88.14 54.62
  A 1.00 1.00 0.0 0 0 89.14 55.62
  L 111.56 55.62"
/>
<path stroke="#bc9685" vector-effect="non-scaling-stroke" d="
  M 46.67 66.41
  L 47.22 62.50
  A 0.85 0.85 0.0 0 1 48.18 61.77
  L 48.57 61.83
  A 0.94 0.94 0.0 0 1 49.38 62.87
  L 49.06 65.42
  A 0.81 0.80 -83.2 0 0 49.76 66.31
  L 49.80 66.32
  A 0.64 0.63 -85.3 0 0 50.54 65.67
  L 50.49 62.62
  A 0.58 0.58 0.0 0 1 51.15 62.03
  L 51.58 62.09
  A 1.20 1.20 0.0 0 1 52.60 63.44
  L 52.19 66.39
  A 0.36 0.36 0.0 0 0 52.50 66.80
  L 52.80 66.85
  A 0.48 0.48 0.0 0 0 53.34 66.44
  L 53.90 62.40
  A 1.24 1.24 0.0 0 0 52.85 61.00
  L 47.28 60.22
  A 1.23 1.23 0.0 0 0 45.88 61.43
  L 45.80 66.43
  A 0.09 0.09 0.0 0 0 45.85 66.52
  L 46.14 66.67
  A 0.36 0.36 0.0 0 0 46.67 66.41"
/>
<path stroke="#bc9685" vector-effect="non-scaling-stroke" d="
  M 152.29 66.25
  A 0.51 0.51 0.0 0 0 153.23 66.30
  Q 154.24 64.20 153.66 62.12
  C 153.13 60.25 151.22 59.71 149.84 61.19
  A 2.09 2.00 -16.8 0 0 149.35 62.06
  L 148.70 64.46
  A 0.73 0.73 0.0 0 1 147.33 64.56
  Q 146.84 63.46 147.32 61.81
  A 0.59 0.58 17.5 0 0 146.94 61.08
  L 146.80 61.04
  A 0.51 0.51 0.0 0 0 146.16 61.36
  Q 145.27 63.86 146.39 65.60
  A 2.08 1.95 -54.9 0 0 149.99 64.85
  Q 150.31 63.71 150.88 62.30
  A 0.72 0.72 0.0 0 1 152.07 62.08
  L 152.23 62.26
  A 1.82 1.82 0.0 0 1 152.62 64.10
  Q 152.07 65.67 152.29 66.25"
/>
<path stroke="#bc9685" vector-effect="non-scaling-stroke" d="
  M 47.41 68.44
  A 0.51 0.51 0.0 0 0 46.47 68.41
  Q 45.51 70.52 46.14 72.59
  C 46.71 74.44 48.62 74.94 49.96 73.43
  A 2.08 2.00 -18.1 0 0 50.43 72.55
  L 51.03 70.14
  A 0.73 0.73 0.0 0 1 52.40 70.01
  Q 52.91 71.10 52.46 72.76
  A 0.59 0.58 16.2 0 0 52.86 73.48
  L 53.00 73.51
  A 0.51 0.51 0.0 0 0 53.64 73.18
  Q 54.47 70.66 53.31 68.95
  A 2.08 1.94 -56.2 0 0 49.73 69.79
  Q 49.44 70.93 48.91 72.35
  A 0.72 0.72 0.0 0 1 47.72 72.60
  L 47.55 72.42
  A 1.81 1.81 0.0 0 1 47.13 70.59
  Q 47.63 69.01 47.41 68.44"
/>
<path stroke="#bc9685" vector-effect="non-scaling-stroke" d="
  M 153.11 74.16
  Q 152.87 73.75 152.27 73.52
  Q 151.42 73.20 151.55 72.39
  Q 152.12 68.82 149.65 68.07
  A 3.03 2.88 22.3 0 0 146.15 69.43
  Q 145.41 70.81 145.43 73.69
  A 0.77 0.77 0.0 0 0 146.13 74.45
  L 152.62 74.97
  A 0.53 0.53 0.0 0 0 153.11 74.16"
/>
<path stroke="#bc9685" vector-effect="non-scaling-stroke" d="
  M 47.17 77.86
  Q 47.53 78.15 48.16 78.14
  Q 49.06 78.13 49.23 78.93
  Q 49.96 82.40 52.49 82.22
  A 2.97 2.83 1.2 0 0 55.22 79.73
  Q 55.41 78.20 54.38 75.57
  A 0.76 0.76 0.0 0 0 53.46 75.12
  L 47.34 76.94
  A 0.53 0.52 -34.8 0 0 47.17 77.86"
/>
<path stroke="#bc9685" vector-effect="non-scaling-stroke" d="
  M 152.5314 78.0649
  A 0.39 0.39 0.0 0 0 152.2548 77.5878
  L 145.4709 75.7827
  A 0.39 0.39 0.0 0 0 144.9937 76.0593
  L 144.8086 76.7551
  A 0.39 0.39 0.0 0 0 145.0852 77.2322
  L 151.8691 79.0373
  A 0.39 0.39 0.0 0 0 152.3463 78.7607
  L 152.5314 78.0649"
/>
<path stroke="#bc9685" vector-effect="non-scaling-stroke" d="
  M 146.24 83.00
  Q 145.85 84.08 145.83 84.12
  A 0.79 0.78 -65.6 0 1 144.88 84.48
  L 143.06 83.83
  A 0.76 0.76 0.0 0 0 142.13 84.19
  L 142.11 84.22
  A 0.71 0.71 0.0 0 0 142.50 85.16
  Q 144.11 85.81 145.72 86.28
  Q 147.26 86.94 148.91 87.48
  A 0.71 0.71 0.0 0 0 149.81 87.00
  L 149.81 86.96
  A 0.76 0.76 0.0 0 0 149.33 86.09
  L 147.51 85.43
  A 0.79 0.78 -74.7 0 1 147.01 84.54
  Q 147.02 84.50 147.41 83.42
  Q 147.80 82.34 147.82 82.30
  A 0.79 0.78 -65.6 0 1 148.77 81.94
  L 150.59 82.59
  A 0.76 0.76 0.0 0 0 151.52 82.23
  L 151.54 82.20
  A 0.71 0.71 0.0 0 0 151.16 81.26
  Q 149.54 80.61 147.94 80.14
  Q 146.40 79.48 144.74 78.94
  A 0.71 0.71 0.0 0 0 143.84 79.42
  L 143.84 79.46
  A 0.76 0.76 0.0 0 0 144.33 80.33
  L 146.14 80.99
  A 0.79 0.78 -74.7 0 1 146.64 81.88
  Q 146.63 81.92 146.24 83.00"
/>
<path stroke="#bc9685" vector-effect="non-scaling-stroke" d="
  M 52.24 91.50
  Q 52.56 91.41 52.86 90.80
  Q 53.18 90.16 53.54 90.03
  Q 53.99 89.87 54.72 89.98
  C 57.45 90.40 58.67 88.04 57.81 85.65
  Q 57.50 84.78 57.32 84.34
  A 1.93 1.91 66.7 0 0 54.76 83.31
  L 49.81 85.51
  A 0.67 0.67 0.0 0 0 49.41 86.17
  L 49.42 86.21
  A 0.73 0.72 73.8 0 0 50.32 86.71
  Q 52.10 86.18 52.48 88.31
  A 1.19 1.15 54.2 0 1 52.38 89.01
  L 51.52 90.71
  A 0.57 0.57 0.0 0 0 52.24 91.50"
/>
<path stroke="#bc9685" vector-effect="non-scaling-stroke" d="
  M 144.19 94.29
  A 0.50 0.50 0.0 0 0 144.96 94.81
  Q 146.86 93.54 147.41 91.50
  C 147.90 89.65 146.57 88.25 144.66 88.80
  A 2.04 1.96 13.9 0 0 143.81 89.29
  L 142.07 90.99
  A 0.72 0.71 71.4 0 1 140.86 90.39
  Q 141.00 89.21 142.23 88.06
  A 0.58 0.57 48.2 0 0 142.27 87.26
  L 142.18 87.15
  A 0.50 0.50 0.0 0 0 141.48 87.10
  Q 139.48 88.77 139.55 90.79
  A 2.04 1.91 -24.2 0 0 142.96 91.96
  Q 143.79 91.16 144.98 90.25
  A 0.71 0.70 65.2 0 1 146.10 90.67
  L 146.14 90.90
  A 1.78 1.78 0.0 0 1 145.55 92.65
  Q 144.30 93.70 144.19 94.29"
/>
<path stroke="#bc9685" vector-effect="non-scaling-stroke" d="
  M 57.51 98.36
  L 55.57 94.99
  A 0.83 0.83 0.0 0 1 55.87 93.85
  L 56.21 93.66
  A 0.93 0.92 -30.6 0 1 57.47 93.98
  L 58.77 96.15
  A 0.79 0.79 0.0 0 0 59.85 96.42
  L 59.88 96.40
  A 0.63 0.62 56.8 0 0 60.07 95.45
  L 58.18 93.11
  A 0.58 0.57 -34.7 0 1 58.34 92.25
  L 58.71 92.04
  A 1.18 1.18 0.0 0 1 60.32 92.47
  L 61.79 95.01
  A 0.35 0.35 0.0 0 0 62.28 95.14
  L 62.54 95.00
  A 0.48 0.48 0.0 0 0 62.71 94.35
  L 60.70 90.87
  A 1.22 1.22 0.0 0 0 59.03 90.42
  L 54.24 93.19
  A 1.21 1.21 0.0 0 0 53.88 94.98
  L 56.85 98.91
  A 0.09 0.09 0.0 0 0 56.94 98.95
  L 57.26 98.89
  A 0.36 0.35 -20.2 0 0 57.51 98.36"
/>
<path stroke="#bc9685" vector-effect="non-scaling-stroke" d="
  M 140.47 96.96
  L 134.72 96.96
  A 0.69 0.69 0.0 0 0 134.27 98.18
  L 139.19 102.36
  A 0.73 0.73 0.0 0 0 140.22 102.27
  L 140.42 102.03
  A 0.33 0.33 0.0 0 0 140.38 101.56
  L 137.33 98.97
  A 0.33 0.33 0.0 0 1 137.54 98.39
  L 143.19 98.39
  A 0.69 0.68 65.1 0 0 143.63 97.18
  L 138.61 92.93
  A 0.89 0.88 49.0 0 0 137.56 92.85
  L 137.31 93.01
  A 0.65 0.64 -46.2 0 0 137.33 94.11
  L 140.71 96.06
  A 0.48 0.48 0.0 0 1 140.47 96.96"
/>
<path stroke="#bc9685" vector-effect="non-scaling-stroke" d="
  M 59.29 99.82
  A 0.50 0.50 0.0 0 0 58.56 100.39
  Q 59.17 102.59 60.94 103.75
  C 62.54 104.79 64.29 103.96 64.36 101.98
  A 2.04 1.96 -57.9 0 0 64.16 101.02
  L 63.09 98.83
  A 0.72 0.71 -0.4 0 1 64.04 97.87
  Q 65.11 98.37 65.82 99.90
  A 0.58 0.57 -23.6 0 0 66.57 100.19
  L 66.70 100.13
  A 0.50 0.50 0.0 0 0 66.97 99.48
  Q 66.01 97.06 64.06 96.50
  A 2.04 1.91 84.0 0 0 61.89 99.38
  Q 62.39 100.42 62.88 101.83
  A 0.71 0.70 -6.6 0 1 62.14 102.76
  L 61.90 102.73
  A 1.78 1.78 0.0 0 1 60.43 101.62
  Q 59.82 100.11 59.29 99.82"
/>
<path stroke="#bc9685" vector-effect="non-scaling-stroke" d="
  M 136.40 104.30
  A 4.01 4.01 0.0 0 0 132.39 100.29
  A 4.01 4.01 0.0 0 0 128.38 104.30
  A 4.01 4.01 0.0 0 0 132.39 108.31
  A 4.01 4.01 0.0 0 0 136.40 104.30"
/>
<path stroke="#bc9685" vector-effect="non-scaling-stroke" d="
  M 64.93 105.68
  A 0.50 0.50 0.0 0 0 64.30 106.35
  Q 65.23 108.41 67.14 109.28
  C 68.87 110.05 70.46 108.97 70.22 107.02
  A 2.03 1.95 -66.8 0 0 69.88 106.11
  L 68.50 104.13
  A 0.71 0.71 0.0 0 1 69.28 103.04
  Q 70.41 103.37 71.34 104.76
  A 0.57 0.57 0.0 0 0 72.11 104.93
  L 72.23 104.85
  A 0.49 0.49 0.0 0 0 72.40 104.17
  Q 71.09 101.95 69.09 101.70
  A 2.03 1.89 75.1 0 0 67.41 104.85
  Q 68.05 105.79 68.75 107.10
  A 0.70 0.70 0.0 0 1 68.17 108.12
  L 67.93 108.13
  A 1.77 1.76 73.1 0 1 66.32 107.27
  Q 65.49 105.88 64.93 105.68"
/>
<path stroke="#bc9685" vector-effect="non-scaling-stroke" d="
  M 125.9420 105.1110
  A 0.69 0.69 0.0 0 0 124.9893 104.8998
  L 124.9556 104.9213
  A 0.69 0.69 0.0 0 0 124.7444 105.8740
  L 128.3980 111.6090
  A 0.69 0.69 0.0 0 0 129.3507 111.8202
  L 129.3844 111.7987
  A 0.69 0.69 0.0 0 0 129.5956 110.8460
  L 125.9420 105.1110"
/>
<path stroke="#bc9685" vector-effect="non-scaling-stroke" d="
  M 79.78 110.38
  A 4.02 4.02 0.0 0 0 75.76 106.36
  A 4.02 4.02 0.0 0 0 71.74 110.38
  A 4.02 4.02 0.0 0 0 75.76 114.40
  A 4.02 4.02 0.0 0 0 79.78 110.38"
/>
<path stroke="#bc9685" vector-effect="non-scaling-stroke" d="
  M 121.75 115.68
  Q 121.95 115.26 121.80 114.64
  Q 121.58 113.76 122.32 113.41
  Q 125.56 111.88 124.79 109.43
  A 3.00 2.86 77.8 0 0 121.71 107.33
  Q 120.16 107.50 117.82 109.13
  A 0.77 0.76 -32.2 0 0 117.59 110.14
  L 120.81 115.73
  A 0.53 0.53 0.0 0 0 121.75 115.68"
/>
<path stroke="#bc9685" vector-effect="non-scaling-stroke" d="
  M 113.10 114.00
  Q 112.17 114.26 109.95 111.82
  A 0.80 0.80 0.0 0 0 108.58 112.55
  L 110.14 118.71
  A 0.90 0.90 0.0 0 0 111.06 119.39
  L 111.09 119.39
  A 0.70 0.70 0.0 0 0 111.63 118.51
  L 110.74 115.37
  A 0.48 0.47 10.3 0 1 111.48 114.86
  Q 112.36 115.50 113.30 116.31
  Q 113.42 116.42 113.75 116.32
  Q 114.08 116.23 114.13 116.07
  Q 114.51 114.89 114.92 113.89
  A 0.48 0.47 -41.9 0 1 115.82 113.94
  L 116.70 117.08
  A 0.70 0.70 0.0 0 0 117.62 117.54
  L 117.65 117.53
  A 0.90 0.90 0.0 0 0 118.08 116.47
  L 116.18 110.40
  A 0.80 0.80 0.0 0 0 114.63 110.49
  Q 114.02 113.74 113.10 114.00"
/>
<path stroke="#bc9685" vector-effect="non-scaling-stroke" d="
  M 88.23 117.33
  Q 87.26 117.92 86.56 117.69
  A 2.58 2.51 12.8 0 1 84.79 114.96
  Q 85.04 113.05 86.42 112.26
  C 87.54 111.63 88.44 112.40 89.70 113.09
  A 0.48 0.48 0.0 0 0 90.28 112.35
  C 88.28 110.22 84.95 110.00 83.77 112.98
  C 82.36 116.52 84.78 119.32 88.44 118.87
  A 0.74 0.73 -10.6 0 0 89.07 117.96
  L 88.99 117.64
  A 0.51 0.51 0.0 0 0 88.23 117.33"
/>
<path stroke="#bc9685" vector-effect="non-scaling-stroke" d="
  M 91.71 115.81
  Q 91.38 119.13 91.46 119.44
  Q 91.56 119.83 91.92 119.98
  A 0.53 0.52 17.2 0 0 92.64 119.61
  Q 93.00 117.85 93.10 117.39
  A 0.75 0.75 0.0 0 1 93.83 116.80
  L 95.85 116.80
  A 0.73 0.73 0.0 0 1 96.58 117.57
  L 96.48 119.67
  A 0.71 0.70 5.4 0 0 97.09 120.40
  L 97.12 120.40
  A 0.75 0.74 -83.6 0 0 97.90 119.77
  Q 98.14 118.20 98.25 116.46
  Q 98.48 114.74 98.56 113.15
  A 0.75 0.74 -85.1 0 0 97.91 112.38
  L 97.89 112.37
  A 0.71 0.70 5.9 0 0 97.14 112.97
  L 96.83 115.05
  A 0.73 0.73 0.0 0 1 95.96 115.66
  L 93.98 115.26
  A 0.75 0.75 0.0 0 1 93.38 114.54
  Q 93.37 114.07 93.37 112.27
  A 0.53 0.52 -5.9 0 0 92.73 111.77
  Q 92.35 111.84 92.18 112.20
  Q 92.04 112.49 91.71 115.81"
/>
<path stroke="#bc9685" vector-effect="non-scaling-stroke" d="
  M 104.03 119.12
  Q 104.81 119.07 105.06 118.98
  A 0.79 0.78 52.6 0 1 105.77 119.08
  L 107.19 120.02
  A 0.50 0.50 0.0 0 0 107.92 119.39
  Q 106.07 115.48 104.66 112.84
  Q 104.28 112.14 103.57 112.19
  Q 102.87 112.24 102.59 112.98
  Q 101.53 115.78 100.21 119.90
  A 0.50 0.50 0.0 0 0 101.01 120.42
  L 102.30 119.31
  A 0.79 0.78 -60.1 0 1 102.98 119.12
  Q 103.24 119.17 104.03 119.12"
/>
<path stroke="#bc9685" vector-effect="non-scaling-stroke" d="
  M 91.0472 30.4574
  A 2.89 2.68 -82.1 0 0 87.9954 32.9516
  A 2.89 2.68 -82.1 0 0 90.2528 36.1826
  A 2.89 2.68 -82.1 0 0 93.3046 33.6884
  A 2.89 2.68 -82.1 0 0 91.0472 30.4574"
/>
<path stroke="#bc9685" vector-effect="non-scaling-stroke" d="
  M 100.99 31.01
  L 101.11 33.33
  A 0.57 0.57 0.0 0 0 101.71 33.87
  L 101.97 33.86
  A 2.73 1.63 -2.9 0 0 104.61 32.09
  L 104.60 31.89
  A 2.73 1.63 -2.9 0 0 101.79 30.40
  L 101.53 30.41
  A 0.57 0.57 0.0 0 0 100.99 31.01"
/>
<path stroke="#bc9685" vector-effect="non-scaling-stroke" d="
  M 122.77 31.08
  L 122.77 35.50
  A 0.61 0.61 0.0 0 0 123.38 36.11
  L 123.59 36.11
  A 3.04 2.60 0.1 0 0 126.63 33.51
  L 126.63 33.07
  A 3.04 2.60 0.1 0 0 123.59 30.47
  L 123.38 30.47
  A 0.61 0.61 0.0 0 0 122.77 31.08"
/>
<path stroke="#e4dccb" vector-effect="non-scaling-stroke" d="
  M 126.29 59.91
  C 119.70 62.22 109.71 65.27 107.29 72.53
  C 105.75 77.12 104.95 80.84 100.10 83.09
  Q 97.97 84.08 93.88 85.92
  A 1.91 1.91 0.0 0 0 93.01 86.70
  L 90.28 91.44
  A 0.91 0.91 0.0 0 0 90.84 92.78
  Q 96.65 94.29 102.74 93.86
  C 120.92 92.55 126.07 76.10 127.03 60.47
  A 0.56 0.56 0.0 0 0 126.29 59.91"
/>
<path stroke="#bc9685" vector-effect="non-scaling-stroke" d="
  M 150.46 71.49
  A 1.81 1.81 0.0 0 0 148.65 69.68
  A 1.81 1.81 0.0 0 0 146.84 71.49
  A 1.81 1.81 0.0 0 0 148.65 73.30
  A 1.81 1.81 0.0 0 0 150.46 71.49"
/>
<path stroke="#bc9685" vector-effect="non-scaling-stroke" d="
  M 54.16 78.86
  A 1.98 1.98 0.0 0 0 52.18 76.88
  A 1.98 1.98 0.0 0 0 50.20 78.86
  A 1.98 1.98 0.0 0 0 52.18 80.84
  A 1.98 1.98 0.0 0 0 54.16 78.86"
/>
<path stroke="#bc9685" vector-effect="non-scaling-stroke" d="
  M 56.6593 85.7215
  A 1.34 1.34 0.0 0 0 54.9693 84.8641
  L 53.9047 85.2121
  A 1.34 1.34 0.0 0 0 53.0473 86.9021
  L 53.3207 87.7385
  A 1.34 1.34 0.0 0 0 55.0107 88.5959
  L 56.0753 88.2479
  A 1.34 1.34 0.0 0 0 56.9327 86.5579
  L 56.6593 85.7215"
/>
<path stroke="#bc9685" vector-effect="non-scaling-stroke" d="
  M 135.02 104.38
  A 2.67 2.67 0.0 0 0 132.35 101.71
  A 2.67 2.67 0.0 0 0 129.68 104.38
  A 2.67 2.67 0.0 0 0 132.35 107.05
  A 2.67 2.67 0.0 0 0 135.02 104.38"
/>
<path stroke="#bc9685" vector-effect="non-scaling-stroke" d="
  M 78.42 110.33
  A 2.71 2.71 0.0 0 0 75.71 107.62
  A 2.71 2.71 0.0 0 0 73.00 110.33
  A 2.71 2.71 0.0 0 0 75.71 113.04
  A 2.71 2.71 0.0 0 0 78.42 110.33"
/>
<path stroke="#bc9685" vector-effect="non-scaling-stroke" d="
  M 122.6072 108.9498
  A 1.34 1.34 0.0 0 0 120.7229 108.7485
  L 119.9913 109.3387
  A 1.34 1.34 0.0 0 0 119.7900 111.2231
  L 120.3928 111.9702
  A 1.34 1.34 0.0 0 0 122.2771 112.1715
  L 123.0087 111.5813
  A 1.34 1.34 0.0 0 0 123.2100 109.6969
  L 122.6072 108.9498"
/>
<path stroke="#bc9685" vector-effect="non-scaling-stroke" d="
  M 102.99 117.80
  L 104.49 117.84
  A 0.44 0.44 0.0 0 0 104.94 117.41
  L 104.95 117.20
  A 2.57 1.19 -88.3 0 0 103.84 114.60
  A 2.57 1.19 -88.3 0 0 102.57 117.13
  L 102.57 117.34
  A 0.44 0.44 0.0 0 0 102.99 117.80"
/>
</g>
<path fill="#ffffff" d="
  M 209.00 0.00
  L 209.00 147.00
  L 0.00 147.00
  L 0.00 145.05
  Q 0.92 145.73 1.30 145.73
  Q 100.91 145.71 200.36 145.74
  A 1.40 1.40 0.0 0 0 201.76 144.34
  L 201.76 3.79
  A 1.38 1.38 0.0 0 0 200.38 2.41
  L 0.00 2.42
  L 0.00 0.00
  L 209.00 0.00
  Z"
/>
<path fill="#ebebeb" d="
  M 0.00 145.05
  L 0.00 2.42
  L 200.38 2.41
  A 1.38 1.38 0.0 0 1 201.76 3.79
  L 201.76 144.34
  A 1.40 1.40 0.0 0 1 200.36 145.74
  Q 100.91 145.71 1.30 145.73
  Q 0.92 145.73 0.00 145.05
  Z
  M 76.80 32.28
  Q 77.15 32.28 78.24 37.22
  A 1.99 1.99 0.0 0 0 82.12 37.27
  L 84.19 28.86
  A 0.82 0.82 0.0 0 0 83.59 27.86
  L 83.19 27.76
  A 1.41 1.40 13.6 0 0 81.49 28.79
  L 80.23 33.92
  A 0.28 0.27 38.0 0 1 79.72 33.98
  Q 79.38 33.34 78.89 30.21
  Q 78.52 27.80 76.82 27.79
  Q 75.12 27.79 74.73 30.20
  Q 74.22 33.32 73.88 33.96
  A 0.28 0.27 -37.6 0 1 73.37 33.90
  L 72.14 28.76
  A 1.41 1.40 -13.2 0 0 70.45 27.72
  L 70.05 27.81
  A 0.82 0.82 0.0 0 0 69.44 28.81
  L 71.45 37.23
  A 1.99 1.99 0.0 0 0 75.33 37.21
  Q 76.45 32.28 76.80 32.28
  Z
  M 96.3862 33.0404
  A 5.72 5.56 -2.1 0 0 90.4663 27.6937
  A 5.72 5.56 -2.1 0 0 84.9538 33.4596
  A 5.72 5.56 -2.1 0 0 90.8737 38.8063
  A 5.72 5.56 -2.1 0 0 96.3862 33.0404
  Z
  M 107.63 37.98
  L 106.61 36.22
  A 1.13 1.12 47.1 0 1 106.65 35.03
  Q 109.12 31.34 105.75 28.44
  A 2.11 2.10 65.0 0 0 104.39 27.94
  L 98.55 27.94
  A 0.45 0.44 -90.0 0 0 98.11 28.39
  L 98.11 37.47
  A 1.42 1.42 0.0 0 0 100.91 37.80
  L 101.08 37.07
  A 1.24 1.24 0.0 0 1 103.40 36.79
  Q 104.55 39.08 107.26 38.73
  A 0.50 0.50 0.0 0 0 107.63 37.98
  Z
  M 110.04 38.59
  L 117.73 38.59
  A 0.84 0.83 -15.0 0 0 118.46 37.34
  L 118.20 36.88
  A 1.73 1.73 0.0 0 0 116.70 36.01
  L 112.98 36.01
  A 0.54 0.54 0.0 0 1 112.44 35.47
  L 112.44 28.58
  A 0.77 0.77 0.0 0 0 111.67 27.81
  L 110.26 27.81
  A 0.87 0.87 0.0 0 0 109.39 28.68
  L 109.39 37.94
  A 0.65 0.65 0.0 0 0 110.04 38.59
  Z
  M 119.62 28.55
  L 119.64 37.95
  A 0.71 0.71 0.0 0 0 120.35 38.66
  L 124.03 38.65
  A 5.93 5.22 -0.1 0 0 129.95 33.42
  L 129.95 33.04
  A 5.93 5.22 -0.1 0 0 124.01 27.83
  L 120.33 27.84
  A 0.71 0.71 0.0 0 0 119.62 28.55
  Z
  M 111.56 55.62
  A 0.36 0.36 0.0 0 1 111.72 56.30
  C 103.81 60.34 100.28 64.55 97.63 73.00
  A 4.04 4.01 -89.2 0 1 94.93 75.65
  Q 86.55 78.12 82.21 86.99
  A 0.71 0.71 0.0 0 1 81.03 87.13
  Q 72.98 77.41 72.68 64.30
  A 1.40 1.39 89.2 0 0 71.29 62.94
  L 64.59 62.94
  A 1.15 1.15 0.0 0 0 63.44 64.12
  C 64.10 85.78 76.62 102.80 99.55 102.84
  Q 109.71 102.86 117.90 98.39
  C 129.44 92.09 134.84 77.54 135.82 64.98
  Q 136.45 56.80 135.63 48.31
  A 1.72 1.72 0.0 0 0 133.92 46.76
  L 88.91 46.76
  A 0.77 0.77 0.0 0 0 88.14 47.53
  L 88.14 54.62
  A 1.00 1.00 0.0 0 0 89.14 55.62
  L 111.56 55.62
  Z
  M 46.67 66.41
  L 47.22 62.50
  A 0.85 0.85 0.0 0 1 48.18 61.77
  L 48.57 61.83
  A 0.94 0.94 0.0 0 1 49.38 62.87
  L 49.06 65.42
  A 0.81 0.80 -83.2 0 0 49.76 66.31
  L 49.80 66.32
  A 0.64 0.63 -85.3 0 0 50.54 65.67
  L 50.49 62.62
  A 0.58 0.58 0.0 0 1 51.15 62.03
  L 51.58 62.09
  A 1.20 1.20 0.0 0 1 52.60 63.44
  L 52.19 66.39
  A 0.36 0.36 0.0 0 0 52.50 66.80
  L 52.80 66.85
  A 0.48 0.48 0.0 0 0 53.34 66.44
  L 53.90 62.40
  A 1.24 1.24 0.0 0 0 52.85 61.00
  L 47.28 60.22
  A 1.23 1.23 0.0 0 0 45.88 61.43
  L 45.80 66.43
  A 0.09 0.09 0.0 0 0 45.85 66.52
  L 46.14 66.67
  A 0.36 0.36 0.0 0 0 46.67 66.41
  Z
  M 152.29 66.25
  A 0.51 0.51 0.0 0 0 153.23 66.30
  Q 154.24 64.20 153.66 62.12
  C 153.13 60.25 151.22 59.71 149.84 61.19
  A 2.09 2.00 -16.8 0 0 149.35 62.06
  L 148.70 64.46
  A 0.73 0.73 0.0 0 1 147.33 64.56
  Q 146.84 63.46 147.32 61.81
  A 0.59 0.58 17.5 0 0 146.94 61.08
  L 146.80 61.04
  A 0.51 0.51 0.0 0 0 146.16 61.36
  Q 145.27 63.86 146.39 65.60
  A 2.08 1.95 -54.9 0 0 149.99 64.85
  Q 150.31 63.71 150.88 62.30
  A 0.72 0.72 0.0 0 1 152.07 62.08
  L 152.23 62.26
  A 1.82 1.82 0.0 0 1 152.62 64.10
  Q 152.07 65.67 152.29 66.25
  Z
  M 47.41 68.44
  A 0.51 0.51 0.0 0 0 46.47 68.41
  Q 45.51 70.52 46.14 72.59
  C 46.71 74.44 48.62 74.94 49.96 73.43
  A 2.08 2.00 -18.1 0 0 50.43 72.55
  L 51.03 70.14
  A 0.73 0.73 0.0 0 1 52.40 70.01
  Q 52.91 71.10 52.46 72.76
  A 0.59 0.58 16.2 0 0 52.86 73.48
  L 53.00 73.51
  A 0.51 0.51 0.0 0 0 53.64 73.18
  Q 54.47 70.66 53.31 68.95
  A 2.08 1.94 -56.2 0 0 49.73 69.79
  Q 49.44 70.93 48.91 72.35
  A 0.72 0.72 0.0 0 1 47.72 72.60
  L 47.55 72.42
  A 1.81 1.81 0.0 0 1 47.13 70.59
  Q 47.63 69.01 47.41 68.44
  Z
  M 153.11 74.16
  Q 152.87 73.75 152.27 73.52
  Q 151.42 73.20 151.55 72.39
  Q 152.12 68.82 149.65 68.07
  A 3.03 2.88 22.3 0 0 146.15 69.43
  Q 145.41 70.81 145.43 73.69
  A 0.77 0.77 0.0 0 0 146.13 74.45
  L 152.62 74.97
  A 0.53 0.53 0.0 0 0 153.11 74.16
  Z
  M 47.17 77.86
  Q 47.53 78.15 48.16 78.14
  Q 49.06 78.13 49.23 78.93
  Q 49.96 82.40 52.49 82.22
  A 2.97 2.83 1.2 0 0 55.22 79.73
  Q 55.41 78.20 54.38 75.57
  A 0.76 0.76 0.0 0 0 53.46 75.12
  L 47.34 76.94
  A 0.53 0.52 -34.8 0 0 47.17 77.86
  Z
  M 152.5314 78.0649
  A 0.39 0.39 0.0 0 0 152.2548 77.5878
  L 145.4709 75.7827
  A 0.39 0.39 0.0 0 0 144.9937 76.0593
  L 144.8086 76.7551
  A 0.39 0.39 0.0 0 0 145.0852 77.2322
  L 151.8691 79.0373
  A 0.39 0.39 0.0 0 0 152.3463 78.7607
  L 152.5314 78.0649
  Z
  M 146.24 83.00
  Q 145.85 84.08 145.83 84.12
  A 0.79 0.78 -65.6 0 1 144.88 84.48
  L 143.06 83.83
  A 0.76 0.76 0.0 0 0 142.13 84.19
  L 142.11 84.22
  A 0.71 0.71 0.0 0 0 142.50 85.16
  Q 144.11 85.81 145.72 86.28
  Q 147.26 86.94 148.91 87.48
  A 0.71 0.71 0.0 0 0 149.81 87.00
  L 149.81 86.96
  A 0.76 0.76 0.0 0 0 149.33 86.09
  L 147.51 85.43
  A 0.79 0.78 -74.7 0 1 147.01 84.54
  Q 147.02 84.50 147.41 83.42
  Q 147.80 82.34 147.82 82.30
  A 0.79 0.78 -65.6 0 1 148.77 81.94
  L 150.59 82.59
  A 0.76 0.76 0.0 0 0 151.52 82.23
  L 151.54 82.20
  A 0.71 0.71 0.0 0 0 151.16 81.26
  Q 149.54 80.61 147.94 80.14
  Q 146.40 79.48 144.74 78.94
  A 0.71 0.71 0.0 0 0 143.84 79.42
  L 143.84 79.46
  A 0.76 0.76 0.0 0 0 144.33 80.33
  L 146.14 80.99
  A 0.79 0.78 -74.7 0 1 146.64 81.88
  Q 146.63 81.92 146.24 83.00
  Z
  M 52.24 91.50
  Q 52.56 91.41 52.86 90.80
  Q 53.18 90.16 53.54 90.03
  Q 53.99 89.87 54.72 89.98
  C 57.45 90.40 58.67 88.04 57.81 85.65
  Q 57.50 84.78 57.32 84.34
  A 1.93 1.91 66.7 0 0 54.76 83.31
  L 49.81 85.51
  A 0.67 0.67 0.0 0 0 49.41 86.17
  L 49.42 86.21
  A 0.73 0.72 73.8 0 0 50.32 86.71
  Q 52.10 86.18 52.48 88.31
  A 1.19 1.15 54.2 0 1 52.38 89.01
  L 51.52 90.71
  A 0.57 0.57 0.0 0 0 52.24 91.50
  Z
  M 144.19 94.29
  A 0.50 0.50 0.0 0 0 144.96 94.81
  Q 146.86 93.54 147.41 91.50
  C 147.90 89.65 146.57 88.25 144.66 88.80
  A 2.04 1.96 13.9 0 0 143.81 89.29
  L 142.07 90.99
  A 0.72 0.71 71.4 0 1 140.86 90.39
  Q 141.00 89.21 142.23 88.06
  A 0.58 0.57 48.2 0 0 142.27 87.26
  L 142.18 87.15
  A 0.50 0.50 0.0 0 0 141.48 87.10
  Q 139.48 88.77 139.55 90.79
  A 2.04 1.91 -24.2 0 0 142.96 91.96
  Q 143.79 91.16 144.98 90.25
  A 0.71 0.70 65.2 0 1 146.10 90.67
  L 146.14 90.90
  A 1.78 1.78 0.0 0 1 145.55 92.65
  Q 144.30 93.70 144.19 94.29
  Z
  M 57.51 98.36
  L 55.57 94.99
  A 0.83 0.83 0.0 0 1 55.87 93.85
  L 56.21 93.66
  A 0.93 0.92 -30.6 0 1 57.47 93.98
  L 58.77 96.15
  A 0.79 0.79 0.0 0 0 59.85 96.42
  L 59.88 96.40
  A 0.63 0.62 56.8 0 0 60.07 95.45
  L 58.18 93.11
  A 0.58 0.57 -34.7 0 1 58.34 92.25
  L 58.71 92.04
  A 1.18 1.18 0.0 0 1 60.32 92.47
  L 61.79 95.01
  A 0.35 0.35 0.0 0 0 62.28 95.14
  L 62.54 95.00
  A 0.48 0.48 0.0 0 0 62.71 94.35
  L 60.70 90.87
  A 1.22 1.22 0.0 0 0 59.03 90.42
  L 54.24 93.19
  A 1.21 1.21 0.0 0 0 53.88 94.98
  L 56.85 98.91
  A 0.09 0.09 0.0 0 0 56.94 98.95
  L 57.26 98.89
  A 0.36 0.35 -20.2 0 0 57.51 98.36
  Z
  M 140.47 96.96
  L 134.72 96.96
  A 0.69 0.69 0.0 0 0 134.27 98.18
  L 139.19 102.36
  A 0.73 0.73 0.0 0 0 140.22 102.27
  L 140.42 102.03
  A 0.33 0.33 0.0 0 0 140.38 101.56
  L 137.33 98.97
  A 0.33 0.33 0.0 0 1 137.54 98.39
  L 143.19 98.39
  A 0.69 0.68 65.1 0 0 143.63 97.18
  L 138.61 92.93
  A 0.89 0.88 49.0 0 0 137.56 92.85
  L 137.31 93.01
  A 0.65 0.64 -46.2 0 0 137.33 94.11
  L 140.71 96.06
  A 0.48 0.48 0.0 0 1 140.47 96.96
  Z
  M 59.29 99.82
  A 0.50 0.50 0.0 0 0 58.56 100.39
  Q 59.17 102.59 60.94 103.75
  C 62.54 104.79 64.29 103.96 64.36 101.98
  A 2.04 1.96 -57.9 0 0 64.16 101.02
  L 63.09 98.83
  A 0.72 0.71 -0.4 0 1 64.04 97.87
  Q 65.11 98.37 65.82 99.90
  A 0.58 0.57 -23.6 0 0 66.57 100.19
  L 66.70 100.13
  A 0.50 0.50 0.0 0 0 66.97 99.48
  Q 66.01 97.06 64.06 96.50
  A 2.04 1.91 84.0 0 0 61.89 99.38
  Q 62.39 100.42 62.88 101.83
  A 0.71 0.70 -6.6 0 1 62.14 102.76
  L 61.90 102.73
  A 1.78 1.78 0.0 0 1 60.43 101.62
  Q 59.82 100.11 59.29 99.82
  Z
  M 136.40 104.30
  A 4.01 4.01 0.0 0 0 132.39 100.29
  A 4.01 4.01 0.0 0 0 128.38 104.30
  A 4.01 4.01 0.0 0 0 132.39 108.31
  A 4.01 4.01 0.0 0 0 136.40 104.30
  Z
  M 64.93 105.68
  A 0.50 0.50 0.0 0 0 64.30 106.35
  Q 65.23 108.41 67.14 109.28
  C 68.87 110.05 70.46 108.97 70.22 107.02
  A 2.03 1.95 -66.8 0 0 69.88 106.11
  L 68.50 104.13
  A 0.71 0.71 0.0 0 1 69.28 103.04
  Q 70.41 103.37 71.34 104.76
  A 0.57 0.57 0.0 0 0 72.11 104.93
  L 72.23 104.85
  A 0.49 0.49 0.0 0 0 72.40 104.17
  Q 71.09 101.95 69.09 101.70
  A 2.03 1.89 75.1 0 0 67.41 104.85
  Q 68.05 105.79 68.75 107.10
  A 0.70 0.70 0.0 0 1 68.17 108.12
  L 67.93 108.13
  A 1.77 1.76 73.1 0 1 66.32 107.27
  Q 65.49 105.88 64.93 105.68
  Z
  M 125.9420 105.1110
  A 0.69 0.69 0.0 0 0 124.9893 104.8998
  L 124.9556 104.9213
  A 0.69 0.69 0.0 0 0 124.7444 105.8740
  L 128.3980 111.6090
  A 0.69 0.69 0.0 0 0 129.3507 111.8202
  L 129.3844 111.7987
  A 0.69 0.69 0.0 0 0 129.5956 110.8460
  L 125.9420 105.1110
  Z
  M 79.78 110.38
  A 4.02 4.02 0.0 0 0 75.76 106.36
  A 4.02 4.02 0.0 0 0 71.74 110.38
  A 4.02 4.02 0.0 0 0 75.76 114.40
  A 4.02 4.02 0.0 0 0 79.78 110.38
  Z
  M 121.75 115.68
  Q 121.95 115.26 121.80 114.64
  Q 121.58 113.76 122.32 113.41
  Q 125.56 111.88 124.79 109.43
  A 3.00 2.86 77.8 0 0 121.71 107.33
  Q 120.16 107.50 117.82 109.13
  A 0.77 0.76 -32.2 0 0 117.59 110.14
  L 120.81 115.73
  A 0.53 0.53 0.0 0 0 121.75 115.68
  Z
  M 113.10 114.00
  Q 112.17 114.26 109.95 111.82
  A 0.80 0.80 0.0 0 0 108.58 112.55
  L 110.14 118.71
  A 0.90 0.90 0.0 0 0 111.06 119.39
  L 111.09 119.39
  A 0.70 0.70 0.0 0 0 111.63 118.51
  L 110.74 115.37
  A 0.48 0.47 10.3 0 1 111.48 114.86
  Q 112.36 115.50 113.30 116.31
  Q 113.42 116.42 113.75 116.32
  Q 114.08 116.23 114.13 116.07
  Q 114.51 114.89 114.92 113.89
  A 0.48 0.47 -41.9 0 1 115.82 113.94
  L 116.70 117.08
  A 0.70 0.70 0.0 0 0 117.62 117.54
  L 117.65 117.53
  A 0.90 0.90 0.0 0 0 118.08 116.47
  L 116.18 110.40
  A 0.80 0.80 0.0 0 0 114.63 110.49
  Q 114.02 113.74 113.10 114.00
  Z
  M 88.23 117.33
  Q 87.26 117.92 86.56 117.69
  A 2.58 2.51 12.8 0 1 84.79 114.96
  Q 85.04 113.05 86.42 112.26
  C 87.54 111.63 88.44 112.40 89.70 113.09
  A 0.48 0.48 0.0 0 0 90.28 112.35
  C 88.28 110.22 84.95 110.00 83.77 112.98
  C 82.36 116.52 84.78 119.32 88.44 118.87
  A 0.74 0.73 -10.6 0 0 89.07 117.96
  L 88.99 117.64
  A 0.51 0.51 0.0 0 0 88.23 117.33
  Z
  M 91.71 115.81
  Q 91.38 119.13 91.46 119.44
  Q 91.56 119.83 91.92 119.98
  A 0.53 0.52 17.2 0 0 92.64 119.61
  Q 93.00 117.85 93.10 117.39
  A 0.75 0.75 0.0 0 1 93.83 116.80
  L 95.85 116.80
  A 0.73 0.73 0.0 0 1 96.58 117.57
  L 96.48 119.67
  A 0.71 0.70 5.4 0 0 97.09 120.40
  L 97.12 120.40
  A 0.75 0.74 -83.6 0 0 97.90 119.77
  Q 98.14 118.20 98.25 116.46
  Q 98.48 114.74 98.56 113.15
  A 0.75 0.74 -85.1 0 0 97.91 112.38
  L 97.89 112.37
  A 0.71 0.70 5.9 0 0 97.14 112.97
  L 96.83 115.05
  A 0.73 0.73 0.0 0 1 95.96 115.66
  L 93.98 115.26
  A 0.75 0.75 0.0 0 1 93.38 114.54
  Q 93.37 114.07 93.37 112.27
  A 0.53 0.52 -5.9 0 0 92.73 111.77
  Q 92.35 111.84 92.18 112.20
  Q 92.04 112.49 91.71 115.81
  Z
  M 104.03 119.12
  Q 104.81 119.07 105.06 118.98
  A 0.79 0.78 52.6 0 1 105.77 119.08
  L 107.19 120.02
  A 0.50 0.50 0.0 0 0 107.92 119.39
  Q 106.07 115.48 104.66 112.84
  Q 104.28 112.14 103.57 112.19
  Q 102.87 112.24 102.59 112.98
  Q 101.53 115.78 100.21 119.90
  A 0.50 0.50 0.0 0 0 101.01 120.42
  L 102.30 119.31
  A 0.79 0.78 -60.1 0 1 102.98 119.12
  Q 103.24 119.17 104.03 119.12
  Z"
/>
<path fill="#8c401f" d="
  M 76.82 27.79
  Q 78.52 27.80 78.89 30.21
  Q 79.38 33.34 79.72 33.98
  A 0.28 0.27 38.0 0 0 80.23 33.92
  L 81.49 28.79
  A 1.41 1.40 13.6 0 1 83.19 27.76
  L 83.59 27.86
  A 0.82 0.82 0.0 0 1 84.19 28.86
  L 82.12 37.27
  A 1.99 1.99 0.0 0 1 78.24 37.22
  Q 77.15 32.28 76.80 32.28
  Q 76.45 32.28 75.33 37.21
  A 1.99 1.99 0.0 0 1 71.45 37.23
  L 69.44 28.81
  A 0.82 0.82 0.0 0 1 70.05 27.81
  L 70.45 27.72
  A 1.41 1.40 -13.2 0 1 72.14 28.76
  L 73.37 33.90
  A 0.28 0.27 -37.6 0 0 73.88 33.96
  Q 74.22 33.32 74.73 30.20
  Q 75.12 27.79 76.82 27.79
  Z"
/>
<path fill="#8c401f" d="
  M 96.3862 33.0404
  A 5.72 5.56 -2.1 0 1 90.8737 38.8063
  A 5.72 5.56 -2.1 0 1 84.9538 33.4596
  A 5.72 5.56 -2.1 0 1 90.4663 27.6937
  A 5.72 5.56 -2.1 0 1 96.3862 33.0404
  Z
  M 91.0472 30.4574
  A 2.89 2.68 -82.1 0 0 87.9954 32.9516
  A 2.89 2.68 -82.1 0 0 90.2528 36.1826
  A 2.89 2.68 -82.1 0 0 93.3046 33.6884
  A 2.89 2.68 -82.1 0 0 91.0472 30.4574
  Z"
/>
<path fill="#8c401f" d="
  M 107.26 38.73
  Q 104.55 39.08 103.40 36.79
  A 1.24 1.24 0.0 0 0 101.08 37.07
  L 100.91 37.80
  A 1.42 1.42 0.0 0 1 98.11 37.47
  L 98.11 28.39
  A 0.45 0.44 90.0 0 1 98.55 27.94
  L 104.39 27.94
  A 2.11 2.10 65.0 0 1 105.75 28.44
  Q 109.12 31.34 106.65 35.03
  A 1.13 1.12 47.1 0 0 106.61 36.22
  L 107.63 37.98
  A 0.50 0.50 0.0 0 1 107.26 38.73
  Z
  M 100.99 31.01
  L 101.11 33.33
  A 0.57 0.57 0.0 0 0 101.71 33.87
  L 101.97 33.86
  A 2.73 1.63 -2.9 0 0 104.61 32.09
  L 104.60 31.89
  A 2.73 1.63 -2.9 0 0 101.79 30.40
  L 101.53 30.41
  A 0.57 0.57 0.0 0 0 100.99 31.01
  Z"
/>
<path fill="#8c401f" d="
  M 109.39 37.94
  L 109.39 28.68
  A 0.87 0.87 0.0 0 1 110.26 27.81
  L 111.67 27.81
  A 0.77 0.77 0.0 0 1 112.44 28.58
  L 112.44 35.47
  A 0.54 0.54 0.0 0 0 112.98 36.01
  L 116.70 36.01
  A 1.73 1.73 0.0 0 1 118.20 36.88
  L 118.46 37.34
  A 0.84 0.83 -15.0 0 1 117.73 38.59
  L 110.04 38.59
  A 0.65 0.65 0.0 0 1 109.39 37.94
  Z"
/>
<path fill="#8c401f" d="
  M 119.62 28.55
  A 0.71 0.71 0.0 0 1 120.33 27.84
  L 124.01 27.83
  A 5.93 5.22 -0.1 0 1 129.95 33.04
  L 129.95 33.42
  A 5.93 5.22 -0.1 0 1 124.03 38.65
  L 120.35 38.66
  A 0.71 0.71 0.0 0 1 119.64 37.95
  L 119.62 28.55
  Z
  M 122.77 31.08
  L 122.77 35.50
  A 0.61 0.61 0.0 0 0 123.38 36.11
  L 123.59 36.11
  A 3.04 2.60 0.1 0 0 126.63 33.51
  L 126.63 33.07
  A 3.04 2.60 0.1 0 0 123.59 30.47
  L 123.38 30.47
  A 0.61 0.61 0.0 0 0 122.77 31.08
  Z"
/>
<ellipse fill="#ebebeb" cx="0.00" cy="0.00" transform="translate(90.65,33.32) rotate(-82.1)" rx="2.89" ry="2.68"/>
<path fill="#ebebeb" d="
  M 100.99 31.01
  A 0.57 0.57 0.0 0 1 101.53 30.41
  L 101.79 30.40
  A 2.73 1.63 -2.9 0 1 104.60 31.89
  L 104.61 32.09
  A 2.73 1.63 -2.9 0 1 101.97 33.86
  L 101.71 33.87
  A 0.57 0.57 0.0 0 1 101.11 33.33
  L 100.99 31.01
  Z"
/>
<path fill="#ebebeb" d="
  M 122.77 31.08
  A 0.61 0.61 0.0 0 1 123.38 30.47
  L 123.59 30.47
  A 3.04 2.60 0.1 0 1 126.63 33.07
  L 126.63 33.51
  A 3.04 2.60 0.1 0 1 123.59 36.11
  L 123.38 36.11
  A 0.61 0.61 0.0 0 1 122.77 35.50
  L 122.77 31.08
  Z"
/>
<path fill="#ddccaa" d="
  M 111.56 55.62
  L 89.14 55.62
  A 1.00 1.00 0.0 0 1 88.14 54.62
  L 88.14 47.53
  A 0.77 0.77 0.0 0 1 88.91 46.76
  L 133.92 46.76
  A 1.72 1.72 0.0 0 1 135.63 48.31
  Q 136.45 56.80 135.82 64.98
  C 134.84 77.54 129.44 92.09 117.90 98.39
  Q 109.71 102.86 99.55 102.84
  C 76.62 102.80 64.10 85.78 63.44 64.12
  A 1.15 1.15 0.0 0 1 64.59 62.94
  L 71.29 62.94
  A 1.40 1.39 89.2 0 1 72.68 64.30
  Q 72.98 77.41 81.03 87.13
  A 0.71 0.71 0.0 0 0 82.21 86.99
  Q 86.55 78.12 94.93 75.65
  A 4.04 4.01 -89.2 0 0 97.63 73.00
  C 100.28 64.55 103.81 60.34 111.72 56.30
  A 0.36 0.36 0.0 0 0 111.56 55.62
  Z
  M 126.29 59.91
  C 119.70 62.22 109.71 65.27 107.29 72.53
  C 105.75 77.12 104.95 80.84 100.10 83.09
  Q 97.97 84.08 93.88 85.92
  A 1.91 1.91 0.0 0 0 93.01 86.70
  L 90.28 91.44
  A 0.91 0.91 0.0 0 0 90.84 92.78
  Q 96.65 94.29 102.74 93.86
  C 120.92 92.55 126.07 76.10 127.03 60.47
  A 0.56 0.56 0.0 0 0 126.29 59.91
  Z"
/>
<path fill="#ebebeb" d="
  M 126.29 59.91
  A 0.56 0.56 0.0 0 1 127.03 60.47
  C 126.07 76.10 120.92 92.55 102.74 93.86
  Q 96.65 94.29 90.84 92.78
  A 0.91 0.91 0.0 0 1 90.28 91.44
  L 93.01 86.70
  A 1.91 1.91 0.0 0 1 93.88 85.92
  Q 97.97 84.08 100.10 83.09
  C 104.95 80.84 105.75 77.12 107.29 72.53
  C 109.71 65.27 119.70 62.22 126.29 59.91
  Z"
/>
<path fill="#8c401f" d="
  M 46.67 66.41
  A 0.36 0.36 0.0 0 1 46.14 66.67
  L 45.85 66.52
  A 0.09 0.09 0.0 0 1 45.80 66.43
  L 45.88 61.43
  A 1.23 1.23 0.0 0 1 47.28 60.22
  L 52.85 61.00
  A 1.24 1.24 0.0 0 1 53.90 62.40
  L 53.34 66.44
  A 0.48 0.48 0.0 0 1 52.80 66.85
  L 52.50 66.80
  A 0.36 0.36 0.0 0 1 52.19 66.39
  L 52.60 63.44
  A 1.20 1.20 0.0 0 0 51.58 62.09
  L 51.15 62.03
  A 0.58 0.58 0.0 0 0 50.49 62.62
  L 50.54 65.67
  A 0.64 0.63 -85.3 0 1 49.80 66.32
  L 49.76 66.31
  A 0.81 0.80 -83.2 0 1 49.06 65.42
  L 49.38 62.87
  A 0.94 0.94 0.0 0 0 48.57 61.83
  L 48.18 61.77
  A 0.85 0.85 0.0 0 0 47.22 62.50
  L 46.67 66.41
  Z"
/>
<path fill="#8c401f" d="
  M 152.29 66.25
  Q 152.07 65.67 152.62 64.10
  A 1.82 1.82 0.0 0 0 152.23 62.26
  L 152.07 62.08
  A 0.72 0.72 0.0 0 0 150.88 62.30
  Q 150.31 63.71 149.99 64.85
  A 2.08 1.95 -54.9 0 1 146.39 65.60
  Q 145.27 63.86 146.16 61.36
  A 0.51 0.51 0.0 0 1 146.80 61.04
  L 146.94 61.08
  A 0.59 0.58 17.5 0 1 147.32 61.81
  Q 146.84 63.46 147.33 64.56
  A 0.73 0.73 0.0 0 0 148.70 64.46
  L 149.35 62.06
  A 2.09 2.00 -16.8 0 1 149.84 61.19
  C 151.22 59.71 153.13 60.25 153.66 62.12
  Q 154.24 64.20 153.23 66.30
  A 0.51 0.51 0.0 0 1 152.29 66.25
  Z"
/>
<path fill="#8c401f" d="
  M 47.41 68.44
  Q 47.63 69.01 47.13 70.59
  A 1.81 1.81 0.0 0 0 47.55 72.42
  L 47.72 72.60
  A 0.72 0.72 0.0 0 0 48.91 72.35
  Q 49.44 70.93 49.73 69.79
  A 2.08 1.94 -56.2 0 1 53.31 68.95
  Q 54.47 70.66 53.64 73.18
  A 0.51 0.51 0.0 0 1 53.00 73.51
  L 52.86 73.48
  A 0.59 0.58 16.2 0 1 52.46 72.76
  Q 52.91 71.10 52.40 70.01
  A 0.73 0.73 0.0 0 0 51.03 70.14
  L 50.43 72.55
  A 2.08 2.00 -18.1 0 1 49.96 73.43
  C 48.62 74.94 46.71 74.44 46.14 72.59
  Q 45.51 70.52 46.47 68.41
  A 0.51 0.51 0.0 0 1 47.41 68.44
  Z"
/>
<path fill="#8c401f" d="
  M 153.11 74.16
  A 0.53 0.53 0.0 0 1 152.62 74.97
  L 146.13 74.45
  A 0.77 0.77 0.0 0 1 145.43 73.69
  Q 145.41 70.81 146.15 69.43
  A 3.03 2.88 22.3 0 1 149.65 68.07
  Q 152.12 68.82 151.55 72.39
  Q 151.42 73.20 152.27 73.52
  Q 152.87 73.75 153.11 74.16
  Z
  M 150.46 71.49
  A 1.81 1.81 0.0 0 0 148.65 69.68
  A 1.81 1.81 0.0 0 0 146.84 71.49
  A 1.81 1.81 0.0 0 0 148.65 73.30
  A 1.81 1.81 0.0 0 0 150.46 71.49
  Z"
/>
<circle fill="#ebebeb" cx="148.65" cy="71.49" r="1.81"/>
<path fill="#8c401f" d="
  M 47.17 77.86
  A 0.53 0.52 -34.8 0 1 47.34 76.94
  L 53.46 75.12
  A 0.76 0.76 0.0 0 1 54.38 75.57
  Q 55.41 78.20 55.22 79.73
  A 2.97 2.83 1.2 0 1 52.49 82.22
  Q 49.96 82.40 49.23 78.93
  Q 49.06 78.13 48.16 78.14
  Q 47.53 78.15 47.17 77.86
  Z
  M 54.16 78.86
  A 1.98 1.98 0.0 0 0 52.18 76.88
  A 1.98 1.98 0.0 0 0 50.20 78.86
  A 1.98 1.98 0.0 0 0 52.18 80.84
  A 1.98 1.98 0.0 0 0 54.16 78.86
  Z"
/>
<rect fill="#8c401f" x="-3.90" y="-0.75" transform="translate(148.67,77.41) rotate(14.9)" width="7.80" height="1.50" rx="0.39"/>
<circle fill="#ebebeb" cx="52.18" cy="78.86" r="1.98"/>
<path fill="#8c401f" d="
  M 147.94 80.14
  Q 149.54 80.61 151.16 81.26
  A 0.71 0.71 0.0 0 1 151.54 82.20
  L 151.52 82.23
  A 0.76 0.76 0.0 0 1 150.59 82.59
  L 148.77 81.94
  A 0.79 0.78 -65.6 0 0 147.82 82.30
  Q 147.80 82.34 147.41 83.42
  Q 147.02 84.50 147.01 84.54
  A 0.79 0.78 -74.7 0 0 147.51 85.43
  L 149.33 86.09
  A 0.76 0.76 0.0 0 1 149.81 86.96
  L 149.81 87.00
  A 0.71 0.71 0.0 0 1 148.91 87.48
  Q 147.26 86.94 145.72 86.28
  Q 144.11 85.81 142.50 85.16
  A 0.71 0.71 0.0 0 1 142.11 84.22
  L 142.13 84.19
  A 0.76 0.76 0.0 0 1 143.06 83.83
  L 144.88 84.48
  A 0.79 0.78 -65.6 0 0 145.83 84.12
  Q 145.85 84.08 146.24 83.00
  Q 146.63 81.92 146.64 81.88
  A 0.79 0.78 -74.7 0 0 146.14 80.99
  L 144.33 80.33
  A 0.76 0.76 0.0 0 1 143.84 79.46
  L 143.84 79.42
  A 0.71 0.71 0.0 0 1 144.74 78.94
  Q 146.40 79.48 147.94 80.14
  Z"
/>
<path fill="#8c401f" d="
  M 52.24 91.50
  A 0.57 0.57 0.0 0 1 51.52 90.71
  L 52.38 89.01
  A 1.19 1.15 54.2 0 0 52.48 88.31
  Q 52.10 86.18 50.32 86.71
  A 0.73 0.72 73.8 0 1 49.42 86.21
  L 49.41 86.17
  A 0.67 0.67 0.0 0 1 49.81 85.51
  L 54.76 83.31
  A 1.93 1.91 66.7 0 1 57.32 84.34
  Q 57.50 84.78 57.81 85.65
  C 58.67 88.04 57.45 90.40 54.72 89.98
  Q 53.99 89.87 53.54 90.03
  Q 53.18 90.16 52.86 90.80
  Q 52.56 91.41 52.24 91.50
  Z
  M 56.6593 85.7215
  A 1.34 1.34 0.0 0 0 54.9693 84.8641
  L 53.9047 85.2121
  A 1.34 1.34 0.0 0 0 53.0473 86.9021
  L 53.3207 87.7385
  A 1.34 1.34 0.0 0 0 55.0107 88.5959
  L 56.0753 88.2479
  A 1.34 1.34 0.0 0 0 56.9327 86.5579
  L 56.6593 85.7215
  Z"
/>
<rect fill="#ebebeb" x="-1.90" y="-1.78" transform="translate(54.99,86.73) rotate(-18.1)" width="3.80" height="3.56" rx="1.34"/>
<path fill="#8c401f" d="
  M 144.19 94.29
  Q 144.30 93.70 145.55 92.65
  A 1.78 1.78 0.0 0 0 146.14 90.90
  L 146.10 90.67
  A 0.71 0.70 65.2 0 0 144.98 90.25
  Q 143.79 91.16 142.96 91.96
  A 2.04 1.91 -24.2 0 1 139.55 90.79
  Q 139.48 88.77 141.48 87.10
  A 0.50 0.50 0.0 0 1 142.18 87.15
  L 142.27 87.26
  A 0.58 0.57 48.2 0 1 142.23 88.06
  Q 141.00 89.21 140.86 90.39
  A 0.72 0.71 71.4 0 0 142.07 90.99
  L 143.81 89.29
  A 2.04 1.96 13.9 0 1 144.66 88.80
  C 146.57 88.25 147.90 89.65 147.41 91.50
  Q 146.86 93.54 144.96 94.81
  A 0.50 0.50 0.0 0 1 144.19 94.29
  Z"
/>
<path fill="#8c401f" d="
  M 57.51 98.36
  A 0.36 0.35 -20.2 0 1 57.26 98.89
  L 56.94 98.95
  A 0.09 0.09 0.0 0 1 56.85 98.91
  L 53.88 94.98
  A 1.21 1.21 0.0 0 1 54.24 93.19
  L 59.03 90.42
  A 1.22 1.22 0.0 0 1 60.70 90.87
  L 62.71 94.35
  A 0.48 0.48 0.0 0 1 62.54 95.00
  L 62.28 95.14
  A 0.35 0.35 0.0 0 1 61.79 95.01
  L 60.32 92.47
  A 1.18 1.18 0.0 0 0 58.71 92.04
  L 58.34 92.25
  A 0.58 0.57 -34.7 0 0 58.18 93.11
  L 60.07 95.45
  A 0.63 0.62 56.8 0 1 59.88 96.40
  L 59.85 96.42
  A 0.79 0.79 0.0 0 1 58.77 96.15
  L 57.47 93.98
  A 0.93 0.92 -30.6 0 0 56.21 93.66
  L 55.87 93.85
  A 0.83 0.83 0.0 0 0 55.57 94.99
  L 57.51 98.36
  Z"
/>
<path fill="#8c401f" d="
  M 140.47 96.96
  A 0.48 0.48 0.0 0 0 140.71 96.06
  L 137.33 94.11
  A 0.65 0.64 -46.2 0 1 137.31 93.01
  L 137.56 92.85
  A 0.89 0.88 49.0 0 1 138.61 92.93
  L 143.63 97.18
  A 0.69 0.68 65.1 0 1 143.19 98.39
  L 137.54 98.39
  A 0.33 0.33 0.0 0 0 137.33 98.97
  L 140.38 101.56
  A 0.33 0.33 0.0 0 1 140.42 102.03
  L 140.22 102.27
  A 0.73 0.73 0.0 0 1 139.19 102.36
  L 134.27 98.18
  A 0.69 0.69 0.0 0 1 134.72 96.96
  L 140.47 96.96
  Z"
/>
<path fill="#8c401f" d="
  M 59.29 99.82
  Q 59.82 100.11 60.43 101.62
  A 1.78 1.78 0.0 0 0 61.90 102.73
  L 62.14 102.76
  A 0.71 0.70 -6.6 0 0 62.88 101.83
  Q 62.39 100.42 61.89 99.38
  A 2.04 1.91 84.0 0 1 64.06 96.50
  Q 66.01 97.06 66.97 99.48
  A 0.50 0.50 0.0 0 1 66.70 100.13
  L 66.57 100.19
  A 0.58 0.57 -23.6 0 1 65.82 99.90
  Q 65.11 98.37 64.04 97.87
  A 0.72 0.71 -0.4 0 0 63.09 98.83
  L 64.16 101.02
  A 2.04 1.96 -57.9 0 1 64.36 101.98
  C 64.29 103.96 62.54 104.79 60.94 103.75
  Q 59.17 102.59 58.56 100.39
  A 0.50 0.50 0.0 0 1 59.29 99.82
  Z"
/>
<path fill="#8c401f" d="
  M 136.40 104.30
  A 4.01 4.01 0.0 0 1 132.39 108.31
  A 4.01 4.01 0.0 0 1 128.38 104.30
  A 4.01 4.01 0.0 0 1 132.39 100.29
  A 4.01 4.01 0.0 0 1 136.40 104.30
  Z
  M 135.02 104.38
  A 2.67 2.67 0.0 0 0 132.35 101.71
  A 2.67 2.67 0.0 0 0 129.68 104.38
  A 2.67 2.67 0.0 0 0 132.35 107.05
  A 2.67 2.67 0.0 0 0 135.02 104.38
  Z"
/>
<path fill="#8c401f" d="
  M 64.93 105.68
  Q 65.49 105.88 66.32 107.27
  A 1.77 1.76 73.1 0 0 67.93 108.13
  L 68.17 108.12
  A 0.70 0.70 0.0 0 0 68.75 107.10
  Q 68.05 105.79 67.41 104.85
  A 2.03 1.89 75.1 0 1 69.09 101.70
  Q 71.09 101.95 72.40 104.17
  A 0.49 0.49 0.0 0 1 72.23 104.85
  L 72.11 104.93
  A 0.57 0.57 0.0 0 1 71.34 104.76
  Q 70.41 103.37 69.28 103.04
  A 0.71 0.71 0.0 0 0 68.50 104.13
  L 69.88 106.11
  A 2.03 1.95 -66.8 0 1 70.22 107.02
  C 70.46 108.97 68.87 110.05 67.14 109.28
  Q 65.23 108.41 64.30 106.35
  A 0.50 0.50 0.0 0 1 64.93 105.68
  Z"
/>
<circle fill="#ebebeb" cx="132.35" cy="104.38" r="2.67"/>
<rect fill="#8c401f" x="-0.71" y="-4.09" transform="translate(127.17,108.36) rotate(-32.5)" width="1.42" height="8.18" rx="0.69"/>
<path fill="#8c401f" d="
  M 79.78 110.38
  A 4.02 4.02 0.0 0 1 75.76 114.40
  A 4.02 4.02 0.0 0 1 71.74 110.38
  A 4.02 4.02 0.0 0 1 75.76 106.36
  A 4.02 4.02 0.0 0 1 79.78 110.38
  Z
  M 78.42 110.33
  A 2.71 2.71 0.0 0 0 75.71 107.62
  A 2.71 2.71 0.0 0 0 73.00 110.33
  A 2.71 2.71 0.0 0 0 75.71 113.04
  A 2.71 2.71 0.0 0 0 78.42 110.33
  Z"
/>
<path fill="#8c401f" d="
  M 121.75 115.68
  A 0.53 0.53 0.0 0 1 120.81 115.73
  L 117.59 110.14
  A 0.77 0.76 -32.2 0 1 117.82 109.13
  Q 120.16 107.50 121.71 107.33
  A 3.00 2.86 77.8 0 1 124.79 109.43
  Q 125.56 111.88 122.32 113.41
  Q 121.58 113.76 121.80 114.64
  Q 121.95 115.26 121.75 115.68
  Z
  M 122.6072 108.9498
  A 1.34 1.34 0.0 0 0 120.7229 108.7485
  L 119.9913 109.3387
  A 1.34 1.34 0.0 0 0 119.7900 111.2231
  L 120.3928 111.9702
  A 1.34 1.34 0.0 0 0 122.2771 112.1715
  L 123.0087 111.5813
  A 1.34 1.34 0.0 0 0 123.2100 109.6969
  L 122.6072 108.9498
  Z"
/>
<circle fill="#ebebeb" cx="75.71" cy="110.33" r="2.71"/>
<rect fill="#ebebeb" x="-1.81" y="-1.82" transform="translate(121.50,110.46) rotate(-38.9)" width="3.62" height="3.64" rx="1.34"/>
<path fill="#8c401f" d="
  M 113.75 116.32
  Q 113.42 116.42 113.30 116.31
  Q 112.36 115.50 111.48 114.86
  A 0.48 0.47 10.3 0 0 110.74 115.37
  L 111.63 118.51
  A 0.70 0.70 0.0 0 1 111.09 119.39
  L 111.06 119.39
  A 0.90 0.90 0.0 0 1 110.14 118.71
  L 108.58 112.55
  A 0.80 0.80 0.0 0 1 109.95 111.82
  Q 112.17 114.26 113.10 114.00
  Q 114.02 113.74 114.63 110.49
  A 0.80 0.80 0.0 0 1 116.18 110.40
  L 118.08 116.47
  A 0.90 0.90 0.0 0 1 117.65 117.53
  L 117.62 117.54
  A 0.70 0.70 0.0 0 1 116.70 117.08
  L 115.82 113.94
  A 0.48 0.47 -41.9 0 0 114.92 113.89
  Q 114.51 114.89 114.13 116.07
  Q 114.08 116.23 113.75 116.32
  Z"
/>
<path fill="#8c401f" d="
  M 88.23 117.33
  A 0.51 0.51 0.0 0 1 88.99 117.64
  L 89.07 117.96
  A 0.74 0.73 -10.6 0 1 88.44 118.87
  C 84.78 119.32 82.36 116.52 83.77 112.98
  C 84.95 110.00 88.28 110.22 90.28 112.35
  A 0.48 0.48 0.0 0 1 89.70 113.09
  C 88.44 112.40 87.54 111.63 86.42 112.26
  Q 85.04 113.05 84.79 114.96
  A 2.58 2.51 12.8 0 0 86.56 117.69
  Q 87.26 117.92 88.23 117.33
  Z"
/>
<path fill="#8c401f" d="
  M 98.25 116.46
  Q 98.14 118.20 97.90 119.77
  A 0.75 0.74 -83.6 0 1 97.12 120.40
  L 97.09 120.40
  A 0.71 0.70 5.4 0 1 96.48 119.67
  L 96.58 117.57
  A 0.73 0.73 0.0 0 0 95.85 116.80
  L 93.83 116.80
  A 0.75 0.75 0.0 0 0 93.10 117.39
  Q 93.00 117.85 92.64 119.61
  A 0.53 0.52 17.2 0 1 91.92 119.98
  Q 91.56 119.83 91.46 119.44
  Q 91.38 119.13 91.71 115.81
  Q 92.04 112.49 92.18 112.20
  Q 92.35 111.84 92.73 111.77
  A 0.53 0.52 -5.9 0 1 93.37 112.27
  Q 93.37 114.07 93.38 114.54
  A 0.75 0.75 0.0 0 0 93.98 115.26
  L 95.96 115.66
  A 0.73 0.73 0.0 0 0 96.83 115.05
  L 97.14 112.97
  A 0.71 0.70 5.9 0 1 97.89 112.37
  L 97.91 112.38
  A 0.75 0.74 -85.1 0 1 98.56 113.15
  Q 98.48 114.74 98.25 116.46
  Z"
/>
<path fill="#8c401f" d="
  M 103.57 112.19
  Q 104.28 112.14 104.66 112.84
  Q 106.07 115.48 107.92 119.39
  A 0.50 0.50 0.0 0 1 107.19 120.02
  L 105.77 119.08
  A 0.79 0.78 52.6 0 0 105.06 118.98
  Q 104.81 119.07 104.03 119.12
  Q 103.24 119.17 102.98 119.12
  A 0.79 0.78 -60.1 0 0 102.30 119.31
  L 101.01 120.42
  A 0.50 0.50 0.0 0 1 100.21 119.90
  Q 101.53 115.78 102.59 112.98
  Q 102.87 112.24 103.57 112.19
  Z
  M 102.99 117.80
  L 104.49 117.84
  A 0.44 0.44 0.0 0 0 104.94 117.41
  L 104.95 117.20
  A 2.57 1.19 -88.3 0 0 103.84 114.60
  A 2.57 1.19 -88.3 0 0 102.57 117.13
  L 102.57 117.34
  A 0.44 0.44 0.0 0 0 102.99 117.80
  Z"
/>
<path fill="#ebebeb" d="
  M 102.99 117.80
  A 0.44 0.44 0.0 0 1 102.57 117.34
  L 102.57 117.13
  A 2.57 1.19 -88.3 0 1 103.84 114.60
  A 2.57 1.19 -88.3 0 1 104.95 117.20
  L 104.94 117.41
  A 0.44 0.44 0.0 0 1 104.49 117.84
  L 102.99 117.80
  Z"
/>
</svg>
