<?xml version="1.0" encoding="UTF-8" standalone="no"?>
<!DOCTYPE svg PUBLIC "-//W3C//DTD SVG 1.1//EN" "http://www.w3.org/Graphics/SVG/1.1/DTD/svg11.dtd">
<svg xmlns="http://www.w3.org/2000/svg" version="1.1" viewBox="0.00 0.00 208.00 147.00">
<g stroke-width="2.00" fill="none" stroke-linecap="butt">
<path stroke="#cda693" vector-effect="non-scaling-stroke" d="
  M 206.36 147.00
  Q 206.72 146.98 206.95 146.80
  Q 207.15 146.65 207.15 146.27
  Q 207.14 75.50 207.16 5.23
  A 0.78 0.78 0.0 0 0 206.38 4.45
  L 3.80 4.45
  A 0.65 0.65 0.0 0 0 3.15 5.10
  L 3.14 147.00"
/>
<path stroke="#cda693" vector-effect="non-scaling-stroke" d="
  M 101.80 35.27
  A 5.75 5.75 0.0 0 0 96.05 29.52
  A 5.75 5.75 0.0 0 0 90.30 35.27
  A 5.75 5.75 0.0 0 0 96.05 41.02
  A 5.75 5.75 0.0 0 0 101.80 35.27"
/>
<path stroke="#cda693" vector-effect="non-scaling-stroke" d="
  M 82.27 35.27
  Q 82.76 35.27 82.85 35.76
  Q 83.22 37.75 83.68 39.65
  A 1.34 1.33 4.5 0 0 84.47 40.57
  Q 85.52 40.99 86.76 40.63
  A 1.15 1.14 89.2 0 0 87.56 39.80
  L 89.79 30.84
  A 0.86 0.86 0.0 0 0 88.95 29.77
  L 88.22 29.77
  A 1.46 1.45 -82.8 0 0 86.81 30.87
  L 85.78 35.00
  A 0.46 0.46 0.0 0 1 84.88 34.92
  Q 84.59 29.74 82.28 29.73
  Q 79.97 29.73 79.66 34.90
  A 0.46 0.46 0.0 0 1 78.76 34.98
  L 77.75 30.85
  A 1.46 1.45 83.1 0 0 76.35 29.74
  L 75.62 29.73
  A 0.86 0.86 0.0 0 0 74.77 30.80
  L 76.95 39.77
  A 1.15 1.14 -88.9 0 0 77.75 40.61
  Q 78.99 40.97 80.04 40.56
  A 1.34 1.33 -4.2 0 0 80.83 39.64
  Q 81.30 37.74 81.69 35.76
  Q 81.78 35.27 82.27 35.27"
/>
<path stroke="#cda693" vector-effect="non-scaling-stroke" d="
  M 112.81 39.97
  Q 111.74 38.14 112.37 36.74
  C 115.47 29.79 108.53 29.37 104.03 29.87
  A 0.76 0.75 86.6 0 0 103.37 30.62
  L 103.37 39.26
  A 1.63 1.63 0.0 0 0 106.59 39.64
  L 106.75 38.98
  A 1.05 1.05 0.0 0 1 108.71 38.74
  Q 109.87 40.97 112.40 40.77
  A 0.53 0.53 0.0 0 0 112.81 39.97"
/>
<path stroke="#cda693" vector-effect="non-scaling-stroke" d="
  M 117.93 37.22
  L 117.93 30.94
  A 1.32 1.32 0.0 0 0 116.61 29.62
  L 116.23 29.62
  A 1.40 1.39 -90.0 0 0 114.84 31.02
  L 114.84 39.90
  A 0.75 0.74 -90.0 0 0 115.58 40.65
  L 122.98 40.65
  A 0.97 0.96 -90.0 0 0 123.94 39.68
  L 123.94 39.24
  A 1.30 1.30 0.0 0 0 122.64 37.94
  L 118.65 37.94
  A 0.72 0.72 0.0 0 1 117.93 37.22"
/>
<path stroke="#cda693" vector-effect="non-scaling-stroke" d="
  M 125.01 30.81
  L 125.20 39.87
  A 0.90 0.90 0.0 0 0 126.11 40.75
  L 129.64 40.67
  A 5.87 5.25 -1.2 0 0 135.40 35.30
  L 135.40 34.94
  A 5.87 5.25 -1.2 0 0 129.42 29.82
  L 125.89 29.89
  A 0.90 0.90 0.0 0 0 125.01 30.81"
/>
<path stroke="#be8c66" vector-effect="non-scaling-stroke" d="
  M 117.83 57.91
  Q 116.24 58.89 114.54 59.82
  Q 105.08 65.02 102.90 75.48
  A 2.63 2.61 88.6 0 1 101.00 77.49
  Q 91.85 79.87 87.79 89.07
  A 0.65 0.65 0.0 0 1 86.72 89.26
  C 80.83 83.00 78.19 74.19 78.04 65.83
  A 0.89 0.89 0.0 0 0 77.15 64.96
  L 69.53 64.96
  A 0.70 0.69 -1.5 0 0 68.83 65.69
  C 69.80 85.59 79.31 102.26 100.47 104.55
  C 111.94 105.79 124.81 102.45 131.86 93.11
  C 141.05 80.94 142.68 64.33 140.79 49.34
  A 0.69 0.69 0.0 0 0 140.11 48.74
  L 94.42 48.74
  A 0.89 0.89 0.0 0 0 93.53 49.63
  L 93.53 56.75
  A 0.84 0.84 0.0 0 0 94.37 57.59
  L 117.74 57.59
  A 0.17 0.17 0.0 0 1 117.83 57.91"
/>
<path stroke="#cda693" vector-effect="non-scaling-stroke" d="
  M 58.73 68.64
  L 59.31 64.13
  A 1.12 1.12 0.0 0 0 58.34 62.87
  L 52.57 62.13
  A 1.10 1.10 0.0 0 0 51.34 63.09
  L 50.70 68.03
  A 0.64 0.64 0.0 0 0 51.25 68.74
  L 51.67 68.80
  A 0.46 0.46 0.0 0 0 52.19 68.40
  L 52.68 64.54
  A 0.59 0.59 0.0 0 1 53.34 64.02
  L 53.77 64.08
  A 0.93 0.92 7.2 0 1 54.58 65.11
  L 54.23 67.82
  A 0.72 0.71 -29.7 0 0 55.60 68.19
  Q 56.13 66.98 56.04 64.70
  A 0.53 0.52 2.6 0 1 56.63 64.17
  L 57.18 64.23
  A 0.74 0.74 0.0 0 1 57.82 65.06
  L 57.39 68.35
  A 0.54 0.54 0.0 0 0 57.85 68.95
  L 58.25 69.00
  A 0.43 0.43 0.0 0 0 58.73 68.64"
/>
<path stroke="#cda693" vector-effect="non-scaling-stroke" d="
  M 157.41 67.94
  A 0.67 0.67 0.0 0 0 158.68 68.18
  C 159.52 66.51 159.66 62.71 157.19 62.28
  A 2.29 2.17 12.5 0 0 154.62 63.83
  Q 154.26 65.14 153.89 66.41
  A 0.58 0.58 0.0 0 1 152.79 66.46
  Q 152.37 65.38 152.77 63.76
  A 0.64 0.64 0.0 0 0 151.59 63.29
  C 150.54 65.15 151.07 69.91 154.46 68.33
  Q 155.14 68.02 155.57 66.59
  Q 156.19 64.52 156.20 64.49
  A 0.68 0.68 0.0 0 1 157.31 64.31
  L 157.35 64.36
  A 1.75 1.74 31.6 0 1 157.75 66.03
  Q 157.36 67.39 157.41 67.94"
/>
<path stroke="#cda693" vector-effect="non-scaling-stroke" d="
  M 151.38 76.28
  L 157.85 77.39
  A 0.80 0.79 66.6 0 0 158.42 75.94
  L 157.58 75.38
  A 1.08 1.06 -72.3 0 1 157.10 74.45
  Q 157.16 73.06 156.90 71.83
  C 156.33 69.11 152.05 69.26 151.31 71.72
  Q 150.66 73.87 150.76 75.57
  A 0.76 0.76 0.0 0 0 151.38 76.28"
/>
<path stroke="#cda693" vector-effect="non-scaling-stroke" d="
  M 52.84 70.78
  A 0.68 0.67 -35.2 0 0 51.56 70.56
  C 50.74 72.25 50.67 76.06 53.15 76.46
  A 2.30 2.18 11.6 0 0 55.71 74.86
  Q 56.05 73.53 56.40 72.25
  A 0.58 0.58 0.0 0 1 57.50 72.18
  Q 57.94 73.27 57.56 74.90
  A 0.65 0.65 0.0 0 0 58.76 75.35
  C 59.79 73.47 59.18 68.69 55.80 70.34
  Q 55.12 70.66 54.71 72.10
  Q 54.12 74.19 54.11 74.22
  A 0.68 0.68 0.0 0 1 53.00 74.42
  L 52.96 74.37
  A 1.76 1.75 30.6 0 1 52.53 72.70
  Q 52.90 71.33 52.84 70.78"
/>
<path stroke="#cda693" vector-effect="non-scaling-stroke" d="
  M 59.04 77.20
  L 52.56 78.40
  A 0.80 0.80 0.0 0 0 52.53 79.96
  L 53.52 80.19
  A 1.08 1.07 87.4 0 1 54.29 80.91
  Q 54.72 82.23 55.39 83.30
  C 56.87 85.67 60.85 84.04 60.69 81.47
  Q 60.55 79.22 59.87 77.65
  A 0.76 0.76 0.0 0 0 59.04 77.20"
/>
<path stroke="#cda693" vector-effect="non-scaling-stroke" d="
  M 157.9369 80.3124
  A 0.70 0.70 0.0 0 0 157.4450 79.4533
  L 150.9408 77.6862
  A 0.70 0.70 0.0 0 0 150.0817 78.1781
  L 150.0031 78.4676
  A 0.70 0.70 0.0 0 0 150.4950 79.3267
  L 156.9992 81.0938
  A 0.70 0.70 0.0 0 0 157.8583 80.6019
  L 157.9369 80.3124"
/>
<path stroke="#cda693" vector-effect="non-scaling-stroke" d="
  M 151.56 84.94
  Q 151.38 85.44 151.15 85.90
  A 0.68 0.67 19.3 0 1 150.38 86.27
  L 148.03 85.69
  A 0.37 0.35 20.8 0 0 147.62 85.86
  L 147.48 86.12
  A 0.75 0.75 0.0 0 0 147.82 87.17
  Q 149.32 87.85 151.04 88.41
  Q 152.72 89.09 154.30 89.55
  A 0.75 0.75 0.0 0 0 155.24 88.97
  L 155.30 88.68
  A 0.37 0.35 19.5 0 0 155.10 88.29
  L 152.93 87.21
  A 0.68 0.67 21.1 0 1 152.58 86.43
  Q 152.71 85.93 152.90 85.43
  Q 153.08 84.94 153.30 84.47
  A 0.68 0.67 19.3 0 1 154.07 84.11
  L 156.42 84.69
  A 0.37 0.35 20.8 0 0 156.83 84.52
  L 156.97 84.26
  A 0.75 0.75 0.0 0 0 156.63 83.21
  Q 155.13 82.53 153.41 81.97
  Q 151.73 81.28 150.15 80.83
  A 0.75 0.75 0.0 0 0 149.21 81.40
  L 149.15 81.69
  A 0.37 0.35 19.5 0 0 149.35 82.09
  L 151.52 83.17
  A 0.68 0.67 21.1 0 1 151.87 83.95
  Q 151.74 84.45 151.56 84.94"
/>
<path stroke="#cda693" vector-effect="non-scaling-stroke" d="
  M 57.46 93.79
  L 58.89 92.36
  A 0.64 0.63 30.0 0 1 59.51 92.20
  Q 61.31 92.71 62.70 91.42
  C 64.68 89.59 63.14 86.89 61.93 84.86
  A 0.59 0.58 -26.8 0 0 61.19 84.62
  L 55.26 87.23
  A 0.95 0.95 0.0 0 0 55.75 89.04
  Q 55.91 89.02 56.14 88.98
  A 1.47 1.41 -74.8 0 1 57.41 91.32
  Q 56.50 92.55 57.01 93.71
  A 0.28 0.28 0.0 0 0 57.46 93.79"
/>
<path stroke="#cda693" vector-effect="non-scaling-stroke" d="
  M 149.46 96.01
  A 0.68 0.68 0.0 0 0 150.40 96.91
  C 152.03 95.97 154.23 92.84 152.39 91.12
  A 2.30 2.19 45.6 0 0 149.37 91.01
  Q 148.34 91.92 147.33 92.79
  A 0.58 0.58 0.0 0 1 146.38 92.23
  Q 146.62 91.08 147.85 89.94
  A 0.65 0.65 0.0 0 0 147.11 88.89
  C 145.20 89.88 143.03 94.19 146.76 94.72
  Q 147.50 94.83 148.65 93.86
  Q 150.31 92.46 150.34 92.44
  A 0.68 0.68 0.0 0 1 151.37 92.90
  L 151.38 92.96
  A 1.76 1.76 0.0 0 1 150.80 94.59
  Q 149.72 95.52 149.46 96.01"
/>
<path stroke="#cda693" vector-effect="non-scaling-stroke" d="
  M 68.36 96.48
  L 66.09 92.55
  A 1.12 1.12 0.0 0 0 64.56 92.14
  L 59.53 95.04
  A 1.10 1.10 0.0 0 0 59.13 96.54
  L 61.61 100.85
  A 0.64 0.64 0.0 0 0 62.48 101.08
  L 62.85 100.87
  A 0.46 0.46 0.0 0 0 63.02 100.24
  L 61.08 96.88
  A 0.59 0.59 0.0 0 1 61.29 96.07
  L 61.67 95.86
  A 0.93 0.92 -30.1 0 1 62.93 96.19
  L 64.29 98.55
  A 0.71 0.71 0.0 0 0 65.60 98.02
  Q 65.29 96.74 63.84 94.98
  A 0.52 0.51 -34.7 0 1 63.99 94.20
  L 64.46 93.92
  A 0.74 0.74 0.0 0 1 65.47 94.19
  L 67.12 97.06
  A 0.54 0.54 0.0 0 0 67.85 97.26
  L 68.20 97.06
  A 0.43 0.43 0.0 0 0 68.36 96.48"
/>
<path stroke="#cda693" vector-effect="non-scaling-stroke" d="
  M 145.37 98.96
  Q 144.85 98.96 140.08 98.77
  A 0.87 0.87 0.0 0 0 139.17 99.66
  Q 139.18 100.07 139.49 100.32
  Q 142.20 102.43 144.28 104.22
  A 1.11 1.10 48.1 0 0 145.63 104.30
  L 145.85 104.11
  A 0.26 0.26 0.0 0 0 145.87 103.72
  L 143.13 100.98
  A 0.30 0.29 -21.5 0 1 143.35 100.48
  Q 147.66 100.62 148.22 100.60
  A 1.01 0.93 -8.3 0 0 149.19 99.41
  Q 149.07 99.01 148.24 98.26
  Q 146.32 96.55 143.67 94.66
  A 0.61 0.61 0.0 0 0 142.89 94.73
  L 142.69 94.93
  A 0.54 0.54 0.0 0 0 142.69 95.69
  L 145.54 98.54
  A 0.25 0.24 67.3 0 1 145.37 98.96"
/>
<path stroke="#cda693" vector-effect="non-scaling-stroke" d="
  M 65.05 101.80
  A 0.67 0.67 0.0 0 0 63.92 102.42
  C 64.33 104.24 66.63 107.25 68.80 106.02
  A 2.28 2.17 -26.9 0 0 69.81 103.20
  Q 69.25 101.96 68.73 100.74
  A 0.58 0.58 0.0 0 1 69.54 100.01
  Q 70.56 100.58 71.27 102.08
  A 0.64 0.64 0.0 0 0 72.48 101.69
  C 72.11 99.59 68.68 96.26 67.07 99.63
  Q 66.75 100.30 67.33 101.67
  Q 68.16 103.66 68.17 103.69
  A 0.68 0.68 0.0 0 1 67.42 104.53
  L 67.37 104.52
  A 1.75 1.74 -7.9 0 1 66.00 103.49
  Q 65.44 102.19 65.05 101.80"
/>
<path stroke="#cda693" vector-effect="non-scaling-stroke" d="
  M 141.93 106.29
  A 4.13 4.13 0.0 0 0 137.80 102.16
  A 4.13 4.13 0.0 0 0 133.67 106.29
  A 4.13 4.13 0.0 0 0 137.80 110.42
  A 4.13 4.13 0.0 0 0 141.93 106.29"
/>
<path stroke="#cda693" vector-effect="non-scaling-stroke" d="
  M 70.68 107.65
  A 0.67 0.67 0.0 0 0 69.66 108.43
  C 70.32 110.16 73.04 112.79 75.00 111.26
  A 2.27 2.16 -35.4 0 0 75.57 108.33
  Q 74.84 107.18 74.15 106.06
  A 0.57 0.57 0.0 0 1 74.84 105.22
  Q 75.93 105.64 76.85 107.01
  A 0.64 0.64 0.0 0 0 77.99 106.45
  C 77.32 104.43 73.45 101.65 72.35 105.21
  Q 72.13 105.92 72.90 107.19
  Q 74.01 109.02 74.03 109.06
  A 0.68 0.68 0.0 0 1 73.42 109.99
  L 73.36 109.99
  A 1.74 1.74 0.0 0 1 71.86 109.17
  Q 71.12 107.98 70.68 107.65"
/>
<path stroke="#cda693" vector-effect="non-scaling-stroke" d="
  M 131.3584 107.0977
  A 0.80 0.80 0.0 0 0 130.2486 106.8780
  L 130.1987 106.9113
  A 0.80 0.80 0.0 0 0 129.9789 108.0212
  L 133.6616 113.5223
  A 0.80 0.80 0.0 0 0 134.7714 113.7420
  L 134.8213 113.7087
  A 0.80 0.80 0.0 0 0 135.0411 112.5988
  L 131.3584 107.0977"
/>
<path stroke="#cda693" vector-effect="non-scaling-stroke" d="
  M 85.34 112.43
  A 4.15 4.15 0.0 0 0 81.19 108.28
  A 4.15 4.15 0.0 0 0 77.04 112.43
  A 4.15 4.15 0.0 0 0 81.19 116.58
  A 4.15 4.15 0.0 0 0 85.34 112.43"
/>
<path stroke="#cda693" vector-effect="non-scaling-stroke" d="
  M 123.22 111.79
  L 125.83 117.72
  A 0.79 0.78 -56.9 0 0 127.33 117.40
  L 127.33 116.40
  A 1.06 1.05 -15.8 0 1 127.84 115.50
  Q 129.01 114.79 129.88 113.91
  C 131.81 111.96 129.35 108.52 126.93 109.25
  Q 124.81 109.89 123.46 110.90
  A 0.75 0.74 60.1 0 0 123.22 111.79"
/>
<path stroke="#cda693" vector-effect="non-scaling-stroke" d="
  M 118.56 115.95
  Q 118.05 116.10 117.86 115.93
  Q 117.80 115.87 115.52 113.78
  A 1.02 1.02 0.0 0 0 113.85 114.81
  L 115.65 121.02
  A 0.61 0.61 0.0 0 0 116.41 121.44
  L 116.77 121.34
  A 0.70 0.69 74.1 0 0 117.24 120.48
  L 116.36 117.45
  A 0.41 0.41 0.0 0 1 116.96 116.98
  Q 117.43 117.25 118.92 118.56
  C 118.99 118.61 119.23 118.64 119.34 118.60
  C 119.45 118.57 119.65 118.42 119.67 118.34
  Q 120.22 116.43 120.47 115.95
  A 0.41 0.41 0.0 0 1 121.23 116.02
  L 122.13 119.04
  A 0.70 0.69 73.2 0 0 122.99 119.51
  L 123.35 119.40
  A 0.61 0.61 0.0 0 0 123.76 118.63
  L 121.91 112.44
  A 1.02 1.02 0.0 0 0 119.95 112.48
  Q 119.16 115.47 119.14 115.55
  Q 119.07 115.80 118.56 115.95"
/>
<path stroke="#cda693" vector-effect="non-scaling-stroke" d="
  M 93.60 119.13
  Q 92.30 119.58 91.39 119.11
  A 2.17 2.17 0.0 0 1 90.28 116.72
  C 90.64 115.08 92.40 113.55 94.06 114.70
  Q 94.89 115.29 95.24 115.15
  A 0.87 0.84 47.3 0 0 95.27 113.60
  C 89.62 110.63 86.40 116.81 90.23 120.22
  Q 90.77 120.69 93.40 121.11
  A 0.79 0.78 16.9 0 0 94.22 120.68
  Q 94.44 120.23 94.34 119.58
  A 0.56 0.56 0.0 0 0 93.60 119.13"
/>
<path stroke="#cda693" vector-effect="non-scaling-stroke" d="
  M 96.90 117.78
  Q 96.57 120.84 96.60 121.24
  Q 96.64 121.78 96.95 121.93
  A 0.87 0.79 -71.1 0 0 98.09 121.30
  Q 98.40 119.92 98.43 119.81
  A 1.66 1.65 51.5 0 1 101.67 120.18
  L 101.78 122.05
  A 0.42 0.42 0.0 0 0 102.20 122.45
  L 102.45 122.45
  A 0.83 0.83 0.0 0 0 103.27 121.76
  Q 103.54 120.24 103.67 118.50
  Q 103.91 116.78 103.97 115.23
  A 0.83 0.83 0.0 0 0 103.31 114.38
  L 103.07 114.33
  A 0.42 0.42 0.0 0 0 102.57 114.63
  L 102.07 116.44
  A 1.66 1.65 -39.3 0 1 98.82 116.12
  Q 98.82 116.00 98.81 114.59
  A 0.87 0.79 83.3 0 0 97.82 113.73
  Q 97.49 113.81 97.34 114.34
  Q 97.23 114.72 96.90 117.78"
/>
<path stroke="#cda693" vector-effect="non-scaling-stroke" d="
  M 109.42 121.16
  Q 109.96 121.13 110.47 121.11
  A 1.88 1.87 -29.3 0 1 111.60 121.42
  L 112.85 122.27
  A 0.45 0.45 0.0 0 0 113.52 121.73
  Q 111.76 117.46 110.33 115.21
  Q 109.44 113.82 108.96 113.85
  Q 108.48 113.88 107.78 115.38
  Q 106.64 117.78 105.43 122.24
  A 0.45 0.45 0.0 0 0 106.16 122.69
  L 107.29 121.69
  A 1.88 1.87 22.0 0 1 108.37 121.24
  Q 108.89 121.20 109.42 121.16"
/>
<path stroke="#cda693" vector-effect="non-scaling-stroke" d="
  M 96.6148 32.6814
  A 2.63 2.45 -77.6 0 0 93.6572 34.7239
  A 2.63 2.45 -77.6 0 0 95.4852 37.8186
  A 2.63 2.45 -77.6 0 0 98.4428 35.7761
  A 2.63 2.45 -77.6 0 0 96.6148 32.6814"
/>
<path stroke="#cda693" vector-effect="non-scaling-stroke" d="
  M 109.67 34.07
  A 1.66 1.66 0.0 0 0 108.01 32.41
  A 1.66 1.66 0.0 0 0 106.35 34.07
  A 1.66 1.66 0.0 0 0 108.01 35.73
  A 1.66 1.66 0.0 0 0 109.67 34.07"
/>
<path stroke="#cda693" vector-effect="non-scaling-stroke" d="
  M 128.30 33.17
  L 128.20 37.27
  A 0.70 0.70 0.0 0 0 128.89 37.98
  L 129.04 37.99
  A 2.99 2.61 1.3 0 0 132.09 35.44
  L 132.09 35.16
  A 2.99 2.61 1.3 0 0 129.16 32.49
  L 129.01 32.48
  A 0.70 0.70 0.0 0 0 128.30 33.17"
/>
<path stroke="#be8c66" vector-effect="non-scaling-stroke" d="
  M 96.11 94.79
  Q 104.07 96.98 113.08 95.02
  C 127.73 91.83 131.70 75.08 132.40 62.31
  A 0.41 0.41 0.0 0 0 131.86 61.89
  C 126.00 63.87 117.84 66.60 114.19 71.54
  C 112.53 73.79 112.18 76.75 111.11 79.39
  C 109.73 82.85 106.42 85.16 102.81 86.26
  C 99.08 87.40 96.83 90.22 95.62 93.88
  A 0.72 0.72 0.0 0 0 96.11 94.79"
/>
<path stroke="#cda693" vector-effect="non-scaling-stroke" d="
  M 152.97 74.87
  L 154.90 75.07
  A 0.67 0.67 0.0 0 0 155.63 74.47
  L 155.64 74.38
  A 2.52 1.53 -84.2 0 0 154.38 71.72
  L 154.16 71.70
  A 2.52 1.53 -84.2 0 0 152.38 74.05
  L 152.37 74.14
  A 0.67 0.67 0.0 0 0 152.97 74.87"
/>
<path stroke="#cda693" vector-effect="non-scaling-stroke" d="
  M 57.7836 79.0106
  A 1.83 1.62 -81.4 0 0 55.9082 80.5778
  A 1.83 1.62 -81.4 0 0 57.2364 82.6294
  A 1.83 1.62 -81.4 0 0 59.1118 81.0622
  A 1.83 1.62 -81.4 0 0 57.7836 79.0106"
/>
<path stroke="#cda693" vector-effect="non-scaling-stroke" d="
  M 62.12 88.66
  A 1.78 1.78 0.0 0 0 60.34 86.88
  A 1.78 1.78 0.0 0 0 58.56 88.66
  A 1.78 1.78 0.0 0 0 60.34 90.44
  A 1.78 1.78 0.0 0 0 62.12 88.66"
/>
<path stroke="#cda693" vector-effect="non-scaling-stroke" d="
  M 140.27 106.39
  A 2.53 2.53 0.0 0 0 137.74 103.86
  A 2.53 2.53 0.0 0 0 135.21 106.39
  A 2.53 2.53 0.0 0 0 137.74 108.92
  A 2.53 2.53 0.0 0 0 140.27 106.39"
/>
<path stroke="#cda693" vector-effect="non-scaling-stroke" d="
  M 83.72 112.31
  A 2.53 2.53 0.0 0 0 81.19 109.78
  A 2.53 2.53 0.0 0 0 78.66 112.31
  A 2.53 2.53 0.0 0 0 81.19 114.84
  A 2.53 2.53 0.0 0 0 83.72 112.31"
/>
<path stroke="#cda693" vector-effect="non-scaling-stroke" d="
  M 127.4469 110.7002
  A 1.84 1.69 -75.3 0 0 125.3453 112.0511
  A 1.84 1.69 -75.3 0 0 126.5131 114.2598
  A 1.84 1.69 -75.3 0 0 128.6147 112.9089
  A 1.84 1.69 -75.3 0 0 127.4469 110.7002"
/>
<path stroke="#cda693" vector-effect="non-scaling-stroke" d="
  M 108.52 119.86
  L 109.88 119.88
  A 0.40 0.40 0.0 0 0 110.29 119.49
  L 110.29 119.29
  A 2.46 0.92 -88.8 0 0 109.42 116.81
  L 109.10 116.81
  A 2.46 0.92 -88.8 0 0 108.13 119.25
  L 108.13 119.45
  A 0.40 0.40 0.0 0 0 108.52 119.86"
/>
</g>
<path fill="#ffffff" d="
  M 208.00 0.00
  L 208.00 147.00
  L 206.36 147.00
  Q 206.72 146.98 206.95 146.80
  Q 207.15 146.65 207.15 146.27
  Q 207.14 75.50 207.16 5.23
  A 0.78 0.78 0.0 0 0 206.38 4.45
  L 3.80 4.45
  A 0.65 0.65 0.0 0 0 3.15 5.10
  L 3.14 147.00
  L 0.00 147.00
  L 0.00 0.00
  L 208.00 0.00
  Z"
/>
<path fill="#9a4c26" d="
  M 206.36 147.00
  L 3.14 147.00
  L 3.15 5.10
  A 0.65 0.65 0.0 0 1 3.80 4.45
  L 206.38 4.45
  A 0.78 0.78 0.0 0 1 207.16 5.23
  Q 207.14 75.50 207.15 146.27
  Q 207.15 146.65 206.95 146.80
  Q 206.72 146.98 206.36 147.00
  Z
  M 101.80 35.27
  A 5.75 5.75 0.0 0 0 96.05 29.52
  A 5.75 5.75 0.0 0 0 90.30 35.27
  A 5.75 5.75 0.0 0 0 96.05 41.02
  A 5.75 5.75 0.0 0 0 101.80 35.27
  Z
  M 82.27 35.27
  Q 82.76 35.27 82.85 35.76
  Q 83.22 37.75 83.68 39.65
  A 1.34 1.33 4.5 0 0 84.47 40.57
  Q 85.52 40.99 86.76 40.63
  A 1.15 1.14 89.2 0 0 87.56 39.80
  L 89.79 30.84
  A 0.86 0.86 0.0 0 0 88.95 29.77
  L 88.22 29.77
  A 1.46 1.45 -82.8 0 0 86.81 30.87
  L 85.78 35.00
  A 0.46 0.46 0.0 0 1 84.88 34.92
  Q 84.59 29.74 82.28 29.73
  Q 79.97 29.73 79.66 34.90
  A 0.46 0.46 0.0 0 1 78.76 34.98
  L 77.75 30.85
  A 1.46 1.45 83.1 0 0 76.35 29.74
  L 75.62 29.73
  A 0.86 0.86 0.0 0 0 74.77 30.80
  L 76.95 39.77
  A 1.15 1.14 -88.9 0 0 77.75 40.61
  Q 78.99 40.97 80.04 40.56
  A 1.34 1.33 -4.2 0 0 80.83 39.64
  Q 81.30 37.74 81.69 35.76
  Q 81.78 35.27 82.27 35.27
  Z
  M 112.81 39.97
  Q 111.74 38.14 112.37 36.74
  C 115.47 29.79 108.53 29.37 104.03 29.87
  A 0.76 0.75 86.6 0 0 103.37 30.62
  L 103.37 39.26
  A 1.63 1.63 0.0 0 0 106.59 39.64
  L 106.75 38.98
  A 1.05 1.05 0.0 0 1 108.71 38.74
  Q 109.87 40.97 112.40 40.77
  A 0.53 0.53 0.0 0 0 112.81 39.97
  Z
  M 117.93 37.22
  L 117.93 30.94
  A 1.32 1.32 0.0 0 0 116.61 29.62
  L 116.23 29.62
  A 1.40 1.39 -90.0 0 0 114.84 31.02
  L 114.84 39.90
  A 0.75 0.74 -90.0 0 0 115.58 40.65
  L 122.98 40.65
  A 0.97 0.96 -90.0 0 0 123.94 39.68
  L 123.94 39.24
  A 1.30 1.30 0.0 0 0 122.64 37.94
  L 118.65 37.94
  A 0.72 0.72 0.0 0 1 117.93 37.22
  Z
  M 125.01 30.81
  L 125.20 39.87
  A 0.90 0.90 0.0 0 0 126.11 40.75
  L 129.64 40.67
  A 5.87 5.25 -1.2 0 0 135.40 35.30
  L 135.40 34.94
  A 5.87 5.25 -1.2 0 0 129.42 29.82
  L 125.89 29.89
  A 0.90 0.90 0.0 0 0 125.01 30.81
  Z
  M 117.83 57.91
  Q 116.24 58.89 114.54 59.82
  Q 105.08 65.02 102.90 75.48
  A 2.63 2.61 88.6 0 1 101.00 77.49
  Q 91.85 79.87 87.79 89.07
  A 0.65 0.65 0.0 0 1 86.72 89.26
  C 80.83 83.00 78.19 74.19 78.04 65.83
  A 0.89 0.89 0.0 0 0 77.15 64.96
  L 69.53 64.96
  A 0.70 0.69 -1.5 0 0 68.83 65.69
  C 69.80 85.59 79.31 102.26 100.47 104.55
  C 111.94 105.79 124.81 102.45 131.86 93.11
  C 141.05 80.94 142.68 64.33 140.79 49.34
  A 0.69 0.69 0.0 0 0 140.11 48.74
  L 94.42 48.74
  A 0.89 0.89 0.0 0 0 93.53 49.63
  L 93.53 56.75
  A 0.84 0.84 0.0 0 0 94.37 57.59
  L 117.74 57.59
  A 0.17 0.17 0.0 0 1 117.83 57.91
  Z
  M 58.73 68.64
  L 59.31 64.13
  A 1.12 1.12 0.0 0 0 58.34 62.87
  L 52.57 62.13
  A 1.10 1.10 0.0 0 0 51.34 63.09
  L 50.70 68.03
  A 0.64 0.64 0.0 0 0 51.25 68.74
  L 51.67 68.80
  A 0.46 0.46 0.0 0 0 52.19 68.40
  L 52.68 64.54
  A 0.59 0.59 0.0 0 1 53.34 64.02
  L 53.77 64.08
  A 0.93 0.92 7.2 0 1 54.58 65.11
  L 54.23 67.82
  A 0.72 0.71 -29.7 0 0 55.60 68.19
  Q 56.13 66.98 56.04 64.70
  A 0.53 0.52 2.6 0 1 56.63 64.17
  L 57.18 64.23
  A 0.74 0.74 0.0 0 1 57.82 65.06
  L 57.39 68.35
  A 0.54 0.54 0.0 0 0 57.85 68.95
  L 58.25 69.00
  A 0.43 0.43 0.0 0 0 58.73 68.64
  Z
  M 157.41 67.94
  A 0.67 0.67 0.0 0 0 158.68 68.18
  C 159.52 66.51 159.66 62.71 157.19 62.28
  A 2.29 2.17 12.5 0 0 154.62 63.83
  Q 154.26 65.14 153.89 66.41
  A 0.58 0.58 0.0 0 1 152.79 66.46
  Q 152.37 65.38 152.77 63.76
  A 0.64 0.64 0.0 0 0 151.59 63.29
  C 150.54 65.15 151.07 69.91 154.46 68.33
  Q 155.14 68.02 155.57 66.59
  Q 156.19 64.52 156.20 64.49
  A 0.68 0.68 0.0 0 1 157.31 64.31
  L 157.35 64.36
  A 1.75 1.74 31.6 0 1 157.75 66.03
  Q 157.36 67.39 157.41 67.94
  Z
  M 151.38 76.28
  L 157.85 77.39
  A 0.80 0.79 66.6 0 0 158.42 75.94
  L 157.58 75.38
  A 1.08 1.06 -72.3 0 1 157.10 74.45
  Q 157.16 73.06 156.90 71.83
  C 156.33 69.11 152.05 69.26 151.31 71.72
  Q 150.66 73.87 150.76 75.57
  A 0.76 0.76 0.0 0 0 151.38 76.28
  Z
  M 52.84 70.78
  A 0.68 0.67 -35.2 0 0 51.56 70.56
  C 50.74 72.25 50.67 76.06 53.15 76.46
  A 2.30 2.18 11.6 0 0 55.71 74.86
  Q 56.05 73.53 56.40 72.25
  A 0.58 0.58 0.0 0 1 57.50 72.18
  Q 57.94 73.27 57.56 74.90
  A 0.65 0.65 0.0 0 0 58.76 75.35
  C 59.79 73.47 59.18 68.69 55.80 70.34
  Q 55.12 70.66 54.71 72.10
  Q 54.12 74.19 54.11 74.22
  A 0.68 0.68 0.0 0 1 53.00 74.42
  L 52.96 74.37
  A 1.76 1.75 30.6 0 1 52.53 72.70
  Q 52.90 71.33 52.84 70.78
  Z
  M 59.04 77.20
  L 52.56 78.40
  A 0.80 0.80 0.0 0 0 52.53 79.96
  L 53.52 80.19
  A 1.08 1.07 87.4 0 1 54.29 80.91
  Q 54.72 82.23 55.39 83.30
  C 56.87 85.67 60.85 84.04 60.69 81.47
  Q 60.55 79.22 59.87 77.65
  A 0.76 0.76 0.0 0 0 59.04 77.20
  Z
  M 157.9369 80.3124
  A 0.70 0.70 0.0 0 0 157.4450 79.4533
  L 150.9408 77.6862
  A 0.70 0.70 0.0 0 0 150.0817 78.1781
  L 150.0031 78.4676
  A 0.70 0.70 0.0 0 0 150.4950 79.3267
  L 156.9992 81.0938
  A 0.70 0.70 0.0 0 0 157.8583 80.6019
  L 157.9369 80.3124
  Z
  M 151.56 84.94
  Q 151.38 85.44 151.15 85.90
  A 0.68 0.67 19.3 0 1 150.38 86.27
  L 148.03 85.69
  A 0.37 0.35 20.8 0 0 147.62 85.86
  L 147.48 86.12
  A 0.75 0.75 0.0 0 0 147.82 87.17
  Q 149.32 87.85 151.04 88.41
  Q 152.72 89.09 154.30 89.55
  A 0.75 0.75 0.0 0 0 155.24 88.97
  L 155.30 88.68
  A 0.37 0.35 19.5 0 0 155.10 88.29
  L 152.93 87.21
  A 0.68 0.67 21.1 0 1 152.58 86.43
  Q 152.71 85.93 152.90 85.43
  Q 153.08 84.94 153.30 84.47
  A 0.68 0.67 19.3 0 1 154.07 84.11
  L 156.42 84.69
  A 0.37 0.35 20.8 0 0 156.83 84.52
  L 156.97 84.26
  A 0.75 0.75 0.0 0 0 156.63 83.21
  Q 155.13 82.53 153.41 81.97
  Q 151.73 81.28 150.15 80.83
  A 0.75 0.75 0.0 0 0 149.21 81.40
  L 149.15 81.69
  A 0.37 0.35 19.5 0 0 149.35 82.09
  L 151.52 83.17
  A 0.68 0.67 21.1 0 1 151.87 83.95
  Q 151.74 84.45 151.56 84.94
  Z
  M 57.46 93.79
  L 58.89 92.36
  A 0.64 0.63 30.0 0 1 59.51 92.20
  Q 61.31 92.71 62.70 91.42
  C 64.68 89.59 63.14 86.89 61.93 84.86
  A 0.59 0.58 -26.8 0 0 61.19 84.62
  L 55.26 87.23
  A 0.95 0.95 0.0 0 0 55.75 89.04
  Q 55.91 89.02 56.14 88.98
  A 1.47 1.41 -74.8 0 1 57.41 91.32
  Q 56.50 92.55 57.01 93.71
  A 0.28 0.28 0.0 0 0 57.46 93.79
  Z
  M 149.46 96.01
  A 0.68 0.68 0.0 0 0 150.40 96.91
  C 152.03 95.97 154.23 92.84 152.39 91.12
  A 2.30 2.19 45.6 0 0 149.37 91.01
  Q 148.34 91.92 147.33 92.79
  A 0.58 0.58 0.0 0 1 146.38 92.23
  Q 146.62 91.08 147.85 89.94
  A 0.65 0.65 0.0 0 0 147.11 88.89
  C 145.20 89.88 143.03 94.19 146.76 94.72
  Q 147.50 94.83 148.65 93.86
  Q 150.31 92.46 150.34 92.44
  A 0.68 0.68 0.0 0 1 151.37 92.90
  L 151.38 92.96
  A 1.76 1.76 0.0 0 1 150.80 94.59
  Q 149.72 95.52 149.46 96.01
  Z
  M 68.36 96.48
  L 66.09 92.55
  A 1.12 1.12 0.0 0 0 64.56 92.14
  L 59.53 95.04
  A 1.10 1.10 0.0 0 0 59.13 96.54
  L 61.61 100.85
  A 0.64 0.64 0.0 0 0 62.48 101.08
  L 62.85 100.87
  A 0.46 0.46 0.0 0 0 63.02 100.24
  L 61.08 96.88
  A 0.59 0.59 0.0 0 1 61.29 96.07
  L 61.67 95.86
  A 0.93 0.92 -30.1 0 1 62.93 96.19
  L 64.29 98.55
  A 0.71 0.71 0.0 0 0 65.60 98.02
  Q 65.29 96.74 63.84 94.98
  A 0.52 0.51 -34.7 0 1 63.99 94.20
  L 64.46 93.92
  A 0.74 0.74 0.0 0 1 65.47 94.19
  L 67.12 97.06
  A 0.54 0.54 0.0 0 0 67.85 97.26
  L 68.20 97.06
  A 0.43 0.43 0.0 0 0 68.36 96.48
  Z
  M 145.37 98.96
  Q 144.85 98.96 140.08 98.77
  A 0.87 0.87 0.0 0 0 139.17 99.66
  Q 139.18 100.07 139.49 100.32
  Q 142.20 102.43 144.28 104.22
  A 1.11 1.10 48.1 0 0 145.63 104.30
  L 145.85 104.11
  A 0.26 0.26 0.0 0 0 145.87 103.72
  L 143.13 100.98
  A 0.30 0.29 -21.5 0 1 143.35 100.48
  Q 147.66 100.62 148.22 100.60
  A 1.01 0.93 -8.3 0 0 149.19 99.41
  Q 149.07 99.01 148.24 98.26
  Q 146.32 96.55 143.67 94.66
  A 0.61 0.61 0.0 0 0 142.89 94.73
  L 142.69 94.93
  A 0.54 0.54 0.0 0 0 142.69 95.69
  L 145.54 98.54
  A 0.25 0.24 67.3 0 1 145.37 98.96
  Z
  M 65.05 101.80
  A 0.67 0.67 0.0 0 0 63.92 102.42
  C 64.33 104.24 66.63 107.25 68.80 106.02
  A 2.28 2.17 -26.9 0 0 69.81 103.20
  Q 69.25 101.96 68.73 100.74
  A 0.58 0.58 0.0 0 1 69.54 100.01
  Q 70.56 100.58 71.27 102.08
  A 0.64 0.64 0.0 0 0 72.48 101.69
  C 72.11 99.59 68.68 96.26 67.07 99.63
  Q 66.75 100.30 67.33 101.67
  Q 68.16 103.66 68.17 103.69
  A 0.68 0.68 0.0 0 1 67.42 104.53
  L 67.37 104.52
  A 1.75 1.74 -7.9 0 1 66.00 103.49
  Q 65.44 102.19 65.05 101.80
  Z
  M 141.93 106.29
  A 4.13 4.13 0.0 0 0 137.80 102.16
  A 4.13 4.13 0.0 0 0 133.67 106.29
  A 4.13 4.13 0.0 0 0 137.80 110.42
  A 4.13 4.13 0.0 0 0 141.93 106.29
  Z
  M 70.68 107.65
  A 0.67 0.67 0.0 0 0 69.66 108.43
  C 70.32 110.16 73.04 112.79 75.00 111.26
  A 2.27 2.16 -35.4 0 0 75.57 108.33
  Q 74.84 107.18 74.15 106.06
  A 0.57 0.57 0.0 0 1 74.84 105.22
  Q 75.93 105.64 76.85 107.01
  A 0.64 0.64 0.0 0 0 77.99 106.45
  C 77.32 104.43 73.45 101.65 72.35 105.21
  Q 72.13 105.92 72.90 107.19
  Q 74.01 109.02 74.03 109.06
  A 0.68 0.68 0.0 0 1 73.42 109.99
  L 73.36 109.99
  A 1.74 1.74 0.0 0 1 71.86 109.17
  Q 71.12 107.98 70.68 107.65
  Z
  M 131.3584 107.0977
  A 0.80 0.80 0.0 0 0 130.2486 106.8780
  L 130.1987 106.9113
  A 0.80 0.80 0.0 0 0 129.9789 108.0212
  L 133.6616 113.5223
  A 0.80 0.80 0.0 0 0 134.7714 113.7420
  L 134.8213 113.7087
  A 0.80 0.80 0.0 0 0 135.0411 112.5988
  L 131.3584 107.0977
  Z
  M 85.34 112.43
  A 4.15 4.15 0.0 0 0 81.19 108.28
  A 4.15 4.15 0.0 0 0 77.04 112.43
  A 4.15 4.15 0.0 0 0 81.19 116.58
  A 4.15 4.15 0.0 0 0 85.34 112.43
  Z
  M 123.22 111.79
  L 125.83 117.72
  A 0.79 0.78 -56.9 0 0 127.33 117.40
  L 127.33 116.40
  A 1.06 1.05 -15.8 0 1 127.84 115.50
  Q 129.01 114.79 129.88 113.91
  C 131.81 111.96 129.35 108.52 126.93 109.25
  Q 124.81 109.89 123.46 110.90
  A 0.75 0.74 60.1 0 0 123.22 111.79
  Z
  M 118.56 115.95
  Q 118.05 116.10 117.86 115.93
  Q 117.80 115.87 115.52 113.78
  A 1.02 1.02 0.0 0 0 113.85 114.81
  L 115.65 121.02
  A 0.61 0.61 0.0 0 0 116.41 121.44
  L 116.77 121.34
  A 0.70 0.69 74.1 0 0 117.24 120.48
  L 116.36 117.45
  A 0.41 0.41 0.0 0 1 116.96 116.98
  Q 117.43 117.25 118.92 118.56
  C 118.99 118.61 119.23 118.64 119.34 118.60
  C 119.45 118.57 119.65 118.42 119.67 118.34
  Q 120.22 116.43 120.47 115.95
  A 0.41 0.41 0.0 0 1 121.23 116.02
  L 122.13 119.04
  A 0.70 0.69 73.2 0 0 122.99 119.51
  L 123.35 119.40
  A 0.61 0.61 0.0 0 0 123.76 118.63
  L 121.91 112.44
  A 1.02 1.02 0.0 0 0 119.95 112.48
  Q 119.16 115.47 119.14 115.55
  Q 119.07 115.80 118.56 115.95
  Z
  M 93.60 119.13
  Q 92.30 119.58 91.39 119.11
  A 2.17 2.17 0.0 0 1 90.28 116.72
  C 90.64 115.08 92.40 113.55 94.06 114.70
  Q 94.89 115.29 95.24 115.15
  A 0.87 0.84 47.3 0 0 95.27 113.60
  C 89.62 110.63 86.40 116.81 90.23 120.22
  Q 90.77 120.69 93.40 121.11
  A 0.79 0.78 16.9 0 0 94.22 120.68
  Q 94.44 120.23 94.34 119.58
  A 0.56 0.56 0.0 0 0 93.60 119.13
  Z
  M 96.90 117.78
  Q 96.57 120.84 96.60 121.24
  Q 96.64 121.78 96.95 121.93
  A 0.87 0.79 -71.1 0 0 98.09 121.30
  Q 98.40 119.92 98.43 119.81
  A 1.66 1.65 51.5 0 1 101.67 120.18
  L 101.78 122.05
  A 0.42 0.42 0.0 0 0 102.20 122.45
  L 102.45 122.45
  A 0.83 0.83 0.0 0 0 103.27 121.76
  Q 103.54 120.24 103.67 118.50
  Q 103.91 116.78 103.97 115.23
  A 0.83 0.83 0.0 0 0 103.31 114.38
  L 103.07 114.33
  A 0.42 0.42 0.0 0 0 102.57 114.63
  L 102.07 116.44
  A 1.66 1.65 -39.3 0 1 98.82 116.12
  Q 98.82 116.00 98.81 114.59
  A 0.87 0.79 83.3 0 0 97.82 113.73
  Q 97.49 113.81 97.34 114.34
  Q 97.23 114.72 96.90 117.78
  Z
  M 109.42 121.16
  Q 109.96 121.13 110.47 121.11
  A 1.88 1.87 -29.3 0 1 111.60 121.42
  L 112.85 122.27
  A 0.45 0.45 0.0 0 0 113.52 121.73
  Q 111.76 117.46 110.33 115.21
  Q 109.44 113.82 108.96 113.85
  Q 108.48 113.88 107.78 115.38
  Q 106.64 117.78 105.43 122.24
  A 0.45 0.45 0.0 0 0 106.16 122.69
  L 107.29 121.69
  A 1.88 1.87 22.0 0 1 108.37 121.24
  Q 108.89 121.20 109.42 121.16
  Z"
/>
<path fill="#ffffff" d="
  M 101.80 35.27
  A 5.75 5.75 0.0 0 1 96.05 41.02
  A 5.75 5.75 0.0 0 1 90.30 35.27
  A 5.75 5.75 0.0 0 1 96.05 29.52
  A 5.75 5.75 0.0 0 1 101.80 35.27
  Z
  M 96.6148 32.6814
  A 2.63 2.45 -77.6 0 0 93.6572 34.7239
  A 2.63 2.45 -77.6 0 0 95.4852 37.8186
  A 2.63 2.45 -77.6 0 0 98.4428 35.7761
  A 2.63 2.45 -77.6 0 0 96.6148 32.6814
  Z"
/>
<path fill="#ffffff" d="
  M 82.28 29.73
  Q 84.59 29.74 84.88 34.92
  A 0.46 0.46 0.0 0 0 85.78 35.00
  L 86.81 30.87
  A 1.46 1.45 -82.8 0 1 88.22 29.77
  L 88.95 29.77
  A 0.86 0.86 0.0 0 1 89.79 30.84
  L 87.56 39.80
  A 1.15 1.14 89.2 0 1 86.76 40.63
  Q 85.52 40.99 84.47 40.57
  A 1.34 1.33 4.5 0 1 83.68 39.65
  Q 83.22 37.75 82.85 35.76
  Q 82.76 35.27 82.27 35.27
  Q 81.78 35.27 81.69 35.76
  Q 81.30 37.74 80.83 39.64
  A 1.34 1.33 -4.2 0 1 80.04 40.56
  Q 78.99 40.97 77.75 40.61
  A 1.15 1.14 -88.9 0 1 76.95 39.77
  L 74.77 30.80
  A 0.86 0.86 0.0 0 1 75.62 29.73
  L 76.35 29.74
  A 1.46 1.45 83.1 0 1 77.75 30.85
  L 78.76 34.98
  A 0.46 0.46 0.0 0 0 79.66 34.90
  Q 79.97 29.73 82.28 29.73
  Z"
/>
<path fill="#ffffff" d="
  M 112.40 40.77
  Q 109.87 40.97 108.71 38.74
  A 1.05 1.05 0.0 0 0 106.75 38.98
  L 106.59 39.64
  A 1.63 1.63 0.0 0 1 103.37 39.26
  L 103.37 30.62
  A 0.76 0.75 86.6 0 1 104.03 29.87
  C 108.53 29.37 115.47 29.79 112.37 36.74
  Q 111.74 38.14 112.81 39.97
  A 0.53 0.53 0.0 0 1 112.40 40.77
  Z
  M 109.67 34.07
  A 1.66 1.66 0.0 0 0 108.01 32.41
  A 1.66 1.66 0.0 0 0 106.35 34.07
  A 1.66 1.66 0.0 0 0 108.01 35.73
  A 1.66 1.66 0.0 0 0 109.67 34.07
  Z"
/>
<path fill="#ffffff" d="
  M 118.65 37.94
  L 122.64 37.94
  A 1.30 1.30 0.0 0 1 123.94 39.24
  L 123.94 39.68
  A 0.97 0.96 -90.0 0 1 122.98 40.65
  L 115.58 40.65
  A 0.75 0.74 90.0 0 1 114.84 39.90
  L 114.84 31.02
  A 1.40 1.39 -90.0 0 1 116.23 29.62
  L 116.61 29.62
  A 1.32 1.32 0.0 0 1 117.93 30.94
  L 117.93 37.22
  A 0.72 0.72 0.0 0 0 118.65 37.94
  Z"
/>
<path fill="#ffffff" d="
  M 125.01 30.81
  A 0.90 0.90 0.0 0 1 125.89 29.89
  L 129.42 29.82
  A 5.87 5.25 -1.2 0 1 135.40 34.94
  L 135.40 35.30
  A 5.87 5.25 -1.2 0 1 129.64 40.67
  L 126.11 40.75
  A 0.90 0.90 0.0 0 1 125.20 39.87
  L 125.01 30.81
  Z
  M 128.30 33.17
  L 128.20 37.27
  A 0.70 0.70 0.0 0 0 128.89 37.98
  L 129.04 37.99
  A 2.99 2.61 1.3 0 0 132.09 35.44
  L 132.09 35.16
  A 2.99 2.61 1.3 0 0 129.16 32.49
  L 129.01 32.48
  A 0.70 0.70 0.0 0 0 128.30 33.17
  Z"
/>
<ellipse fill="#9a4c26" cx="0.00" cy="0.00" transform="translate(96.05,35.25) rotate(-77.6)" rx="2.63" ry="2.45"/>
<circle fill="#9a4c26" cx="108.01" cy="34.07" r="1.66"/>
<path fill="#9a4c26" d="
  M 128.30 33.17
  A 0.70 0.70 0.0 0 1 129.01 32.48
  L 129.16 32.49
  A 2.99 2.61 1.3 0 1 132.09 35.16
  L 132.09 35.44
  A 2.99 2.61 1.3 0 1 129.04 37.99
  L 128.89 37.98
  A 0.70 0.70 0.0 0 1 128.20 37.27
  L 128.30 33.17
  Z"
/>
<path fill="#e2cba6" d="
  M 117.83 57.91
  A 0.17 0.17 0.0 0 0 117.74 57.59
  L 94.37 57.59
  A 0.84 0.84 0.0 0 1 93.53 56.75
  L 93.53 49.63
  A 0.89 0.89 0.0 0 1 94.42 48.74
  L 140.11 48.74
  A 0.69 0.69 0.0 0 1 140.79 49.34
  C 142.68 64.33 141.05 80.94 131.86 93.11
  C 124.81 102.45 111.94 105.79 100.47 104.55
  C 79.31 102.26 69.80 85.59 68.83 65.69
  A 0.70 0.69 -1.5 0 1 69.53 64.96
  L 77.15 64.96
  A 0.89 0.89 0.0 0 1 78.04 65.83
  C 78.19 74.19 80.83 83.00 86.72 89.26
  A 0.65 0.65 0.0 0 0 87.79 89.07
  Q 91.85 79.87 101.00 77.49
  A 2.63 2.61 88.6 0 0 102.90 75.48
  Q 105.08 65.02 114.54 59.82
  Q 116.24 58.89 117.83 57.91
  Z
  M 96.11 94.79
  Q 104.07 96.98 113.08 95.02
  C 127.73 91.83 131.70 75.08 132.40 62.31
  A 0.41 0.41 0.0 0 0 131.86 61.89
  C 126.00 63.87 117.84 66.60 114.19 71.54
  C 112.53 73.79 112.18 76.75 111.11 79.39
  C 109.73 82.85 106.42 85.16 102.81 86.26
  C 99.08 87.40 96.83 90.22 95.62 93.88
  A 0.72 0.72 0.0 0 0 96.11 94.79
  Z"
/>
<path fill="#9a4c26" d="
  M 95.62 93.88
  C 96.83 90.22 99.08 87.40 102.81 86.26
  C 106.42 85.16 109.73 82.85 111.11 79.39
  C 112.18 76.75 112.53 73.79 114.19 71.54
  C 117.84 66.60 126.00 63.87 131.86 61.89
  A 0.41 0.41 0.0 0 1 132.40 62.31
  C 131.70 75.08 127.73 91.83 113.08 95.02
  Q 104.07 96.98 96.11 94.79
  A 0.72 0.72 0.0 0 1 95.62 93.88
  Z"
/>
<path fill="#ffffff" d="
  M 58.73 68.64
  A 0.43 0.43 0.0 0 1 58.25 69.00
  L 57.85 68.95
  A 0.54 0.54 0.0 0 1 57.39 68.35
  L 57.82 65.06
  A 0.74 0.74 0.0 0 0 57.18 64.23
  L 56.63 64.17
  A 0.53 0.52 2.6 0 0 56.04 64.70
  Q 56.13 66.98 55.60 68.19
  A 0.72 0.71 -29.7 0 1 54.23 67.82
  L 54.58 65.11
  A 0.93 0.92 7.2 0 0 53.77 64.08
  L 53.34 64.02
  A 0.59 0.59 0.0 0 0 52.68 64.54
  L 52.19 68.40
  A 0.46 0.46 0.0 0 1 51.67 68.80
  L 51.25 68.74
  A 0.64 0.64 0.0 0 1 50.70 68.03
  L 51.34 63.09
  A 1.10 1.10 0.0 0 1 52.57 62.13
  L 58.34 62.87
  A 1.12 1.12 0.0 0 1 59.31 64.13
  L 58.73 68.64
  Z"
/>
<path fill="#ffffff" d="
  M 157.41 67.94
  Q 157.36 67.39 157.75 66.03
  A 1.75 1.74 31.6 0 0 157.35 64.36
  L 157.31 64.31
  A 0.68 0.68 0.0 0 0 156.20 64.49
  Q 156.19 64.52 155.57 66.59
  Q 155.14 68.02 154.46 68.33
  C 151.07 69.91 150.54 65.15 151.59 63.29
  A 0.64 0.64 0.0 0 1 152.77 63.76
  Q 152.37 65.38 152.79 66.46
  A 0.58 0.58 0.0 0 0 153.89 66.41
  Q 154.26 65.14 154.62 63.83
  A 2.29 2.17 12.5 0 1 157.19 62.28
  C 159.66 62.71 159.52 66.51 158.68 68.18
  A 0.67 0.67 0.0 0 1 157.41 67.94
  Z"
/>
<path fill="#ffffff" d="
  M 151.38 76.28
  A 0.76 0.76 0.0 0 1 150.76 75.57
  Q 150.66 73.87 151.31 71.72
  C 152.05 69.26 156.33 69.11 156.90 71.83
  Q 157.16 73.06 157.10 74.45
  A 1.08 1.06 -72.3 0 0 157.58 75.38
  L 158.42 75.94
  A 0.80 0.79 66.6 0 1 157.85 77.39
  L 151.38 76.28
  Z
  M 152.97 74.87
  L 154.90 75.07
  A 0.67 0.67 0.0 0 0 155.63 74.47
  L 155.64 74.38
  A 2.52 1.53 -84.2 0 0 154.38 71.72
  L 154.16 71.70
  A 2.52 1.53 -84.2 0 0 152.38 74.05
  L 152.37 74.14
  A 0.67 0.67 0.0 0 0 152.97 74.87
  Z"
/>
<path fill="#ffffff" d="
  M 52.84 70.78
  Q 52.90 71.33 52.53 72.70
  A 1.76 1.75 30.6 0 0 52.96 74.37
  L 53.00 74.42
  A 0.68 0.68 0.0 0 0 54.11 74.22
  Q 54.12 74.19 54.71 72.10
  Q 55.12 70.66 55.80 70.34
  C 59.18 68.69 59.79 73.47 58.76 75.35
  A 0.65 0.65 0.0 0 1 57.56 74.90
  Q 57.94 73.27 57.50 72.18
  A 0.58 0.58 0.0 0 0 56.40 72.25
  Q 56.05 73.53 55.71 74.86
  A 2.30 2.18 11.6 0 1 53.15 76.46
  C 50.67 76.06 50.74 72.25 51.56 70.56
  A 0.68 0.67 -35.2 0 1 52.84 70.78
  Z"
/>
<path fill="#9a4c26" d="
  M 152.97 74.87
  A 0.67 0.67 0.0 0 1 152.37 74.14
  L 152.38 74.05
  A 2.52 1.53 -84.2 0 1 154.16 71.70
  L 154.38 71.72
  A 2.52 1.53 -84.2 0 1 155.64 74.38
  L 155.63 74.47
  A 0.67 0.67 0.0 0 1 154.90 75.07
  L 152.97 74.87
  Z"
/>
<path fill="#ffffff" d="
  M 59.04 77.20
  A 0.76 0.76 0.0 0 1 59.87 77.65
  Q 60.55 79.22 60.69 81.47
  C 60.85 84.04 56.87 85.67 55.39 83.30
  Q 54.72 82.23 54.29 80.91
  A 1.08 1.07 87.4 0 0 53.52 80.19
  L 52.53 79.96
  A 0.80 0.80 0.0 0 1 52.56 78.40
  L 59.04 77.20
  Z
  M 57.7836 79.0106
  A 1.83 1.62 -81.4 0 0 55.9082 80.5778
  A 1.83 1.62 -81.4 0 0 57.2364 82.6294
  A 1.83 1.62 -81.4 0 0 59.1118 81.0622
  A 1.83 1.62 -81.4 0 0 57.7836 79.0106
  Z"
/>
<rect fill="#ffffff" x="-4.07" y="-0.85" transform="translate(153.97,79.39) rotate(15.2)" width="8.14" height="1.70" rx="0.70"/>
<ellipse fill="#9a4c26" cx="0.00" cy="0.00" transform="translate(57.51,80.82) rotate(-81.4)" rx="1.83" ry="1.62"/>
<path fill="#ffffff" d="
  M 153.41 81.97
  Q 155.13 82.53 156.63 83.21
  A 0.75 0.75 0.0 0 1 156.97 84.26
  L 156.83 84.52
  A 0.37 0.35 20.8 0 1 156.42 84.69
  L 154.07 84.11
  A 0.68 0.67 19.3 0 0 153.30 84.47
  Q 153.08 84.94 152.90 85.43
  Q 152.71 85.93 152.58 86.43
  A 0.68 0.67 21.1 0 0 152.93 87.21
  L 155.10 88.29
  A 0.37 0.35 19.5 0 1 155.30 88.68
  L 155.24 88.97
  A 0.75 0.75 0.0 0 1 154.30 89.55
  Q 152.72 89.09 151.04 88.41
  Q 149.32 87.85 147.82 87.17
  A 0.75 0.75 0.0 0 1 147.48 86.12
  L 147.62 85.86
  A 0.37 0.35 20.8 0 1 148.03 85.69
  L 150.38 86.27
  A 0.68 0.67 19.3 0 0 151.15 85.90
  Q 151.38 85.44 151.56 84.94
  Q 151.74 84.45 151.87 83.95
  A 0.68 0.67 21.1 0 0 151.52 83.17
  L 149.35 82.09
  A 0.37 0.35 19.5 0 1 149.15 81.69
  L 149.21 81.40
  A 0.75 0.75 0.0 0 1 150.15 80.83
  Q 151.73 81.28 153.41 81.97
  Z"
/>
<path fill="#ffffff" d="
  M 57.01 93.71
  Q 56.50 92.55 57.41 91.32
  A 1.47 1.41 -74.8 0 0 56.14 88.98
  Q 55.91 89.02 55.75 89.04
  A 0.95 0.95 0.0 0 1 55.26 87.23
  L 61.19 84.62
  A 0.59 0.58 -26.8 0 1 61.93 84.86
  C 63.14 86.89 64.68 89.59 62.70 91.42
  Q 61.31 92.71 59.51 92.20
  A 0.64 0.63 30.0 0 0 58.89 92.36
  L 57.46 93.79
  A 0.28 0.28 0.0 0 1 57.01 93.71
  Z
  M 62.12 88.66
  A 1.78 1.78 0.0 0 0 60.34 86.88
  A 1.78 1.78 0.0 0 0 58.56 88.66
  A 1.78 1.78 0.0 0 0 60.34 90.44
  A 1.78 1.78 0.0 0 0 62.12 88.66
  Z"
/>
<circle fill="#9a4c26" cx="60.34" cy="88.66" r="1.78"/>
<path fill="#ffffff" d="
  M 149.46 96.01
  Q 149.72 95.52 150.80 94.59
  A 1.76 1.76 0.0 0 0 151.38 92.96
  L 151.37 92.90
  A 0.68 0.68 0.0 0 0 150.34 92.44
  Q 150.31 92.46 148.65 93.86
  Q 147.50 94.83 146.76 94.72
  C 143.03 94.19 145.20 89.88 147.11 88.89
  A 0.65 0.65 0.0 0 1 147.85 89.94
  Q 146.62 91.08 146.38 92.23
  A 0.58 0.58 0.0 0 0 147.33 92.79
  Q 148.34 91.92 149.37 91.01
  A 2.30 2.19 45.6 0 1 152.39 91.12
  C 154.23 92.84 152.03 95.97 150.40 96.91
  A 0.68 0.68 0.0 0 1 149.46 96.01
  Z"
/>
<path fill="#ffffff" d="
  M 68.36 96.48
  A 0.43 0.43 0.0 0 1 68.20 97.06
  L 67.85 97.26
  A 0.54 0.54 0.0 0 1 67.12 97.06
  L 65.47 94.19
  A 0.74 0.74 0.0 0 0 64.46 93.92
  L 63.99 94.20
  A 0.52 0.51 -34.7 0 0 63.84 94.98
  Q 65.29 96.74 65.60 98.02
  A 0.71 0.71 0.0 0 1 64.29 98.55
  L 62.93 96.19
  A 0.93 0.92 -30.1 0 0 61.67 95.86
  L 61.29 96.07
  A 0.59 0.59 0.0 0 0 61.08 96.88
  L 63.02 100.24
  A 0.46 0.46 0.0 0 1 62.85 100.87
  L 62.48 101.08
  A 0.64 0.64 0.0 0 1 61.61 100.85
  L 59.13 96.54
  A 1.10 1.10 0.0 0 1 59.53 95.04
  L 64.56 92.14
  A 1.12 1.12 0.0 0 1 66.09 92.55
  L 68.36 96.48
  Z"
/>
<path fill="#ffffff" d="
  M 145.54 98.54
  L 142.69 95.69
  A 0.54 0.54 0.0 0 1 142.69 94.93
  L 142.89 94.73
  A 0.61 0.61 0.0 0 1 143.67 94.66
  Q 146.32 96.55 148.24 98.26
  Q 149.07 99.01 149.19 99.41
  A 1.01 0.93 -8.3 0 1 148.22 100.60
  Q 147.66 100.62 143.35 100.48
  A 0.30 0.29 -21.5 0 0 143.13 100.98
  L 145.87 103.72
  A 0.26 0.26 0.0 0 1 145.85 104.11
  L 145.63 104.30
  A 1.11 1.10 48.1 0 1 144.28 104.22
  Q 142.20 102.43 139.49 100.32
  Q 139.18 100.07 139.17 99.66
  A 0.87 0.87 0.0 0 1 140.08 98.77
  Q 144.85 98.96 145.37 98.96
  A 0.25 0.24 67.3 0 0 145.54 98.54
  Z"
/>
<path fill="#ffffff" d="
  M 65.05 101.80
  Q 65.44 102.19 66.00 103.49
  A 1.75 1.74 -7.9 0 0 67.37 104.52
  L 67.42 104.53
  A 0.68 0.68 0.0 0 0 68.17 103.69
  Q 68.16 103.66 67.33 101.67
  Q 66.75 100.30 67.07 99.63
  C 68.68 96.26 72.11 99.59 72.48 101.69
  A 0.64 0.64 0.0 0 1 71.27 102.08
  Q 70.56 100.58 69.54 100.01
  A 0.58 0.58 0.0 0 0 68.73 100.74
  Q 69.25 101.96 69.81 103.20
  A 2.28 2.17 -26.9 0 1 68.80 106.02
  C 66.63 107.25 64.33 104.24 63.92 102.42
  A 0.67 0.67 0.0 0 1 65.05 101.80
  Z"
/>
<path fill="#ffffff" d="
  M 141.93 106.29
  A 4.13 4.13 0.0 0 1 137.80 110.42
  A 4.13 4.13 0.0 0 1 133.67 106.29
  A 4.13 4.13 0.0 0 1 137.80 102.16
  A 4.13 4.13 0.0 0 1 141.93 106.29
  Z
  M 140.27 106.39
  A 2.53 2.53 0.0 0 0 137.74 103.86
  A 2.53 2.53 0.0 0 0 135.21 106.39
  A 2.53 2.53 0.0 0 0 137.74 108.92
  A 2.53 2.53 0.0 0 0 140.27 106.39
  Z"
/>
<path fill="#ffffff" d="
  M 70.68 107.65
  Q 71.12 107.98 71.86 109.17
  A 1.74 1.74 0.0 0 0 73.36 109.99
  L 73.42 109.99
  A 0.68 0.68 0.0 0 0 74.03 109.06
  Q 74.01 109.02 72.90 107.19
  Q 72.13 105.92 72.35 105.21
  C 73.45 101.65 77.32 104.43 77.99 106.45
  A 0.64 0.64 0.0 0 1 76.85 107.01
  Q 75.93 105.64 74.84 105.22
  A 0.57 0.57 0.0 0 0 74.15 106.06
  Q 74.84 107.18 75.57 108.33
  A 2.27 2.16 -35.4 0 1 75.00 111.26
  C 73.04 112.79 70.32 110.16 69.66 108.43
  A 0.67 0.67 0.0 0 1 70.68 107.65
  Z"
/>
<circle fill="#9a4c26" cx="137.74" cy="106.39" r="2.53"/>
<rect fill="#ffffff" x="-0.83" y="-4.11" transform="translate(132.51,110.31) rotate(-33.8)" width="1.66" height="8.22" rx="0.80"/>
<path fill="#ffffff" d="
  M 85.34 112.43
  A 4.15 4.15 0.0 0 1 81.19 116.58
  A 4.15 4.15 0.0 0 1 77.04 112.43
  A 4.15 4.15 0.0 0 1 81.19 108.28
  A 4.15 4.15 0.0 0 1 85.34 112.43
  Z
  M 83.72 112.31
  A 2.53 2.53 0.0 0 0 81.19 109.78
  A 2.53 2.53 0.0 0 0 78.66 112.31
  A 2.53 2.53 0.0 0 0 81.19 114.84
  A 2.53 2.53 0.0 0 0 83.72 112.31
  Z"
/>
<path fill="#ffffff" d="
  M 123.46 110.90
  Q 124.81 109.89 126.93 109.25
  C 129.35 108.52 131.81 111.96 129.88 113.91
  Q 129.01 114.79 127.84 115.50
  A 1.06 1.05 -15.8 0 0 127.33 116.40
  L 127.33 117.40
  A 0.79 0.78 -56.9 0 1 125.83 117.72
  L 123.22 111.79
  A 0.75 0.74 60.1 0 1 123.46 110.90
  Z
  M 127.4469 110.7002
  A 1.84 1.69 -75.3 0 0 125.3453 112.0511
  A 1.84 1.69 -75.3 0 0 126.5131 114.2598
  A 1.84 1.69 -75.3 0 0 128.6147 112.9089
  A 1.84 1.69 -75.3 0 0 127.4469 110.7002
  Z"
/>
<circle fill="#9a4c26" cx="81.19" cy="112.31" r="2.53"/>
<ellipse fill="#9a4c26" cx="0.00" cy="0.00" transform="translate(126.98,112.48) rotate(-75.3)" rx="1.84" ry="1.69"/>
<path fill="#ffffff" d="
  M 119.34 118.60
  C 119.23 118.64 118.99 118.61 118.92 118.56
  Q 117.43 117.25 116.96 116.98
  A 0.41 0.41 0.0 0 0 116.36 117.45
  L 117.24 120.48
  A 0.70 0.69 74.1 0 1 116.77 121.34
  L 116.41 121.44
  A 0.61 0.61 0.0 0 1 115.65 121.02
  L 113.85 114.81
  A 1.02 1.02 0.0 0 1 115.52 113.78
  Q 117.80 115.87 117.86 115.93
  Q 118.05 116.10 118.56 115.95
  Q 119.07 115.80 119.14 115.55
  Q 119.16 115.47 119.95 112.48
  A 1.02 1.02 0.0 0 1 121.91 112.44
  L 123.76 118.63
  A 0.61 0.61 0.0 0 1 123.35 119.40
  L 122.99 119.51
  A 0.70 0.69 73.2 0 1 122.13 119.04
  L 121.23 116.02
  A 0.41 0.41 0.0 0 0 120.47 115.95
  Q 120.22 116.43 119.67 118.34
  C 119.65 118.42 119.45 118.57 119.34 118.60
  Z"
/>
<path fill="#ffffff" d="
  M 94.34 119.58
  Q 94.44 120.23 94.22 120.68
  A 0.79 0.78 16.9 0 1 93.40 121.11
  Q 90.77 120.69 90.23 120.22
  C 86.40 116.81 89.62 110.63 95.27 113.60
  A 0.87 0.84 47.3 0 1 95.24 115.15
  Q 94.89 115.29 94.06 114.70
  C 92.40 113.55 90.64 115.08 90.28 116.72
  A 2.17 2.17 0.0 0 0 91.39 119.11
  Q 92.30 119.58 93.60 119.13
  A 0.56 0.56 0.0 0 1 94.34 119.58
  Z"
/>
<path fill="#ffffff" d="
  M 103.67 118.50
  Q 103.54 120.24 103.27 121.76
  A 0.83 0.83 0.0 0 1 102.45 122.45
  L 102.20 122.45
  A 0.42 0.42 0.0 0 1 101.78 122.05
  L 101.67 120.18
  A 1.66 1.65 51.5 0 0 98.43 119.81
  Q 98.40 119.92 98.09 121.30
  A 0.87 0.79 -71.1 0 1 96.95 121.93
  Q 96.64 121.78 96.60 121.24
  Q 96.57 120.84 96.90 117.78
  Q 97.23 114.72 97.34 114.34
  Q 97.49 113.81 97.82 113.73
  A 0.87 0.79 83.3 0 1 98.81 114.59
  Q 98.82 116.00 98.82 116.12
  A 1.66 1.65 -39.3 0 0 102.07 116.44
  L 102.57 114.63
  A 0.42 0.42 0.0 0 1 103.07 114.33
  L 103.31 114.38
  A 0.83 0.83 0.0 0 1 103.97 115.23
  Q 103.91 116.78 103.67 118.50
  Z"
/>
<path fill="#ffffff" d="
  M 109.42 121.16
  Q 108.89 121.20 108.37 121.24
  A 1.88 1.87 22.0 0 0 107.29 121.69
  L 106.16 122.69
  A 0.45 0.45 0.0 0 1 105.43 122.24
  Q 106.64 117.78 107.78 115.38
  Q 108.48 113.88 108.96 113.85
  Q 109.44 113.82 110.33 115.21
  Q 111.76 117.46 113.52 121.73
  A 0.45 0.45 0.0 0 1 112.85 122.27
  L 111.60 121.42
  A 1.88 1.87 -29.3 0 0 110.47 121.11
  Q 109.96 121.13 109.42 121.16
  Z
  M 108.52 119.86
  L 109.88 119.88
  A 0.40 0.40 0.0 0 0 110.29 119.49
  L 110.29 119.29
  A 2.46 0.92 -88.8 0 0 109.42 116.81
  L 109.10 116.81
  A 2.46 0.92 -88.8 0 0 108.13 119.25
  L 108.13 119.45
  A 0.40 0.40 0.0 0 0 108.52 119.86
  Z"
/>
<path fill="#9a4c26" d="
  M 108.52 119.86
  A 0.40 0.40 0.0 0 1 108.13 119.45
  L 108.13 119.25
  A 2.46 0.92 -88.8 0 1 109.10 116.81
  L 109.42 116.81
  A 2.46 0.92 -88.8 0 1 110.29 119.29
  L 110.29 119.49
  A 0.40 0.40 0.0 0 1 109.88 119.88
  L 108.52 119.86
  Z"
/>
</svg>
