<?xml version="1.0" encoding="UTF-8" standalone="no"?>
<!DOCTYPE svg PUBLIC "-//W3C//DTD SVG 1.1//EN" "http://www.w3.org/Graphics/SVG/1.1/DTD/svg11.dtd">
<svg xmlns="http://www.w3.org/2000/svg" version="1.1" viewBox="0.00 0.00 190.00 141.00">
<g stroke-width="2.00" fill="none" stroke-linecap="butt">
<path stroke="#b7835b" vector-effect="non-scaling-stroke" d="
  M 71.65 29.06
  Q 71.95 29.06 73.27 34.47
  A 1.55 1.53 10.6 0 0 73.88 35.35
  Q 74.84 36.03 76.23 35.44
  A 0.99 0.98 -4.2 0 0 76.82 34.76
  L 78.94 26.06
  A 1.04 1.04 0.0 0 0 78.18 24.80
  L 77.92 24.74
  A 1.26 1.26 0.0 0 0 76.40 25.66
  L 75.13 30.85
  A 0.39 0.38 45.6 0 1 74.38 30.84
  Q 73.57 27.23 73.18 25.62
  Q 73.07 25.17 72.60 24.94
  Q 72.39 24.83 71.66 24.83
  Q 70.92 24.83 70.71 24.93
  Q 70.24 25.16 70.13 25.61
  Q 69.73 27.22 68.91 30.83
  A 0.39 0.38 -45.4 0 1 68.16 30.84
  L 66.91 25.64
  A 1.26 1.26 0.0 0 0 65.39 24.72
  L 65.13 24.77
  A 1.04 1.04 0.0 0 0 64.37 26.03
  L 66.45 34.74
  A 0.99 0.98 4.5 0 0 67.04 35.42
  Q 68.43 36.02 69.39 35.34
  A 1.55 1.53 -10.4 0 0 70.00 34.46
  Q 71.35 29.05 71.65 29.06"
/>
<path stroke="#b7835b" vector-effect="non-scaling-stroke" d="
  M 91.00 30.23
  A 5.56 5.56 0.0 0 0 85.44 24.67
  A 5.56 5.56 0.0 0 0 79.88 30.23
  A 5.56 5.56 0.0 0 0 85.44 35.79
  A 5.56 5.56 0.0 0 0 91.00 30.23"
/>
<path stroke="#b7835b" vector-effect="non-scaling-stroke" d="
  M 101.71 35.81
  A 0.59 0.58 75.7 0 0 102.23 34.93
  L 101.38 33.44
  A 1.21 1.21 0.0 0 1 101.30 32.36
  C 101.67 31.40 102.42 30.03 102.30 28.78
  C 101.87 24.29 96.47 24.55 93.42 24.98
  A 0.72 0.71 -4.9 0 0 92.80 25.71
  Q 93.02 31.68 92.85 34.47
  A 1.50 1.36 -23.7 0 0 95.40 35.33
  Q 95.94 34.75 95.87 34.13
  A 1.23 1.08 30.4 0 1 98.10 33.70
  Q 99.28 35.75 101.71 35.81"
/>
<path stroke="#b7835b" vector-effect="non-scaling-stroke" d="
  M 113.15 34.79
  L 113.15 34.49
  A 1.46 1.45 90.0 0 0 111.70 33.03
  L 107.62 33.03
  A 0.48 0.48 0.0 0 1 107.14 32.55
  L 107.14 25.71
  A 0.94 0.93 -90.0 0 0 106.21 24.77
  L 105.12 24.77
  A 0.88 0.88 0.0 0 0 104.24 25.65
  L 104.24 35.05
  A 0.54 0.53 0.0 0 0 104.78 35.58
  L 112.36 35.58
  A 0.79 0.79 0.0 0 0 113.15 34.79"
/>
<path stroke="#bb8d67" vector-effect="non-scaling-stroke" d="
  M 114.57 25.41
  L 114.51 35.03
  A 0.58 0.58 0.0 0 0 115.09 35.62
  L 118.75 35.64
  A 5.94 5.18 0.3 0 0 124.72 30.49
  L 124.72 30.07
  A 5.94 5.18 0.3 0 0 118.81 24.86
  L 115.15 24.84
  A 0.58 0.58 0.0 0 0 114.57 25.41"
/>
<path stroke="#bb8d67" vector-effect="non-scaling-stroke" d="
  M 106.94 52.88
  Q 106.17 53.44 103.80 54.79
  Q 94.40 60.17 92.27 70.58
  A 2.45 2.44 88.7 0 1 90.49 72.45
  Q 81.46 74.77 77.21 83.88
  A 0.88 0.87 38.0 0 1 75.74 84.06
  Q 67.47 73.99 67.45 60.39
  A 0.42 0.41 90.0 0 0 67.04 59.97
  L 58.49 59.97
  A 0.29 0.28 -1.0 0 0 58.20 60.26
  C 58.50 79.46 68.30 96.61 88.46 99.39
  C 101.26 101.15 114.82 97.49 122.25 86.74
  C 130.57 74.71 131.99 58.83 130.22 44.42
  A 0.74 0.73 -3.5 0 0 129.49 43.78
  L 83.33 43.78
  A 0.46 0.45 -90.0 0 0 82.88 44.24
  L 82.88 52.02
  A 0.54 0.54 0.0 0 0 83.42 52.56
  L 106.83 52.56
  A 0.18 0.18 0.0 0 1 106.94 52.88"
/>
<path stroke="#b7835b" vector-effect="non-scaling-stroke" d="
  M 44.35 63.18
  Q 44.98 63.22 45.13 62.76
  A 0.61 0.41 63.3 0 0 45.15 62.61
  L 45.02 60.14
  A 1.01 1.00 1.2 0 1 46.12 59.09
  L 46.41 59.12
  A 1.01 1.01 0.0 0 1 47.32 60.23
  L 47.01 63.38
  A 0.36 0.35 6.4 0 0 47.33 63.77
  L 47.60 63.80
  A 0.49 0.49 0.0 0 0 48.13 63.36
  L 48.58 58.75
  A 0.81 0.80 5.2 0 0 47.84 57.87
  Q 46.27 57.74 44.68 57.65
  Q 43.08 57.55 41.51 57.50
  A 0.81 0.80 1.5 0 0 40.67 58.29
  L 40.58 62.92
  A 0.49 0.49 0.0 0 0 41.06 63.42
  L 41.33 63.42
  A 0.36 0.35 0.3 0 0 41.69 63.07
  L 41.75 59.90
  A 1.01 1.01 0.0 0 1 42.79 58.91
  L 43.08 58.91
  A 1.01 1.00 5.5 0 1 44.05 60.08
  L 43.63 62.52
  A 0.61 0.41 -56.6 0 0 43.63 62.67
  Q 43.73 63.15 44.35 63.18"
/>
<path stroke="#b7835b" vector-effect="non-scaling-stroke" d="
  M 146.77 63.22
  A 0.43 0.43 0.0 0 0 147.53 63.59
  C 148.69 61.96 149.15 57.02 145.94 57.50
  C 143.67 57.85 144.05 60.82 143.04 61.79
  Q 142.79 62.03 142.54 62.04
  A 1.03 0.87 87.3 0 1 141.67 61.09
  Q 141.64 60.63 141.99 58.70
  A 0.50 0.50 0.0 0 0 141.06 58.36
  Q 139.59 61.02 141.20 62.86
  A 1.94 1.94 0.0 0 0 144.51 62.16
  L 145.29 59.68
  A 1.02 1.01 47.2 0 1 147.25 59.76
  Q 147.44 60.58 146.77 63.22"
/>
<path stroke="#b7835b" vector-effect="non-scaling-stroke" d="
  M 147.28 71.84
  A 0.46 0.46 0.0 0 0 147.56 71.00
  L 146.55 70.33
  A 0.86 0.86 0.0 0 1 146.18 69.47
  Q 146.43 67.94 146.10 66.87
  C 145.36 64.47 142.15 64.62 140.95 66.41
  Q 140.38 67.28 140.17 70.61
  A 0.76 0.75 3.7 0 0 140.87 71.40
  L 147.28 71.84"
/>
<path stroke="#b7835b" vector-effect="non-scaling-stroke" d="
  M 47.47 70.21
  L 47.79 70.32
  A 0.48 0.48 0.0 0 0 48.41 70.00
  Q 49.07 67.65 47.96 66.18
  A 1.97 1.87 37.5 0 0 44.61 66.53
  Q 44.42 67.05 43.60 69.39
  A 0.77 0.77 0.0 0 1 42.14 69.37
  Q 41.76 68.20 42.07 66.00
  A 0.55 0.55 0.0 0 0 41.64 65.39
  L 41.53 65.37
  A 0.51 0.50 -79.0 0 0 40.93 65.78
  C 40.63 67.47 40.27 70.76 42.55 71.14
  C 45.34 71.62 45.18 68.73 45.60 67.32
  A 0.90 0.89 40.8 0 1 47.27 67.20
  Q 47.75 68.23 47.17 69.49
  A 0.53 0.52 22.8 0 0 47.47 70.21"
/>
<path stroke="#b7835b" vector-effect="non-scaling-stroke" d="
  M 41.98 74.07
  A 0.46 0.46 0.0 0 0 42.02 74.96
  L 43.21 75.22
  A 0.87 0.87 0.0 0 1 43.87 75.89
  Q 44.21 77.41 44.91 78.28
  C 46.49 80.26 49.43 78.93 49.90 76.81
  Q 50.11 75.78 49.07 72.60
  A 0.76 0.76 0.0 0 0 48.12 72.12
  L 41.98 74.07"
/>
<path stroke="#b7835b" vector-effect="non-scaling-stroke" d="
  M 147.1656 75.2130
  A 0.46 0.46 0.0 0 0 146.8383 74.6507
  L 140.2639 72.9137
  A 0.46 0.46 0.0 0 0 139.7017 73.2409
  L 139.5944 73.6470
  A 0.46 0.46 0.0 0 0 139.9217 74.2093
  L 146.4961 75.9463
  A 0.46 0.46 0.0 0 0 147.0583 75.6191
  L 147.1656 75.2130"
/>
<path stroke="#b7835b" vector-effect="non-scaling-stroke" d="
  M 140.91 79.98
  Q 140.58 80.88 140.49 81.13
  A 0.78 0.77 20.9 0 1 139.49 81.57
  L 137.73 80.91
  A 0.54 0.54 0.0 0 0 137.03 81.23
  L 136.92 81.51
  A 0.39 0.38 -69.9 0 0 137.14 82.00
  L 143.82 84.50
  A 0.51 0.51 0.0 0 0 144.47 84.20
  L 144.58 83.91
  A 0.62 0.62 0.0 0 0 144.14 83.09
  Q 142.79 82.78 141.93 82.24
  A 0.82 0.81 -64.0 0 1 141.60 81.27
  Q 141.77 80.80 141.93 80.35
  Q 142.10 79.89 142.26 79.42
  A 0.82 0.81 -76.5 0 1 143.14 78.88
  Q 144.14 79.01 145.38 79.64
  A 0.62 0.62 0.0 0 0 146.24 79.28
  L 146.34 78.99
  A 0.51 0.51 0.0 0 0 146.03 78.34
  L 139.29 76.02
  A 0.39 0.38 -70.6 0 0 138.81 76.26
  L 138.72 76.54
  A 0.54 0.54 0.0 0 0 139.05 77.24
  L 140.83 77.85
  A 0.78 0.77 18.7 0 1 141.31 78.82
  Q 141.23 79.08 140.91 79.98"
/>
<path stroke="#b7835b" vector-effect="non-scaling-stroke" d="
  M 46.78 88.30
  L 48.60 87.25
  A 0.78 0.77 -57.3 0 1 49.05 87.15
  Q 50.73 87.31 52.03 86.09
  Q 53.87 84.36 51.45 80.65
  A 1.25 1.24 61.5 0 0 49.91 80.19
  L 44.25 82.66
  A 0.34 0.33 -26.5 0 0 44.09 83.13
  L 44.36 83.59
  A 0.52 0.52 0.0 0 0 44.95 83.83
  Q 46.95 83.30 47.23 85.46
  A 1.30 1.29 -33.8 0 1 47.07 86.25
  L 46.21 87.73
  A 0.42 0.42 0.0 0 0 46.78 88.30"
/>
<path stroke="#b7835b" vector-effect="non-scaling-stroke" d="
  M 138.85 91.10
  A 0.43 0.42 -79.4 0 0 139.32 91.79
  C 141.11 90.99 143.98 87.01 141.00 85.82
  C 138.90 84.97 137.74 87.69 136.39 88.02
  Q 136.06 88.10 135.84 87.98
  A 1.02 0.86 -62.3 0 1 135.57 86.74
  Q 135.78 86.33 137.04 84.86
  A 0.49 0.49 0.0 0 0 136.42 84.11
  Q 133.84 85.64 134.29 88.01
  A 1.92 1.92 0.0 0 0 137.46 89.07
  L 139.36 87.35
  A 1.00 1.00 0.0 0 1 140.99 88.39
  Q 140.74 89.18 138.85 91.10"
/>
<path stroke="#b7835b" vector-effect="non-scaling-stroke" d="
  M 54.82 92.84
  Q 54.18 91.52 53.04 90.46
  A 0.71 0.70 -58.6 0 1 52.86 89.69
  L 52.99 89.36
  A 0.81 0.81 0.0 0 1 54.18 88.95
  Q 55.40 89.72 56.54 91.90
  A 0.38 0.38 0.0 0 0 57.07 92.06
  L 57.33 91.91
  A 0.39 0.39 0.0 0 0 57.47 91.38
  L 55.58 88.11
  A 1.45 1.44 -29.9 0 0 53.60 87.58
  L 48.97 90.25
  A 0.94 0.93 -30.2 0 0 48.63 91.52
  L 51.06 95.72
  A 0.60 0.60 0.0 0 0 52.02 95.83
  L 52.35 95.48
  A 0.14 0.12 -45.7 0 0 52.36 95.33
  L 50.20 92.30
  A 0.95 0.94 -32.7 0 1 50.50 90.93
  L 51.00 90.64
  A 0.93 0.92 -30.1 0 1 52.26 90.97
  L 53.58 93.26
  A 0.61 0.61 0.0 0 0 54.41 93.49
  L 54.67 93.33
  A 0.37 0.37 0.0 0 0 54.82 92.84"
/>
<path stroke="#b7835b" vector-effect="non-scaling-stroke" d="
  M 133.56 94.02
  Q 131.87 94.08 129.76 93.84
  A 0.96 0.94 -83.8 0 0 128.72 94.69
  Q 128.69 94.97 128.99 95.22
  Q 132.03 97.77 134.12 99.37
  A 0.72 0.72 0.0 0 0 135.10 99.28
  L 135.13 99.24
  A 0.64 0.63 39.2 0 0 135.03 98.30
  L 131.97 96.05
  A 0.40 0.40 0.0 0 1 132.22 95.32
  Q 133.00 95.33 133.75 95.31
  Q 135.44 95.25 137.54 95.50
  A 0.96 0.94 -83.8 0 0 138.59 94.64
  Q 138.62 94.36 138.32 94.11
  Q 135.28 91.56 133.19 89.96
  A 0.72 0.72 0.0 0 0 132.21 90.05
  L 132.18 90.09
  A 0.64 0.63 39.2 0 0 132.28 91.03
  L 135.34 93.28
  A 0.40 0.40 0.0 0 1 135.09 94.02
  Q 134.30 94.00 133.56 94.02"
/>
<path stroke="#b7835b" vector-effect="non-scaling-stroke" d="
  M 54.23 96.92
  A 0.42 0.42 0.0 0 0 53.44 97.15
  C 53.63 99.09 56.50 103.01 58.54 100.58
  C 59.98 98.86 57.78 96.93 57.89 95.56
  Q 57.92 95.22 58.10 95.06
  A 1.01 0.85 45.9 0 1 59.35 95.19
  Q 59.67 95.51 60.66 97.15
  A 0.49 0.49 0.0 0 0 61.56 96.80
  Q 60.92 93.90 58.55 93.59
  A 1.90 1.90 0.0 0 0 56.57 96.24
  L 57.60 98.57
  A 0.99 0.99 0.0 0 1 56.12 99.77
  Q 55.45 99.30 54.23 96.92"
/>
<path stroke="#b7835b" vector-effect="non-scaling-stroke" d="
  M 131.24 101.32
  A 4.03 4.03 0.0 0 0 127.21 97.29
  A 4.03 4.03 0.0 0 0 123.18 101.32
  A 4.03 4.03 0.0 0 0 127.21 105.35
  A 4.03 4.03 0.0 0 0 131.24 101.32"
/>
<path stroke="#b7835b" vector-effect="non-scaling-stroke" d="
  M 59.90 102.69
  A 0.42 0.42 0.0 0 0 59.15 103.04
  C 59.65 104.93 63.10 108.37 64.74 105.64
  C 65.90 103.71 63.42 102.14 63.31 100.77
  Q 63.29 100.43 63.44 100.24
  A 1.01 0.85 36.9 0 1 64.70 100.17
  Q 65.07 100.44 66.31 101.91
  A 0.49 0.49 0.0 0 0 67.14 101.42
  Q 66.05 98.65 63.66 98.71
  A 1.90 1.90 0.0 0 0 62.11 101.65
  L 63.50 103.79
  A 1.00 0.99 -3.2 0 1 62.22 105.22
  Q 61.48 104.85 59.90 102.69"
/>
<path stroke="#b7835b" vector-effect="non-scaling-stroke" d="
  M 120.7774 102.1397
  A 0.69 0.69 0.0 0 0 119.8237 101.9335
  L 119.8068 101.9443
  A 0.69 0.69 0.0 0 0 119.6006 102.8981
  L 123.2626 108.5803
  A 0.69 0.69 0.0 0 0 124.2163 108.7865
  L 124.2332 108.7757
  A 0.69 0.69 0.0 0 0 124.4394 107.8219
  L 120.7774 102.1397"
/>
<path stroke="#b7835b" vector-effect="non-scaling-stroke" d="
  M 74.59 107.38
  A 4.01 4.01 0.0 0 0 70.58 103.37
  A 4.01 4.01 0.0 0 0 66.57 107.38
  A 4.01 4.01 0.0 0 0 70.58 111.39
  A 4.01 4.01 0.0 0 0 74.59 107.38"
/>
<path stroke="#b7835b" vector-effect="non-scaling-stroke" d="
  M 115.68 112.60
  A 0.46 0.46 0.0 0 0 116.54 112.37
  L 116.54 111.15
  A 0.87 0.87 0.0 0 1 117.05 110.36
  Q 118.46 109.71 119.17 108.84
  C 120.76 106.87 118.84 104.28 116.67 104.28
  Q 115.62 104.29 112.73 105.98
  A 0.76 0.76 0.0 0 0 112.46 107.01
  L 115.68 112.60"
/>
<path stroke="#b7835b" vector-effect="non-scaling-stroke" d="
  M 107.92 111.12
  Q 107.17 111.33 106.82 110.92
  Q 105.40 109.30 104.19 108.70
  A 0.63 0.63 0.0 0 0 103.30 109.43
  L 105.09 116.05
  A 0.47 0.47 0.0 0 0 105.66 116.38
  L 105.95 116.30
  A 0.66 0.65 -19.2 0 0 106.39 115.41
  Q 105.45 113.24 105.40 111.59
  A 0.12 0.11 16.9 0 1 105.58 111.50
  Q 108.47 113.57 108.61 113.54
  Q 108.74 113.50 110.12 110.22
  A 0.12 0.11 -48.3 0 1 110.32 110.20
  Q 111.14 111.64 111.47 113.98
  A 0.66 0.65 -12.2 0 0 112.31 114.51
  L 112.60 114.42
  A 0.47 0.47 0.0 0 0 112.92 113.84
  L 110.99 107.26
  A 0.63 0.63 0.0 0 0 109.85 107.11
  Q 109.13 108.25 108.77 110.37
  Q 108.68 110.91 107.92 111.12"
/>
<path stroke="#b7835b" vector-effect="non-scaling-stroke" d="
  M 78.19 111.02
  C 77.41 114.55 80.74 116.78 83.79 115.53
  A 0.39 0.39 0.0 0 0 83.66 114.78
  Q 78.95 114.50 79.65 111.34
  Q 80.35 108.17 84.74 109.91
  A 0.39 0.39 0.0 0 0 85.17 109.28
  C 82.93 106.86 78.98 107.48 78.19 111.02"
/>
<path stroke="#b7835b" vector-effect="non-scaling-stroke" d="
  M 91.58 112.13
  A 2.11 2.00 59.2 0 1 88.12 111.16
  Q 88.07 110.97 88.15 109.58
  A 0.46 0.46 0.0 0 0 87.73 109.09
  L 87.43 109.06
  A 0.66 0.65 -83.9 0 0 86.71 109.65
  L 86.07 116.20
  A 0.58 0.57 16.6 0 0 86.38 116.77
  L 86.64 116.89
  A 0.60 0.60 0.0 0 0 87.50 116.41
  L 87.73 114.07
  A 0.51 0.51 0.0 0 1 88.29 113.61
  L 90.87 113.86
  A 0.57 0.57 0.0 0 1 91.38 114.49
  L 91.14 116.96
  A 0.37 0.36 6.3 0 0 91.47 117.36
  L 91.79 117.39
  A 0.74 0.74 0.0 0 0 92.61 116.72
  L 93.26 110.13
  A 0.63 0.63 0.0 0 0 92.69 109.44
  L 92.42 109.41
  A 0.56 0.56 0.0 0 0 91.81 110.00
  Q 91.92 111.75 91.58 112.13"
/>
<path stroke="#b7835b" vector-effect="non-scaling-stroke" d="
  M 95.55 117.28
  Q 97.57 115.74 100.17 115.84
  A 0.75 0.74 65.0 0 1 100.60 116.00
  L 101.90 117.03
  A 0.62 0.62 0.0 0 0 102.82 116.23
  L 98.87 109.38
  A 0.74 0.74 0.0 0 0 97.54 109.49
  L 94.83 116.75
  A 0.47 0.46 -8.6 0 0 95.55 117.28"
/>
<path stroke="#b7835b" vector-effect="non-scaling-stroke" d="
  M 85.4467 27.3608
  A 2.94 2.69 -88.7 0 0 82.6907 30.2390
  A 2.94 2.69 -88.7 0 0 85.3133 33.2392
  A 2.94 2.69 -88.7 0 0 88.0693 30.3610
  A 2.94 2.69 -88.7 0 0 85.4467 27.3608"
/>
<path stroke="#b7835b" vector-effect="non-scaling-stroke" d="
  M 95.76 27.94
  L 95.67 30.14
  A 0.76 0.76 0.0 0 0 96.40 30.93
  L 97.13 30.95
  A 2.17 1.64 2.3 0 0 99.36 29.40
  L 99.38 28.96
  A 2.17 1.64 2.3 0 0 97.27 27.24
  L 96.55 27.21
  A 0.76 0.76 0.0 0 0 95.76 27.94"
/>
<path stroke="#bb8d67" vector-effect="non-scaling-stroke" d="
  M 117.57 27.92
  L 117.55 32.54
  A 0.59 0.59 0.0 0 0 118.13 33.13
  L 118.31 33.13
  A 3.23 2.83 0.3 0 0 121.56 30.32
  L 121.56 30.18
  A 3.23 2.83 0.3 0 0 118.35 27.33
  L 118.17 27.33
  A 0.59 0.59 0.0 0 0 117.57 27.92"
/>
<path stroke="#bb8d67" vector-effect="non-scaling-stroke" d="
  M 121.62 57.09
  A 0.26 0.26 0.0 0 0 121.27 56.84
  C 115.15 58.98 106.78 61.69 103.23 66.89
  C 102.01 68.68 101.58 71.12 100.85 73.37
  C 99.35 77.95 96.04 79.94 91.69 81.45
  C 88.08 82.70 86.44 85.27 84.90 88.80
  A 0.67 0.67 0.0 0 0 85.34 89.72
  Q 91.49 91.42 98.41 90.73
  C 106.28 89.95 112.25 86.42 116.09 79.55
  Q 121.71 69.46 121.62 57.09"
/>
<path stroke="#b7835b" vector-effect="non-scaling-stroke" d="
  M 141.66 70.03
  L 144.82 70.22
  A 0.31 0.31 0.0 0 0 145.15 69.93
  L 145.18 69.34
  A 2.68 1.82 -86.5 0 0 143.53 66.56
  L 143.39 66.55
  A 2.68 1.82 -86.5 0 0 141.41 69.11
  L 141.37 69.70
  A 0.31 0.31 0.0 0 0 141.66 70.03"
/>
<path stroke="#b7835b" vector-effect="non-scaling-stroke" d="
  M 48.90 75.81
  A 2.02 2.02 0.0 0 0 46.88 73.79
  A 2.02 2.02 0.0 0 0 44.86 75.81
  A 2.02 2.02 0.0 0 0 46.88 77.83
  A 2.02 2.02 0.0 0 0 48.90 75.81"
/>
<path stroke="#b7835b" vector-effect="non-scaling-stroke" d="
  M 47.5700 83.4100
  A 2.11 1.88 -172.1 0 0 49.4016 85.5622
  A 2.11 1.88 -172.1 0 0 51.7500 83.9900
  A 2.11 1.88 -172.1 0 0 49.9184 81.8378
  A 2.11 1.88 -172.1 0 0 47.5700 83.4100"
/>
<path stroke="#b7835b" vector-effect="non-scaling-stroke" d="
  M 125.0000 99.7979
  A 2.69 2.54 -144.5 0 0 125.7150 103.4279
  A 2.69 2.54 -144.5 0 0 129.3800 102.9221
  A 2.69 2.54 -144.5 0 0 128.6650 99.2921
  A 2.69 2.54 -144.5 0 0 125.0000 99.7979"
/>
<path stroke="#b7835b" vector-effect="non-scaling-stroke" d="
  M 73.25 107.27
  A 2.69 2.69 0.0 0 0 70.56 104.58
  A 2.69 2.69 0.0 0 0 67.87 107.27
  A 2.69 2.69 0.0 0 0 70.56 109.96
  A 2.69 2.69 0.0 0 0 73.25 107.27"
/>
<path stroke="#b7835b" vector-effect="non-scaling-stroke" d="
  M 114.33 107.59
  L 115.66 109.35
  A 0.76 0.76 0.0 0 0 116.72 109.50
  L 117.15 109.18
  A 2.33 1.75 -37.1 0 0 117.95 106.38
  L 117.82 106.20
  A 2.33 1.75 -37.1 0 0 114.90 106.21
  L 114.48 106.53
  A 0.76 0.76 0.0 0 0 114.33 107.59"
/>
<path stroke="#b7835b" vector-effect="non-scaling-stroke" d="
  M 97.87 114.88
  L 99.54 114.68
  A 0.45 0.45 0.0 0 0 99.93 114.18
  L 99.91 114.00
  A 2.53 1.23 83.3 0 0 98.40 111.63
  L 98.28 111.65
  A 2.53 1.23 83.3 0 0 97.35 114.30
  L 97.37 114.48
  A 0.45 0.45 0.0 0 0 97.87 114.88"
/>
</g>
<path fill="#decca6" d="
  M 190.00 0.00
  L 190.00 141.00
  L 0.00 141.00
  L 0.00 0.00
  L 190.00 0.00
  Z
  M 71.65 29.06
  Q 71.95 29.06 73.27 34.47
  A 1.55 1.53 10.6 0 0 73.88 35.35
  Q 74.84 36.03 76.23 35.44
  A 0.99 0.98 -4.2 0 0 76.82 34.76
  L 78.94 26.06
  A 1.04 1.04 0.0 0 0 78.18 24.80
  L 77.92 24.74
  A 1.26 1.26 0.0 0 0 76.40 25.66
  L 75.13 30.85
  A 0.39 0.38 45.6 0 1 74.38 30.84
  Q 73.57 27.23 73.18 25.62
  Q 73.07 25.17 72.60 24.94
  Q 72.39 24.83 71.66 24.83
  Q 70.92 24.83 70.71 24.93
  Q 70.24 25.16 70.13 25.61
  Q 69.73 27.22 68.91 30.83
  A 0.39 0.38 -45.4 0 1 68.16 30.84
  L 66.91 25.64
  A 1.26 1.26 0.0 0 0 65.39 24.72
  L 65.13 24.77
  A 1.04 1.04 0.0 0 0 64.37 26.03
  L 66.45 34.74
  A 0.99 0.98 4.5 0 0 67.04 35.42
  Q 68.43 36.02 69.39 35.34
  A 1.55 1.53 -10.4 0 0 70.00 34.46
  Q 71.35 29.05 71.65 29.06
  Z
  M 91.00 30.23
  A 5.56 5.56 0.0 0 0 85.44 24.67
  A 5.56 5.56 0.0 0 0 79.88 30.23
  A 5.56 5.56 0.0 0 0 85.44 35.79
  A 5.56 5.56 0.0 0 0 91.00 30.23
  Z
  M 101.71 35.81
  A 0.59 0.58 75.7 0 0 102.23 34.93
  L 101.38 33.44
  A 1.21 1.21 0.0 0 1 101.30 32.36
  C 101.67 31.40 102.42 30.03 102.30 28.78
  C 101.87 24.29 96.47 24.55 93.42 24.98
  A 0.72 0.71 -4.9 0 0 92.80 25.71
  Q 93.02 31.68 92.85 34.47
  A 1.50 1.36 -23.7 0 0 95.40 35.33
  Q 95.94 34.75 95.87 34.13
  A 1.23 1.08 30.4 0 1 98.10 33.70
  Q 99.28 35.75 101.71 35.81
  Z
  M 113.15 34.79
  L 113.15 34.49
  A 1.46 1.45 90.0 0 0 111.70 33.03
  L 107.62 33.03
  A 0.48 0.48 0.0 0 1 107.14 32.55
  L 107.14 25.71
  A 0.94 0.93 -90.0 0 0 106.21 24.77
  L 105.12 24.77
  A 0.88 0.88 0.0 0 0 104.24 25.65
  L 104.24 35.05
  A 0.54 0.53 0.0 0 0 104.78 35.58
  L 112.36 35.58
  A 0.79 0.79 0.0 0 0 113.15 34.79
  Z
  M 114.57 25.41
  L 114.51 35.03
  A 0.58 0.58 0.0 0 0 115.09 35.62
  L 118.75 35.64
  A 5.94 5.18 0.3 0 0 124.72 30.49
  L 124.72 30.07
  A 5.94 5.18 0.3 0 0 118.81 24.86
  L 115.15 24.84
  A 0.58 0.58 0.0 0 0 114.57 25.41
  Z
  M 106.94 52.88
  Q 106.17 53.44 103.80 54.79
  Q 94.40 60.17 92.27 70.58
  A 2.45 2.44 88.7 0 1 90.49 72.45
  Q 81.46 74.77 77.21 83.88
  A 0.88 0.87 38.0 0 1 75.74 84.06
  Q 67.47 73.99 67.45 60.39
  A 0.42 0.41 90.0 0 0 67.04 59.97
  L 58.49 59.97
  A 0.29 0.28 -1.0 0 0 58.20 60.26
  C 58.50 79.46 68.30 96.61 88.46 99.39
  C 101.26 101.15 114.82 97.49 122.25 86.74
  C 130.57 74.71 131.99 58.83 130.22 44.42
  A 0.74 0.73 -3.5 0 0 129.49 43.78
  L 83.33 43.78
  A 0.46 0.45 -90.0 0 0 82.88 44.24
  L 82.88 52.02
  A 0.54 0.54 0.0 0 0 83.42 52.56
  L 106.83 52.56
  A 0.18 0.18 0.0 0 1 106.94 52.88
  Z
  M 44.35 63.18
  Q 44.98 63.22 45.13 62.76
  A 0.61 0.41 63.3 0 0 45.15 62.61
  L 45.02 60.14
  A 1.01 1.00 1.2 0 1 46.12 59.09
  L 46.41 59.12
  A 1.01 1.01 0.0 0 1 47.32 60.23
  L 47.01 63.38
  A 0.36 0.35 6.4 0 0 47.33 63.77
  L 47.60 63.80
  A 0.49 0.49 0.0 0 0 48.13 63.36
  L 48.58 58.75
  A 0.81 0.80 5.2 0 0 47.84 57.87
  Q 46.27 57.74 44.68 57.65
  Q 43.08 57.55 41.51 57.50
  A 0.81 0.80 1.5 0 0 40.67 58.29
  L 40.58 62.92
  A 0.49 0.49 0.0 0 0 41.06 63.42
  L 41.33 63.42
  A 0.36 0.35 0.3 0 0 41.69 63.07
  L 41.75 59.90
  A 1.01 1.01 0.0 0 1 42.79 58.91
  L 43.08 58.91
  A 1.01 1.00 5.5 0 1 44.05 60.08
  L 43.63 62.52
  A 0.61 0.41 -56.6 0 0 43.63 62.67
  Q 43.73 63.15 44.35 63.18
  Z
  M 146.77 63.22
  A 0.43 0.43 0.0 0 0 147.53 63.59
  C 148.69 61.96 149.15 57.02 145.94 57.50
  C 143.67 57.85 144.05 60.82 143.04 61.79
  Q 142.79 62.03 142.54 62.04
  A 1.03 0.87 87.3 0 1 141.67 61.09
  Q 141.64 60.63 141.99 58.70
  A 0.50 0.50 0.0 0 0 141.06 58.36
  Q 139.59 61.02 141.20 62.86
  A 1.94 1.94 0.0 0 0 144.51 62.16
  L 145.29 59.68
  A 1.02 1.01 47.2 0 1 147.25 59.76
  Q 147.44 60.58 146.77 63.22
  Z
  M 147.28 71.84
  A 0.46 0.46 0.0 0 0 147.56 71.00
  L 146.55 70.33
  A 0.86 0.86 0.0 0 1 146.18 69.47
  Q 146.43 67.94 146.10 66.87
  C 145.36 64.47 142.15 64.62 140.95 66.41
  Q 140.38 67.28 140.17 70.61
  A 0.76 0.75 3.7 0 0 140.87 71.40
  L 147.28 71.84
  Z
  M 47.47 70.21
  L 47.79 70.32
  A 0.48 0.48 0.0 0 0 48.41 70.00
  Q 49.07 67.65 47.96 66.18
  A 1.97 1.87 37.5 0 0 44.61 66.53
  Q 44.42 67.05 43.60 69.39
  A 0.77 0.77 0.0 0 1 42.14 69.37
  Q 41.76 68.20 42.07 66.00
  A 0.55 0.55 0.0 0 0 41.64 65.39
  L 41.53 65.37
  A 0.51 0.50 -79.0 0 0 40.93 65.78
  C 40.63 67.47 40.27 70.76 42.55 71.14
  C 45.34 71.62 45.18 68.73 45.60 67.32
  A 0.90 0.89 40.8 0 1 47.27 67.20
  Q 47.75 68.23 47.17 69.49
  A 0.53 0.52 22.8 0 0 47.47 70.21
  Z
  M 41.98 74.07
  A 0.46 0.46 0.0 0 0 42.02 74.96
  L 43.21 75.22
  A 0.87 0.87 0.0 0 1 43.87 75.89
  Q 44.21 77.41 44.91 78.28
  C 46.49 80.26 49.43 78.93 49.90 76.81
  Q 50.11 75.78 49.07 72.60
  A 0.76 0.76 0.0 0 0 48.12 72.12
  L 41.98 74.07
  Z
  M 147.1656 75.2130
  A 0.46 0.46 0.0 0 0 146.8383 74.6507
  L 140.2639 72.9137
  A 0.46 0.46 0.0 0 0 139.7017 73.2409
  L 139.5944 73.6470
  A 0.46 0.46 0.0 0 0 139.9217 74.2093
  L 146.4961 75.9463
  A 0.46 0.46 0.0 0 0 147.0583 75.6191
  L 147.1656 75.2130
  Z
  M 140.91 79.98
  Q 140.58 80.88 140.49 81.13
  A 0.78 0.77 20.9 0 1 139.49 81.57
  L 137.73 80.91
  A 0.54 0.54 0.0 0 0 137.03 81.23
  L 136.92 81.51
  A 0.39 0.38 -69.9 0 0 137.14 82.00
  L 143.82 84.50
  A 0.51 0.51 0.0 0 0 144.47 84.20
  L 144.58 83.91
  A 0.62 0.62 0.0 0 0 144.14 83.09
  Q 142.79 82.78 141.93 82.24
  A 0.82 0.81 -64.0 0 1 141.60 81.27
  Q 141.77 80.80 141.93 80.35
  Q 142.10 79.89 142.26 79.42
  A 0.82 0.81 -76.5 0 1 143.14 78.88
  Q 144.14 79.01 145.38 79.64
  A 0.62 0.62 0.0 0 0 146.24 79.28
  L 146.34 78.99
  A 0.51 0.51 0.0 0 0 146.03 78.34
  L 139.29 76.02
  A 0.39 0.38 -70.6 0 0 138.81 76.26
  L 138.72 76.54
  A 0.54 0.54 0.0 0 0 139.05 77.24
  L 140.83 77.85
  A 0.78 0.77 18.7 0 1 141.31 78.82
  Q 141.23 79.08 140.91 79.98
  Z
  M 46.78 88.30
  L 48.60 87.25
  A 0.78 0.77 -57.3 0 1 49.05 87.15
  Q 50.73 87.31 52.03 86.09
  Q 53.87 84.36 51.45 80.65
  A 1.25 1.24 61.5 0 0 49.91 80.19
  L 44.25 82.66
  A 0.34 0.33 -26.5 0 0 44.09 83.13
  L 44.36 83.59
  A 0.52 0.52 0.0 0 0 44.95 83.83
  Q 46.95 83.30 47.23 85.46
  A 1.30 1.29 -33.8 0 1 47.07 86.25
  L 46.21 87.73
  A 0.42 0.42 0.0 0 0 46.78 88.30
  Z
  M 138.85 91.10
  A 0.43 0.42 -79.4 0 0 139.32 91.79
  C 141.11 90.99 143.98 87.01 141.00 85.82
  C 138.90 84.97 137.74 87.69 136.39 88.02
  Q 136.06 88.10 135.84 87.98
  A 1.02 0.86 -62.3 0 1 135.57 86.74
  Q 135.78 86.33 137.04 84.86
  A 0.49 0.49 0.0 0 0 136.42 84.11
  Q 133.84 85.64 134.29 88.01
  A 1.92 1.92 0.0 0 0 137.46 89.07
  L 139.36 87.35
  A 1.00 1.00 0.0 0 1 140.99 88.39
  Q 140.74 89.18 138.85 91.10
  Z
  M 54.82 92.84
  Q 54.18 91.52 53.04 90.46
  A 0.71 0.70 -58.6 0 1 52.86 89.69
  L 52.99 89.36
  A 0.81 0.81 0.0 0 1 54.18 88.95
  Q 55.40 89.72 56.54 91.90
  A 0.38 0.38 0.0 0 0 57.07 92.06
  L 57.33 91.91
  A 0.39 0.39 0.0 0 0 57.47 91.38
  L 55.58 88.11
  A 1.45 1.44 -29.9 0 0 53.60 87.58
  L 48.97 90.25
  A 0.94 0.93 -30.2 0 0 48.63 91.52
  L 51.06 95.72
  A 0.60 0.60 0.0 0 0 52.02 95.83
  L 52.35 95.48
  A 0.14 0.12 -45.7 0 0 52.36 95.33
  L 50.20 92.30
  A 0.95 0.94 -32.7 0 1 50.50 90.93
  L 51.00 90.64
  A 0.93 0.92 -30.1 0 1 52.26 90.97
  L 53.58 93.26
  A 0.61 0.61 0.0 0 0 54.41 93.49
  L 54.67 93.33
  A 0.37 0.37 0.0 0 0 54.82 92.84
  Z
  M 133.56 94.02
  Q 131.87 94.08 129.76 93.84
  A 0.96 0.94 -83.8 0 0 128.72 94.69
  Q 128.69 94.97 128.99 95.22
  Q 132.03 97.77 134.12 99.37
  A 0.72 0.72 0.0 0 0 135.10 99.28
  L 135.13 99.24
  A 0.64 0.63 39.2 0 0 135.03 98.30
  L 131.97 96.05
  A 0.40 0.40 0.0 0 1 132.22 95.32
  Q 133.00 95.33 133.75 95.31
  Q 135.44 95.25 137.54 95.50
  A 0.96 0.94 -83.8 0 0 138.59 94.64
  Q 138.62 94.36 138.32 94.11
  Q 135.28 91.56 133.19 89.96
  A 0.72 0.72 0.0 0 0 132.21 90.05
  L 132.18 90.09
  A 0.64 0.63 39.2 0 0 132.28 91.03
  L 135.34 93.28
  A 0.40 0.40 0.0 0 1 135.09 94.02
  Q 134.30 94.00 133.56 94.02
  Z
  M 54.23 96.92
  A 0.42 0.42 0.0 0 0 53.44 97.15
  C 53.63 99.09 56.50 103.01 58.54 100.58
  C 59.98 98.86 57.78 96.93 57.89 95.56
  Q 57.92 95.22 58.10 95.06
  A 1.01 0.85 45.9 0 1 59.35 95.19
  Q 59.67 95.51 60.66 97.15
  A 0.49 0.49 0.0 0 0 61.56 96.80
  Q 60.92 93.90 58.55 93.59
  A 1.90 1.90 0.0 0 0 56.57 96.24
  L 57.60 98.57
  A 0.99 0.99 0.0 0 1 56.12 99.77
  Q 55.45 99.30 54.23 96.92
  Z
  M 131.24 101.32
  A 4.03 4.03 0.0 0 0 127.21 97.29
  A 4.03 4.03 0.0 0 0 123.18 101.32
  A 4.03 4.03 0.0 0 0 127.21 105.35
  A 4.03 4.03 0.0 0 0 131.24 101.32
  Z
  M 59.90 102.69
  A 0.42 0.42 0.0 0 0 59.15 103.04
  C 59.65 104.93 63.10 108.37 64.74 105.64
  C 65.90 103.71 63.42 102.14 63.31 100.77
  Q 63.29 100.43 63.44 100.24
  A 1.01 0.85 36.9 0 1 64.70 100.17
  Q 65.07 100.44 66.31 101.91
  A 0.49 0.49 0.0 0 0 67.14 101.42
  Q 66.05 98.65 63.66 98.71
  A 1.90 1.90 0.0 0 0 62.11 101.65
  L 63.50 103.79
  A 1.00 0.99 -3.2 0 1 62.22 105.22
  Q 61.48 104.85 59.90 102.69
  Z
  M 120.7774 102.1397
  A 0.69 0.69 0.0 0 0 119.8237 101.9335
  L 119.8068 101.9443
  A 0.69 0.69 0.0 0 0 119.6006 102.8981
  L 123.2626 108.5803
  A 0.69 0.69 0.0 0 0 124.2163 108.7865
  L 124.2332 108.7757
  A 0.69 0.69 0.0 0 0 124.4394 107.8219
  L 120.7774 102.1397
  Z
  M 74.59 107.38
  A 4.01 4.01 0.0 0 0 70.58 103.37
  A 4.01 4.01 0.0 0 0 66.57 107.38
  A 4.01 4.01 0.0 0 0 70.58 111.39
  A 4.01 4.01 0.0 0 0 74.59 107.38
  Z
  M 115.68 112.60
  A 0.46 0.46 0.0 0 0 116.54 112.37
  L 116.54 111.15
  A 0.87 0.87 0.0 0 1 117.05 110.36
  Q 118.46 109.71 119.17 108.84
  C 120.76 106.87 118.84 104.28 116.67 104.28
  Q 115.62 104.29 112.73 105.98
  A 0.76 0.76 0.0 0 0 112.46 107.01
  L 115.68 112.60
  Z
  M 107.92 111.12
  Q 107.17 111.33 106.82 110.92
  Q 105.40 109.30 104.19 108.70
  A 0.63 0.63 0.0 0 0 103.30 109.43
  L 105.09 116.05
  A 0.47 0.47 0.0 0 0 105.66 116.38
  L 105.95 116.30
  A 0.66 0.65 -19.2 0 0 106.39 115.41
  Q 105.45 113.24 105.40 111.59
  A 0.12 0.11 16.9 0 1 105.58 111.50
  Q 108.47 113.57 108.61 113.54
  Q 108.74 113.50 110.12 110.22
  A 0.12 0.11 -48.3 0 1 110.32 110.20
  Q 111.14 111.64 111.47 113.98
  A 0.66 0.65 -12.2 0 0 112.31 114.51
  L 112.60 114.42
  A 0.47 0.47 0.0 0 0 112.92 113.84
  L 110.99 107.26
  A 0.63 0.63 0.0 0 0 109.85 107.11
  Q 109.13 108.25 108.77 110.37
  Q 108.68 110.91 107.92 111.12
  Z
  M 78.19 111.02
  C 77.41 114.55 80.74 116.78 83.79 115.53
  A 0.39 0.39 0.0 0 0 83.66 114.78
  Q 78.95 114.50 79.65 111.34
  Q 80.35 108.17 84.74 109.91
  A 0.39 0.39 0.0 0 0 85.17 109.28
  C 82.93 106.86 78.98 107.48 78.19 111.02
  Z
  M 91.58 112.13
  A 2.11 2.00 59.2 0 1 88.12 111.16
  Q 88.07 110.97 88.15 109.58
  A 0.46 0.46 0.0 0 0 87.73 109.09
  L 87.43 109.06
  A 0.66 0.65 -83.9 0 0 86.71 109.65
  L 86.07 116.20
  A 0.58 0.57 16.6 0 0 86.38 116.77
  L 86.64 116.89
  A 0.60 0.60 0.0 0 0 87.50 116.41
  L 87.73 114.07
  A 0.51 0.51 0.0 0 1 88.29 113.61
  L 90.87 113.86
  A 0.57 0.57 0.0 0 1 91.38 114.49
  L 91.14 116.96
  A 0.37 0.36 6.3 0 0 91.47 117.36
  L 91.79 117.39
  A 0.74 0.74 0.0 0 0 92.61 116.72
  L 93.26 110.13
  A 0.63 0.63 0.0 0 0 92.69 109.44
  L 92.42 109.41
  A 0.56 0.56 0.0 0 0 91.81 110.00
  Q 91.92 111.75 91.58 112.13
  Z
  M 95.55 117.28
  Q 97.57 115.74 100.17 115.84
  A 0.75 0.74 65.0 0 1 100.60 116.00
  L 101.90 117.03
  A 0.62 0.62 0.0 0 0 102.82 116.23
  L 98.87 109.38
  A 0.74 0.74 0.0 0 0 97.54 109.49
  L 94.83 116.75
  A 0.47 0.46 -8.6 0 0 95.55 117.28
  Z"
/>
<path fill="#903910" d="
  M 71.66 24.83
  Q 72.39 24.83 72.60 24.94
  Q 73.07 25.17 73.18 25.62
  Q 73.57 27.23 74.38 30.84
  A 0.39 0.38 45.6 0 0 75.13 30.85
  L 76.40 25.66
  A 1.26 1.26 0.0 0 1 77.92 24.74
  L 78.18 24.80
  A 1.04 1.04 0.0 0 1 78.94 26.06
  L 76.82 34.76
  A 0.99 0.98 -4.2 0 1 76.23 35.44
  Q 74.84 36.03 73.88 35.35
  A 1.55 1.53 10.6 0 1 73.27 34.47
  Q 71.95 29.06 71.65 29.06
  Q 71.35 29.05 70.00 34.46
  A 1.55 1.53 -10.4 0 1 69.39 35.34
  Q 68.43 36.02 67.04 35.42
  A 0.99 0.98 4.5 0 1 66.45 34.74
  L 64.37 26.03
  A 1.04 1.04 0.0 0 1 65.13 24.77
  L 65.39 24.72
  A 1.26 1.26 0.0 0 1 66.91 25.64
  L 68.16 30.84
  A 0.39 0.38 -45.4 0 0 68.91 30.83
  Q 69.73 27.22 70.13 25.61
  Q 70.24 25.16 70.71 24.93
  Q 70.92 24.83 71.66 24.83
  Z"
/>
<path fill="#903910" d="
  M 91.00 30.23
  A 5.56 5.56 0.0 0 1 85.44 35.79
  A 5.56 5.56 0.0 0 1 79.88 30.23
  A 5.56 5.56 0.0 0 1 85.44 24.67
  A 5.56 5.56 0.0 0 1 91.00 30.23
  Z
  M 85.4467 27.3608
  A 2.94 2.69 -88.7 0 0 82.6907 30.2390
  A 2.94 2.69 -88.7 0 0 85.3133 33.2392
  A 2.94 2.69 -88.7 0 0 88.0693 30.3610
  A 2.94 2.69 -88.7 0 0 85.4467 27.3608
  Z"
/>
<path fill="#903910" d="
  M 101.71 35.81
  Q 99.28 35.75 98.10 33.70
  A 1.23 1.08 30.4 0 0 95.87 34.13
  Q 95.94 34.75 95.40 35.33
  A 1.50 1.36 -23.7 0 1 92.85 34.47
  Q 93.02 31.68 92.80 25.71
  A 0.72 0.71 -4.9 0 1 93.42 24.98
  C 96.47 24.55 101.87 24.29 102.30 28.78
  C 102.42 30.03 101.67 31.40 101.30 32.36
  A 1.21 1.21 0.0 0 0 101.38 33.44
  L 102.23 34.93
  A 0.59 0.58 75.7 0 1 101.71 35.81
  Z
  M 95.76 27.94
  L 95.67 30.14
  A 0.76 0.76 0.0 0 0 96.40 30.93
  L 97.13 30.95
  A 2.17 1.64 2.3 0 0 99.36 29.40
  L 99.38 28.96
  A 2.17 1.64 2.3 0 0 97.27 27.24
  L 96.55 27.21
  A 0.76 0.76 0.0 0 0 95.76 27.94
  Z"
/>
<path fill="#903910" d="
  M 112.36 35.58
  L 104.78 35.58
  A 0.54 0.53 -0.0 0 1 104.24 35.05
  L 104.24 25.65
  A 0.88 0.88 0.0 0 1 105.12 24.77
  L 106.21 24.77
  A 0.94 0.93 -90.0 0 1 107.14 25.71
  L 107.14 32.55
  A 0.48 0.48 0.0 0 0 107.62 33.03
  L 111.70 33.03
  A 1.46 1.45 -90.0 0 1 113.15 34.49
  L 113.15 34.79
  A 0.79 0.79 0.0 0 1 112.36 35.58
  Z"
/>
<path fill="#974d28" d="
  M 114.57 25.41
  A 0.58 0.58 0.0 0 1 115.15 24.84
  L 118.81 24.86
  A 5.94 5.18 0.3 0 1 124.72 30.07
  L 124.72 30.49
  A 5.94 5.18 0.3 0 1 118.75 35.64
  L 115.09 35.62
  A 0.58 0.58 0.0 0 1 114.51 35.03
  L 114.57 25.41
  Z
  M 117.57 27.92
  L 117.55 32.54
  A 0.59 0.59 0.0 0 0 118.13 33.13
  L 118.31 33.13
  A 3.23 2.83 0.3 0 0 121.56 30.32
  L 121.56 30.18
  A 3.23 2.83 0.3 0 0 118.35 27.33
  L 118.17 27.33
  A 0.59 0.59 0.0 0 0 117.57 27.92
  Z"
/>
<ellipse fill="#decca6" cx="0.00" cy="0.00" transform="translate(85.38,30.30) rotate(-88.7)" rx="2.94" ry="2.69"/>
<path fill="#decca6" d="
  M 95.76 27.94
  A 0.76 0.76 0.0 0 1 96.55 27.21
  L 97.27 27.24
  A 2.17 1.64 2.3 0 1 99.38 28.96
  L 99.36 29.40
  A 2.17 1.64 2.3 0 1 97.13 30.95
  L 96.40 30.93
  A 0.76 0.76 0.0 0 1 95.67 30.14
  L 95.76 27.94
  Z"
/>
<path fill="#decca6" d="
  M 117.57 27.92
  A 0.59 0.59 0.0 0 1 118.17 27.33
  L 118.35 27.33
  A 3.23 2.83 0.3 0 1 121.56 30.18
  L 121.56 30.32
  A 3.23 2.83 0.3 0 1 118.31 33.13
  L 118.13 33.13
  A 0.59 0.59 0.0 0 1 117.55 32.54
  L 117.57 27.92
  Z"
/>
<path fill="#974d28" d="
  M 106.94 52.88
  A 0.18 0.18 0.0 0 0 106.83 52.56
  L 83.42 52.56
  A 0.54 0.54 0.0 0 1 82.88 52.02
  L 82.88 44.24
  A 0.46 0.45 -90.0 0 1 83.33 43.78
  L 129.49 43.78
  A 0.74 0.73 -3.5 0 1 130.22 44.42
  C 131.99 58.83 130.57 74.71 122.25 86.74
  C 114.82 97.49 101.26 101.15 88.46 99.39
  C 68.30 96.61 58.50 79.46 58.20 60.26
  A 0.29 0.28 -1.0 0 1 58.49 59.97
  L 67.04 59.97
  A 0.42 0.41 90.0 0 1 67.45 60.39
  Q 67.47 73.99 75.74 84.06
  A 0.88 0.87 38.0 0 0 77.21 83.88
  Q 81.46 74.77 90.49 72.45
  A 2.45 2.44 88.7 0 0 92.27 70.58
  Q 94.40 60.17 103.80 54.79
  Q 106.17 53.44 106.94 52.88
  Z
  M 121.62 57.09
  A 0.26 0.26 0.0 0 0 121.27 56.84
  C 115.15 58.98 106.78 61.69 103.23 66.89
  C 102.01 68.68 101.58 71.12 100.85 73.37
  C 99.35 77.95 96.04 79.94 91.69 81.45
  C 88.08 82.70 86.44 85.27 84.90 88.80
  A 0.67 0.67 0.0 0 0 85.34 89.72
  Q 91.49 91.42 98.41 90.73
  C 106.28 89.95 112.25 86.42 116.09 79.55
  Q 121.71 69.46 121.62 57.09
  Z"
/>
<path fill="#decca6" d="
  M 121.62 57.09
  Q 121.71 69.46 116.09 79.55
  C 112.25 86.42 106.28 89.95 98.41 90.73
  Q 91.49 91.42 85.34 89.72
  A 0.67 0.67 0.0 0 1 84.90 88.80
  C 86.44 85.27 88.08 82.70 91.69 81.45
  C 96.04 79.94 99.35 77.95 100.85 73.37
  C 101.58 71.12 102.01 68.68 103.23 66.89
  C 106.78 61.69 115.15 58.98 121.27 56.84
  A 0.26 0.26 0.0 0 1 121.62 57.09
  Z"
/>
<path fill="#903910" d="
  M 44.68 57.65
  Q 46.27 57.74 47.84 57.87
  A 0.81 0.80 5.2 0 1 48.58 58.75
  L 48.13 63.36
  A 0.49 0.49 0.0 0 1 47.60 63.80
  L 47.33 63.77
  A 0.36 0.35 6.4 0 1 47.01 63.38
  L 47.32 60.23
  A 1.01 1.01 0.0 0 0 46.41 59.12
  L 46.12 59.09
  A 1.01 1.00 1.2 0 0 45.02 60.14
  L 45.15 62.61
  A 0.61 0.41 63.3 0 1 45.13 62.76
  Q 44.98 63.22 44.35 63.18
  Q 43.73 63.15 43.63 62.67
  A 0.61 0.41 -56.6 0 1 43.63 62.52
  L 44.05 60.08
  A 1.01 1.00 5.5 0 0 43.08 58.91
  L 42.79 58.91
  A 1.01 1.01 0.0 0 0 41.75 59.90
  L 41.69 63.07
  A 0.36 0.35 0.3 0 1 41.33 63.42
  L 41.06 63.42
  A 0.49 0.49 0.0 0 1 40.58 62.92
  L 40.67 58.29
  A 0.81 0.80 1.5 0 1 41.51 57.50
  Q 43.08 57.55 44.68 57.65
  Z"
/>
<path fill="#903910" d="
  M 146.77 63.22
  Q 147.44 60.58 147.25 59.76
  A 1.02 1.01 47.2 0 0 145.29 59.68
  L 144.51 62.16
  A 1.94 1.94 0.0 0 1 141.20 62.86
  Q 139.59 61.02 141.06 58.36
  A 0.50 0.50 0.0 0 1 141.99 58.70
  Q 141.64 60.63 141.67 61.09
  A 1.03 0.87 87.3 0 0 142.54 62.04
  Q 142.79 62.03 143.04 61.79
  C 144.05 60.82 143.67 57.85 145.94 57.50
  C 149.15 57.02 148.69 61.96 147.53 63.59
  A 0.43 0.43 0.0 0 1 146.77 63.22
  Z"
/>
<path fill="#903910" d="
  M 147.28 71.84
  L 140.87 71.40
  A 0.76 0.75 3.7 0 1 140.17 70.61
  Q 140.38 67.28 140.95 66.41
  C 142.15 64.62 145.36 64.47 146.10 66.87
  Q 146.43 67.94 146.18 69.47
  A 0.86 0.86 0.0 0 0 146.55 70.33
  L 147.56 71.00
  A 0.46 0.46 0.0 0 1 147.28 71.84
  Z
  M 141.66 70.03
  L 144.82 70.22
  A 0.31 0.31 0.0 0 0 145.15 69.93
  L 145.18 69.34
  A 2.68 1.82 -86.5 0 0 143.53 66.56
  L 143.39 66.55
  A 2.68 1.82 -86.5 0 0 141.41 69.11
  L 141.37 69.70
  A 0.31 0.31 0.0 0 0 141.66 70.03
  Z"
/>
<path fill="#903910" d="
  M 47.17 69.49
  Q 47.75 68.23 47.27 67.20
  A 0.90 0.89 40.8 0 0 45.60 67.32
  C 45.18 68.73 45.34 71.62 42.55 71.14
  C 40.27 70.76 40.63 67.47 40.93 65.78
  A 0.51 0.50 -79.0 0 1 41.53 65.37
  L 41.64 65.39
  A 0.55 0.55 0.0 0 1 42.07 66.00
  Q 41.76 68.20 42.14 69.37
  A 0.77 0.77 0.0 0 0 43.60 69.39
  Q 44.42 67.05 44.61 66.53
  A 1.97 1.87 37.5 0 1 47.96 66.18
  Q 49.07 67.65 48.41 70.00
  A 0.48 0.48 0.0 0 1 47.79 70.32
  L 47.47 70.21
  A 0.53 0.52 22.8 0 1 47.17 69.49
  Z"
/>
<path fill="#decca6" d="
  M 141.66 70.03
  A 0.31 0.31 0.0 0 1 141.37 69.70
  L 141.41 69.11
  A 2.68 1.82 -86.5 0 1 143.39 66.55
  L 143.53 66.56
  A 2.68 1.82 -86.5 0 1 145.18 69.34
  L 145.15 69.93
  A 0.31 0.31 0.0 0 1 144.82 70.22
  L 141.66 70.03
  Z"
/>
<path fill="#903910" d="
  M 41.98 74.07
  L 48.12 72.12
  A 0.76 0.76 0.0 0 1 49.07 72.60
  Q 50.11 75.78 49.90 76.81
  C 49.43 78.93 46.49 80.26 44.91 78.28
  Q 44.21 77.41 43.87 75.89
  A 0.87 0.87 0.0 0 0 43.21 75.22
  L 42.02 74.96
  A 0.46 0.46 0.0 0 1 41.98 74.07
  Z
  M 48.90 75.81
  A 2.02 2.02 0.0 0 0 46.88 73.79
  A 2.02 2.02 0.0 0 0 44.86 75.81
  A 2.02 2.02 0.0 0 0 46.88 77.83
  A 2.02 2.02 0.0 0 0 48.90 75.81
  Z"
/>
<rect fill="#903910" x="-3.86" y="-0.67" transform="translate(143.38,74.43) rotate(14.8)" width="7.72" height="1.34" rx="0.46"/>
<circle fill="#decca6" cx="46.88" cy="75.81" r="2.02"/>
<path fill="#903910" d="
  M 141.93 80.35
  Q 141.77 80.80 141.60 81.27
  A 0.82 0.81 -64.0 0 0 141.93 82.24
  Q 142.79 82.78 144.14 83.09
  A 0.62 0.62 0.0 0 1 144.58 83.91
  L 144.47 84.20
  A 0.51 0.51 0.0 0 1 143.82 84.50
  L 137.14 82.00
  A 0.39 0.38 -69.9 0 1 136.92 81.51
  L 137.03 81.23
  A 0.54 0.54 0.0 0 1 137.73 80.91
  L 139.49 81.57
  A 0.78 0.77 20.9 0 0 140.49 81.13
  Q 140.58 80.88 140.91 79.98
  Q 141.23 79.08 141.31 78.82
  A 0.78 0.77 18.7 0 0 140.83 77.85
  L 139.05 77.24
  A 0.54 0.54 0.0 0 1 138.72 76.54
  L 138.81 76.26
  A 0.39 0.38 -70.6 0 1 139.29 76.02
  L 146.03 78.34
  A 0.51 0.51 0.0 0 1 146.34 78.99
  L 146.24 79.28
  A 0.62 0.62 0.0 0 1 145.38 79.64
  Q 144.14 79.01 143.14 78.88
  A 0.82 0.81 -76.5 0 0 142.26 79.42
  Q 142.10 79.89 141.93 80.35
  Z"
/>
<path fill="#903910" d="
  M 46.78 88.30
  A 0.42 0.42 0.0 0 1 46.21 87.73
  L 47.07 86.25
  A 1.30 1.29 -33.8 0 0 47.23 85.46
  Q 46.95 83.30 44.95 83.83
  A 0.52 0.52 0.0 0 1 44.36 83.59
  L 44.09 83.13
  A 0.34 0.33 -26.5 0 1 44.25 82.66
  L 49.91 80.19
  A 1.25 1.24 61.5 0 1 51.45 80.65
  Q 53.87 84.36 52.03 86.09
  Q 50.73 87.31 49.05 87.15
  A 0.78 0.77 -57.3 0 0 48.60 87.25
  L 46.78 88.30
  Z
  M 47.5700 83.4100
  A 2.11 1.88 -172.1 0 0 49.4016 85.5622
  A 2.11 1.88 -172.1 0 0 51.7500 83.9900
  A 2.11 1.88 -172.1 0 0 49.9184 81.8378
  A 2.11 1.88 -172.1 0 0 47.5700 83.4100
  Z"
/>
<ellipse fill="#decca6" cx="0.00" cy="0.00" transform="translate(49.66,83.70) rotate(-172.1)" rx="2.11" ry="1.88"/>
<path fill="#903910" d="
  M 138.85 91.10
  Q 140.74 89.18 140.99 88.39
  A 1.00 1.00 0.0 0 0 139.36 87.35
  L 137.46 89.07
  A 1.92 1.92 0.0 0 1 134.29 88.01
  Q 133.84 85.64 136.42 84.11
  A 0.49 0.49 0.0 0 1 137.04 84.86
  Q 135.78 86.33 135.57 86.74
  A 1.02 0.86 -62.3 0 0 135.84 87.98
  Q 136.06 88.10 136.39 88.02
  C 137.74 87.69 138.90 84.97 141.00 85.82
  C 143.98 87.01 141.11 90.99 139.32 91.79
  A 0.43 0.42 -79.4 0 1 138.85 91.10
  Z"
/>
<path fill="#903910" d="
  M 54.82 92.84
  A 0.37 0.37 0.0 0 1 54.67 93.33
  L 54.41 93.49
  A 0.61 0.61 0.0 0 1 53.58 93.26
  L 52.26 90.97
  A 0.93 0.92 -30.1 0 0 51.00 90.64
  L 50.50 90.93
  A 0.95 0.94 -32.7 0 0 50.20 92.30
  L 52.36 95.33
  A 0.14 0.12 -45.7 0 1 52.35 95.48
  L 52.02 95.83
  A 0.60 0.60 0.0 0 1 51.06 95.72
  L 48.63 91.52
  A 0.94 0.93 -30.2 0 1 48.97 90.25
  L 53.60 87.58
  A 1.45 1.44 -29.9 0 1 55.58 88.11
  L 57.47 91.38
  A 0.39 0.39 0.0 0 1 57.33 91.91
  L 57.07 92.06
  A 0.38 0.38 0.0 0 1 56.54 91.90
  Q 55.40 89.72 54.18 88.95
  A 0.81 0.81 0.0 0 0 52.99 89.36
  L 52.86 89.69
  A 0.71 0.70 -58.6 0 0 53.04 90.46
  Q 54.18 91.52 54.82 92.84
  Z"
/>
<path fill="#903910" d="
  M 133.75 95.31
  Q 133.00 95.33 132.22 95.32
  A 0.40 0.40 0.0 0 0 131.97 96.05
  L 135.03 98.30
  A 0.64 0.63 39.2 0 1 135.13 99.24
  L 135.10 99.28
  A 0.72 0.72 0.0 0 1 134.12 99.37
  Q 132.03 97.77 128.99 95.22
  Q 128.69 94.97 128.72 94.69
  A 0.96 0.94 -83.8 0 1 129.76 93.84
  Q 131.87 94.08 133.56 94.02
  Q 134.30 94.00 135.09 94.02
  A 0.40 0.40 0.0 0 0 135.34 93.28
  L 132.28 91.03
  A 0.64 0.63 39.2 0 1 132.18 90.09
  L 132.21 90.05
  A 0.72 0.72 0.0 0 1 133.19 89.96
  Q 135.28 91.56 138.32 94.11
  Q 138.62 94.36 138.59 94.64
  A 0.96 0.94 -83.8 0 1 137.54 95.50
  Q 135.44 95.25 133.75 95.31
  Z"
/>
<path fill="#903910" d="
  M 54.23 96.92
  Q 55.45 99.30 56.12 99.77
  A 0.99 0.99 0.0 0 0 57.60 98.57
  L 56.57 96.24
  A 1.90 1.90 0.0 0 1 58.55 93.59
  Q 60.92 93.90 61.56 96.80
  A 0.49 0.49 0.0 0 1 60.66 97.15
  Q 59.67 95.51 59.35 95.19
  A 1.01 0.85 45.9 0 0 58.10 95.06
  Q 57.92 95.22 57.89 95.56
  C 57.78 96.93 59.98 98.86 58.54 100.58
  C 56.50 103.01 53.63 99.09 53.44 97.15
  A 0.42 0.42 0.0 0 1 54.23 96.92
  Z"
/>
<path fill="#903910" d="
  M 131.24 101.32
  A 4.03 4.03 0.0 0 1 127.21 105.35
  A 4.03 4.03 0.0 0 1 123.18 101.32
  A 4.03 4.03 0.0 0 1 127.21 97.29
  A 4.03 4.03 0.0 0 1 131.24 101.32
  Z
  M 125.0000 99.7979
  A 2.69 2.54 -144.5 0 0 125.7150 103.4279
  A 2.69 2.54 -144.5 0 0 129.3800 102.9221
  A 2.69 2.54 -144.5 0 0 128.6650 99.2921
  A 2.69 2.54 -144.5 0 0 125.0000 99.7979
  Z"
/>
<path fill="#903910" d="
  M 59.90 102.69
  Q 61.48 104.85 62.22 105.22
  A 1.00 0.99 -3.2 0 0 63.50 103.79
  L 62.11 101.65
  A 1.90 1.90 0.0 0 1 63.66 98.71
  Q 66.05 98.65 67.14 101.42
  A 0.49 0.49 0.0 0 1 66.31 101.91
  Q 65.07 100.44 64.70 100.17
  A 1.01 0.85 36.9 0 0 63.44 100.24
  Q 63.29 100.43 63.31 100.77
  C 63.42 102.14 65.90 103.71 64.74 105.64
  C 63.10 108.37 59.65 104.93 59.15 103.04
  A 0.42 0.42 0.0 0 1 59.90 102.69
  Z"
/>
<ellipse fill="#decca6" cx="0.00" cy="0.00" transform="translate(127.19,101.36) rotate(-144.5)" rx="2.69" ry="2.54"/>
<rect fill="#903910" x="-0.70" y="-4.07" transform="translate(122.02,105.36) rotate(-32.8)" width="1.40" height="8.14" rx="0.69"/>
<path fill="#903910" d="
  M 74.59 107.38
  A 4.01 4.01 0.0 0 1 70.58 111.39
  A 4.01 4.01 0.0 0 1 66.57 107.38
  A 4.01 4.01 0.0 0 1 70.58 103.37
  A 4.01 4.01 0.0 0 1 74.59 107.38
  Z
  M 73.25 107.27
  A 2.69 2.69 0.0 0 0 70.56 104.58
  A 2.69 2.69 0.0 0 0 67.87 107.27
  A 2.69 2.69 0.0 0 0 70.56 109.96
  A 2.69 2.69 0.0 0 0 73.25 107.27
  Z"
/>
<circle fill="#decca6" cx="70.56" cy="107.27" r="2.69"/>
<path fill="#903910" d="
  M 115.68 112.60
  L 112.46 107.01
  A 0.76 0.76 0.0 0 1 112.73 105.98
  Q 115.62 104.29 116.67 104.28
  C 118.84 104.28 120.76 106.87 119.17 108.84
  Q 118.46 109.71 117.05 110.36
  A 0.87 0.87 0.0 0 0 116.54 111.15
  L 116.54 112.37
  A 0.46 0.46 0.0 0 1 115.68 112.60
  Z
  M 114.33 107.59
  L 115.66 109.35
  A 0.76 0.76 0.0 0 0 116.72 109.50
  L 117.15 109.18
  A 2.33 1.75 -37.1 0 0 117.95 106.38
  L 117.82 106.20
  A 2.33 1.75 -37.1 0 0 114.90 106.21
  L 114.48 106.53
  A 0.76 0.76 0.0 0 0 114.33 107.59
  Z"
/>
<path fill="#decca6" d="
  M 114.33 107.59
  A 0.76 0.76 0.0 0 1 114.48 106.53
  L 114.90 106.21
  A 2.33 1.75 -37.1 0 1 117.82 106.20
  L 117.95 106.38
  A 2.33 1.75 -37.1 0 1 117.15 109.18
  L 116.72 109.50
  A 0.76 0.76 0.0 0 1 115.66 109.35
  L 114.33 107.59
  Z"
/>
<path fill="#903910" d="
  M 108.61 113.54
  Q 108.47 113.57 105.58 111.50
  A 0.12 0.11 16.9 0 0 105.40 111.59
  Q 105.45 113.24 106.39 115.41
  A 0.66 0.65 -19.2 0 1 105.95 116.30
  L 105.66 116.38
  A 0.47 0.47 0.0 0 1 105.09 116.05
  L 103.30 109.43
  A 0.63 0.63 0.0 0 1 104.19 108.70
  Q 105.40 109.30 106.82 110.92
  Q 107.17 111.33 107.92 111.12
  Q 108.68 110.91 108.77 110.37
  Q 109.13 108.25 109.85 107.11
  A 0.63 0.63 0.0 0 1 110.99 107.26
  L 112.92 113.84
  A 0.47 0.47 0.0 0 1 112.60 114.42
  L 112.31 114.51
  A 0.66 0.65 -12.2 0 1 111.47 113.98
  Q 111.14 111.64 110.32 110.20
  A 0.12 0.11 -48.3 0 0 110.12 110.22
  Q 108.74 113.50 108.61 113.54
  Z"
/>
<path fill="#903910" d="
  M 79.65 111.34
  Q 78.95 114.50 83.66 114.78
  A 0.39 0.39 0.0 0 1 83.79 115.53
  C 80.74 116.78 77.41 114.55 78.19 111.02
  C 78.98 107.48 82.93 106.86 85.17 109.28
  A 0.39 0.39 0.0 0 1 84.74 109.91
  Q 80.35 108.17 79.65 111.34
  Z"
/>
<path fill="#903910" d="
  M 91.58 112.13
  Q 91.92 111.75 91.81 110.00
  A 0.56 0.56 0.0 0 1 92.42 109.41
  L 92.69 109.44
  A 0.63 0.63 0.0 0 1 93.26 110.13
  L 92.61 116.72
  A 0.74 0.74 0.0 0 1 91.79 117.39
  L 91.47 117.36
  A 0.37 0.36 6.3 0 1 91.14 116.96
  L 91.38 114.49
  A 0.57 0.57 0.0 0 0 90.87 113.86
  L 88.29 113.61
  A 0.51 0.51 0.0 0 0 87.73 114.07
  L 87.50 116.41
  A 0.60 0.60 0.0 0 1 86.64 116.89
  L 86.38 116.77
  A 0.58 0.57 16.6 0 1 86.07 116.20
  L 86.71 109.65
  A 0.66 0.65 -83.9 0 1 87.43 109.06
  L 87.73 109.09
  A 0.46 0.46 0.0 0 1 88.15 109.58
  Q 88.07 110.97 88.12 111.16
  A 2.11 2.00 59.2 0 0 91.58 112.13
  Z"
/>
<path fill="#903910" d="
  M 94.83 116.75
  L 97.54 109.49
  A 0.74 0.74 0.0 0 1 98.87 109.38
  L 102.82 116.23
  A 0.62 0.62 0.0 0 1 101.90 117.03
  L 100.60 116.00
  A 0.75 0.74 65.0 0 0 100.17 115.84
  Q 97.57 115.74 95.55 117.28
  A 0.47 0.46 -8.6 0 1 94.83 116.75
  Z
  M 97.87 114.88
  L 99.54 114.68
  A 0.45 0.45 0.0 0 0 99.93 114.18
  L 99.91 114.00
  A 2.53 1.23 83.3 0 0 98.40 111.63
  L 98.28 111.65
  A 2.53 1.23 83.3 0 0 97.35 114.30
  L 97.37 114.48
  A 0.45 0.45 0.0 0 0 97.87 114.88
  Z"
/>
<path fill="#decca6" d="
  M 97.87 114.88
  A 0.45 0.45 0.0 0 1 97.37 114.48
  L 97.35 114.30
  A 2.53 1.23 83.3 0 1 98.28 111.65
  L 98.40 111.63
  A 2.53 1.23 83.3 0 1 99.91 114.00
  L 99.93 114.18
  A 0.45 0.45 0.0 0 1 99.54 114.68
  L 97.87 114.88
  Z"
/>
</svg>
